M48
; DRILL file {KiCad 9.0.7} date 2026-02-26T22:40:01-0500
; FORMAT={-:-/ absolute / inch / decimal}
; #@! TF.CreationDate,2026-02-26T22:40:01-05:00
; #@! TF.GenerationSoftware,Kicad,Pcbnew,9.0.7
; #@! TF.FileFunction,Plated,1,4,PTH
FMAT,2
INCH
; #@! TA.AperFunction,Plated,PTH,ComponentDrill
T1C0.0016
; #@! TA.AperFunction,Plated,PTH,ComponentDrill
T2C0.0315
; #@! TA.AperFunction,Plated,PTH,ComponentDrill
T3C0.0394
; #@! TA.AperFunction,Plated,PTH,ComponentDrill
T4C0.0400
; #@! TA.AperFunction,Plated,PTH,ComponentDrill
T5C0.0433
; #@! TA.AperFunction,Plated,PTH,ComponentDrill
T6C0.1000
%
G90
G05
T1
X6.7412Y-1.8528
T2
X4.005Y-3.013
X4.105Y-3.013
X4.205Y-3.013
X4.305Y-3.013
X4.405Y-3.013
X4.505Y-3.013
X4.605Y-3.013
X4.705Y-3.013
T3
X3.827Y-1.961
X3.927Y-1.961
X4.027Y-1.961
X4.127Y-1.961
X4.418Y-1.975
X4.518Y-1.975
X4.618Y-1.975
X4.718Y-1.975
X5.035Y-1.938
X5.135Y-1.938
X5.235Y-1.938
X5.335Y-1.938
X5.671Y-1.9456
X5.771Y-1.9456
X5.871Y-1.9456
X5.971Y-1.9456
X6.296Y-1.9546
X6.396Y-1.9546
X6.496Y-1.9546
X6.596Y-1.9546
X6.934Y-1.9366
X7.034Y-1.9366
X7.134Y-1.9366
X7.234Y-1.9366
X7.327Y-3.899
X7.327Y-3.999
T4
X3.7374Y-2.115
X3.7374Y-2.215
X3.7374Y-2.315
X3.7374Y-2.415
X3.7374Y-2.515
X3.7374Y-2.615
X3.7374Y-2.715
X3.7374Y-2.815
X4.2374Y-2.115
X4.2374Y-2.215
X4.2374Y-2.315
X4.2374Y-2.415
X4.2374Y-2.515
X4.2374Y-2.615
X4.2374Y-2.715
X4.2374Y-2.815
X4.3607Y-2.115
X4.3607Y-2.215
X4.3607Y-2.315
X4.3607Y-2.415
X4.3607Y-2.515
X4.3607Y-2.615
X4.3607Y-2.715
X4.3607Y-2.815
X4.8607Y-2.115
X4.8607Y-2.215
X4.8607Y-2.315
X4.8607Y-2.415
X4.8607Y-2.515
X4.8607Y-2.615
X4.8607Y-2.715
X4.8607Y-2.815
X4.984Y-2.115
X4.984Y-2.215
X4.984Y-2.315
X4.984Y-2.415
X4.984Y-2.515
X4.984Y-2.615
X4.984Y-2.715
X4.984Y-2.815
X5.484Y-2.115
X5.484Y-2.215
X5.484Y-2.315
X5.484Y-2.415
X5.484Y-2.515
X5.484Y-2.615
X5.484Y-2.715
X5.484Y-2.815
X5.6073Y-2.115
X5.6073Y-2.215
X5.6073Y-2.315
X5.6073Y-2.415
X5.6073Y-2.515
X5.6073Y-2.615
X5.6073Y-2.715
X5.6073Y-2.815
X6.1073Y-2.115
X6.1073Y-2.215
X6.1073Y-2.315
X6.1073Y-2.415
X6.1073Y-2.515
X6.1073Y-2.615
X6.1073Y-2.715
X6.1073Y-2.815
X6.205Y-3.1
X6.2306Y-2.115
X6.2306Y-2.215
X6.2306Y-2.315
X6.2306Y-2.415
X6.2306Y-2.515
X6.2306Y-2.615
X6.2306Y-2.715
X6.2306Y-2.815
X6.305Y-3.1
X6.405Y-3.1
X6.505Y-3.1
X6.605Y-3.1
X6.7306Y-2.115
X6.7306Y-2.215
X6.7306Y-2.315
X6.7306Y-2.415
X6.7306Y-2.515
X6.7306Y-2.615
X6.7306Y-2.715
X6.7306Y-2.815
X6.8539Y-2.115
X6.8539Y-2.215
X6.8539Y-2.315
X6.8539Y-2.415
X6.8539Y-2.515
X6.8539Y-2.615
X6.8539Y-2.715
X6.8539Y-2.815
X7.128Y-3.033
X7.128Y-3.603
X7.3539Y-2.115
X7.3539Y-2.215
X7.3539Y-2.315
X7.3539Y-2.415
X7.3539Y-2.515
X7.3539Y-2.615
X7.3539Y-2.715
X7.3539Y-2.815
X7.428Y-3.033
X7.428Y-3.603
T5
X7.156Y-3.746
X7.156Y-4.146
T6
X3.854Y-2.967
X3.859Y-2.215
X4.839Y-2.225
X4.847Y-2.963
M30
