%TF.GenerationSoftware,KiCad,Pcbnew,9.0.7*%
%TF.CreationDate,2026-02-26T22:39:55-05:00*%
%TF.ProjectId,StepperClock,53746570-7065-4724-936c-6f636b2e6b69,rev?*%
%TF.SameCoordinates,Original*%
%TF.FileFunction,Copper,L2,Inr*%
%TF.FilePolarity,Positive*%
%FSLAX46Y46*%
G04 Gerber Fmt 4.6, Leading zero omitted, Abs format (unit mm)*
G04 Created by KiCad (PCBNEW 9.0.7) date 2026-02-26 22:39:55*
%MOMM*%
%LPD*%
G01*
G04 APERTURE LIST*
G04 Aperture macros list*
%AMRoundRect*
0 Rectangle with rounded corners*
0 $1 Rounding radius*
0 $2 $3 $4 $5 $6 $7 $8 $9 X,Y pos of 4 corners*
0 Add a 4 corners polygon primitive as box body*
4,1,4,$2,$3,$4,$5,$6,$7,$8,$9,$2,$3,0*
0 Add four circle primitives for the rounded corners*
1,1,$1+$1,$2,$3*
1,1,$1+$1,$4,$5*
1,1,$1+$1,$6,$7*
1,1,$1+$1,$8,$9*
0 Add four rect primitives between the rounded corners*
20,1,$1+$1,$2,$3,$4,$5,0*
20,1,$1+$1,$4,$5,$6,$7,0*
20,1,$1+$1,$6,$7,$8,$9,0*
20,1,$1+$1,$8,$9,$2,$3,0*%
G04 Aperture macros list end*
%TA.AperFunction,ComponentPad*%
%ADD10C,1.727200*%
%TD*%
%TA.AperFunction,ComponentPad*%
%ADD11C,3.048000*%
%TD*%
%TA.AperFunction,ComponentPad*%
%ADD12RoundRect,0.249999X0.850001X-0.850001X0.850001X0.850001X-0.850001X0.850001X-0.850001X-0.850001X0*%
%TD*%
%TA.AperFunction,ComponentPad*%
%ADD13C,2.200000*%
%TD*%
%TA.AperFunction,ComponentPad*%
%ADD14R,1.700000X1.700000*%
%TD*%
%TA.AperFunction,ComponentPad*%
%ADD15C,1.700000*%
%TD*%
%TA.AperFunction,ComponentPad*%
%ADD16C,0.068000*%
%TD*%
G04 APERTURE END LIST*
D10*
%TO.N,GND*%
%TO.C,U1*%
X119507000Y-76530200D03*
%TO.N,+3V3*%
X116967000Y-76530200D03*
%TO.N,/SCK*%
X114427000Y-76530200D03*
%TO.N,/MOSI*%
X111887000Y-76530200D03*
%TO.N,/TFT_Reset*%
X109347000Y-76530200D03*
%TO.N,/TFT_D{slash}~{C}*%
X106807000Y-76530200D03*
%TO.N,/TFT_Select*%
X104267000Y-76530200D03*
%TO.N,unconnected-(U1-BLK-Pad8)*%
X101727000Y-76530200D03*
D11*
%TO.N,N/C*%
X123113800Y-75260200D03*
X122910600Y-56515000D03*
X98018600Y-56261000D03*
X97891600Y-75361800D03*
%TD*%
D12*
%TO.N,Net-(A1-VSYS)*%
%TO.C,D1*%
X181762400Y-105308400D03*
D13*
%TO.N,+5V*%
X181762400Y-95148400D03*
%TD*%
D14*
%TO.N,/Sec1_M1B*%
%TO.C,J6*%
X159918400Y-49647800D03*
D15*
%TO.N,/Sec1_M1A*%
X162458400Y-49647800D03*
%TO.N,/Sec1_M2B*%
X164998400Y-49647800D03*
X167538400Y-49647800D03*
%TD*%
D14*
%TO.N,/Hour0_M1B*%
%TO.C,J3*%
X112217200Y-50165000D03*
D15*
%TO.N,/Hour0_M1A*%
X114757200Y-50165000D03*
%TO.N,/Hour0_M2B*%
X117297200Y-50165000D03*
X119837200Y-50165000D03*
%TD*%
D14*
%TO.N,/Min0_M1B*%
%TO.C,J5*%
X144043400Y-49419200D03*
D15*
%TO.N,/Min0_M1A*%
X146583400Y-49419200D03*
%TO.N,/Min0_M2B*%
X149123400Y-49419200D03*
X151663400Y-49419200D03*
%TD*%
D14*
%TO.N,/Hour1_M1B*%
%TO.C,J2*%
X97205800Y-49809400D03*
D15*
%TO.N,/Hour1_M1A*%
X99745800Y-49809400D03*
%TO.N,/Hour1_M2B*%
X102285800Y-49809400D03*
X104825800Y-49809400D03*
%TD*%
D14*
%TO.N,GND*%
%TO.C,J1*%
X186105800Y-101574600D03*
D15*
%TO.N,+12V*%
X186105800Y-99034600D03*
%TD*%
D14*
%TO.N,/Sec0_M1B*%
%TO.C,J7*%
X176123600Y-49190600D03*
D15*
%TO.N,/Sec0_M1A*%
X178663600Y-49190600D03*
%TO.N,/Sec0_M2B*%
X181203600Y-49190600D03*
X183743600Y-49190600D03*
%TD*%
D10*
%TO.N,unconnected-(U3-PPS-Pad1)*%
%TO.C,U3*%
X157607000Y-78740000D03*
D16*
X171227000Y-47060000D03*
D10*
%TO.N,/PicoRx*%
X160147000Y-78740000D03*
%TO.N,/PicoTx*%
X162687000Y-78740000D03*
%TO.N,GND*%
X165227000Y-78740000D03*
%TO.N,+3V3*%
X167767000Y-78740000D03*
%TD*%
%TO.N,GND*%
%TO.C,U2*%
X181051200Y-91516200D03*
%TO.N,+12V*%
X188671200Y-91516200D03*
%TO.N,+5V*%
X188671200Y-77038200D03*
%TO.N,GND*%
X181051200Y-77038200D03*
%TD*%
D14*
%TO.N,/Min1_M1B*%
%TO.C,J4*%
X127889000Y-49225200D03*
D15*
%TO.N,/Min1_M1A*%
X130429000Y-49225200D03*
%TO.N,/Min1_M2B*%
X132969000Y-49225200D03*
X135509000Y-49225200D03*
%TD*%
D10*
%TO.N,/Enable*%
%TO.C,U5*%
X110761600Y-71501000D03*
%TO.N,Net-(JP1-C)*%
X110761600Y-68961000D03*
%TO.N,Net-(JP2-C)*%
X110761600Y-66421000D03*
%TO.N,unconnected-(U5-UART-Pad4)*%
X110761600Y-63881000D03*
%TO.N,unconnected-(U5-PDN-Pad5)*%
X110761600Y-61341000D03*
%TO.N,Net-(U4-CLK)*%
X110761600Y-58801000D03*
%TO.N,/Hour0Step*%
X110761600Y-56261000D03*
%TO.N,/Direction*%
X110761600Y-53721000D03*
%TO.N,GND*%
X123461600Y-53721000D03*
%TO.N,+5V*%
X123461600Y-56261000D03*
%TO.N,/Hour0_M2B*%
X123461600Y-58801000D03*
X123461600Y-61341000D03*
%TO.N,/Hour0_M1A*%
X123461600Y-63881000D03*
%TO.N,/Hour0_M1B*%
X123461600Y-66421000D03*
%TO.N,GND*%
X123461600Y-68961000D03*
%TO.N,+12V*%
X123461600Y-71501000D03*
%TD*%
%TO.N,/Enable*%
%TO.C,U4*%
X94929600Y-71501000D03*
%TO.N,Net-(JP1-C)*%
X94929600Y-68961000D03*
%TO.N,Net-(JP2-C)*%
X94929600Y-66421000D03*
%TO.N,unconnected-(U4-UART-Pad4)*%
X94929600Y-63881000D03*
%TO.N,unconnected-(U4-PDN-Pad5)*%
X94929600Y-61341000D03*
%TO.N,Net-(U4-CLK)*%
X94929600Y-58801000D03*
%TO.N,/Hour1Step*%
X94929600Y-56261000D03*
%TO.N,/Direction*%
X94929600Y-53721000D03*
%TO.N,GND*%
X107629600Y-53721000D03*
%TO.N,+5V*%
X107629600Y-56261000D03*
%TO.N,/Hour1_M2B*%
X107629600Y-58801000D03*
X107629600Y-61341000D03*
%TO.N,/Hour1_M1A*%
X107629600Y-63881000D03*
%TO.N,/Hour1_M1B*%
X107629600Y-66421000D03*
%TO.N,GND*%
X107629600Y-68961000D03*
%TO.N,+12V*%
X107629600Y-71501000D03*
%TD*%
%TO.N,/Enable*%
%TO.C,U9*%
X174089600Y-71501000D03*
%TO.N,Net-(JP1-C)*%
X174089600Y-68961000D03*
%TO.N,Net-(JP2-C)*%
X174089600Y-66421000D03*
%TO.N,unconnected-(U9-UART-Pad4)*%
X174089600Y-63881000D03*
%TO.N,unconnected-(U9-PDN-Pad5)*%
X174089600Y-61341000D03*
%TO.N,Net-(U4-CLK)*%
X174089600Y-58801000D03*
%TO.N,/Sec0Step*%
X174089600Y-56261000D03*
%TO.N,/Direction*%
X174089600Y-53721000D03*
%TO.N,GND*%
X186789600Y-53721000D03*
%TO.N,+5V*%
X186789600Y-56261000D03*
%TO.N,/Sec0_M2B*%
X186789600Y-58801000D03*
X186789600Y-61341000D03*
%TO.N,/Sec0_M1A*%
X186789600Y-63881000D03*
%TO.N,/Sec0_M1B*%
X186789600Y-66421000D03*
%TO.N,GND*%
X186789600Y-68961000D03*
%TO.N,+12V*%
X186789600Y-71501000D03*
%TD*%
%TO.N,/Enable*%
%TO.C,U7*%
X142425600Y-71501000D03*
%TO.N,Net-(JP1-C)*%
X142425600Y-68961000D03*
%TO.N,Net-(JP2-C)*%
X142425600Y-66421000D03*
%TO.N,unconnected-(U7-UART-Pad4)*%
X142425600Y-63881000D03*
%TO.N,unconnected-(U7-PDN-Pad5)*%
X142425600Y-61341000D03*
%TO.N,Net-(U4-CLK)*%
X142425600Y-58801000D03*
%TO.N,/Min0Step*%
X142425600Y-56261000D03*
%TO.N,/Direction*%
X142425600Y-53721000D03*
%TO.N,GND*%
X155125600Y-53721000D03*
%TO.N,+5V*%
X155125600Y-56261000D03*
%TO.N,/Min0_M2B*%
X155125600Y-58801000D03*
X155125600Y-61341000D03*
%TO.N,/Min0_M1A*%
X155125600Y-63881000D03*
%TO.N,/Min0_M1B*%
X155125600Y-66421000D03*
%TO.N,GND*%
X155125600Y-68961000D03*
%TO.N,+12V*%
X155125600Y-71501000D03*
%TD*%
%TO.N,/Enable*%
%TO.C,U8*%
X158257600Y-71501000D03*
%TO.N,Net-(JP1-C)*%
X158257600Y-68961000D03*
%TO.N,Net-(JP2-C)*%
X158257600Y-66421000D03*
%TO.N,unconnected-(U8-UART-Pad4)*%
X158257600Y-63881000D03*
%TO.N,unconnected-(U8-PDN-Pad5)*%
X158257600Y-61341000D03*
%TO.N,Net-(U4-CLK)*%
X158257600Y-58801000D03*
%TO.N,/Sec1Step*%
X158257600Y-56261000D03*
%TO.N,/Direction*%
X158257600Y-53721000D03*
%TO.N,GND*%
X170957600Y-53721000D03*
%TO.N,+5V*%
X170957600Y-56261000D03*
%TO.N,/Sec1_M2B*%
X170957600Y-58801000D03*
X170957600Y-61341000D03*
%TO.N,/Sec1_M1A*%
X170957600Y-63881000D03*
%TO.N,/Sec1_M1B*%
X170957600Y-66421000D03*
%TO.N,GND*%
X170957600Y-68961000D03*
%TO.N,+12V*%
X170957600Y-71501000D03*
%TD*%
%TO.N,/Enable*%
%TO.C,U6*%
X126593600Y-71501000D03*
%TO.N,Net-(JP1-C)*%
X126593600Y-68961000D03*
%TO.N,Net-(JP2-C)*%
X126593600Y-66421000D03*
%TO.N,unconnected-(U6-UART-Pad4)*%
X126593600Y-63881000D03*
%TO.N,unconnected-(U6-PDN-Pad5)*%
X126593600Y-61341000D03*
%TO.N,Net-(U4-CLK)*%
X126593600Y-58801000D03*
%TO.N,/Min1Step*%
X126593600Y-56261000D03*
%TO.N,/Direction*%
X126593600Y-53721000D03*
%TO.N,GND*%
X139293600Y-53721000D03*
%TO.N,+5V*%
X139293600Y-56261000D03*
%TO.N,/Min1_M2B*%
X139293600Y-58801000D03*
X139293600Y-61341000D03*
%TO.N,/Min1_M1A*%
X139293600Y-63881000D03*
%TO.N,/Min1_M1B*%
X139293600Y-66421000D03*
%TO.N,GND*%
X139293600Y-68961000D03*
%TO.N,+12V*%
X139293600Y-71501000D03*
%TD*%
M02*
