%TF.GenerationSoftware,KiCad,Pcbnew,9.0.7*%
%TF.CreationDate,2026-02-26T22:39:56-05:00*%
%TF.ProjectId,StepperClock,53746570-7065-4724-936c-6f636b2e6b69,rev?*%
%TF.SameCoordinates,Original*%
%TF.FileFunction,Soldermask,Bot*%
%TF.FilePolarity,Negative*%
%FSLAX46Y46*%
G04 Gerber Fmt 4.6, Leading zero omitted, Abs format (unit mm)*
G04 Created by KiCad (PCBNEW 9.0.7) date 2026-02-26 22:39:56*
%MOMM*%
%LPD*%
G01*
G04 APERTURE LIST*
G04 Aperture macros list*
%AMRoundRect*
0 Rectangle with rounded corners*
0 $1 Rounding radius*
0 $2 $3 $4 $5 $6 $7 $8 $9 X,Y pos of 4 corners*
0 Add a 4 corners polygon primitive as box body*
4,1,4,$2,$3,$4,$5,$6,$7,$8,$9,$2,$3,0*
0 Add four circle primitives for the rounded corners*
1,1,$1+$1,$2,$3*
1,1,$1+$1,$4,$5*
1,1,$1+$1,$6,$7*
1,1,$1+$1,$8,$9*
0 Add four rect primitives between the rounded corners*
20,1,$1+$1,$2,$3,$4,$5,0*
20,1,$1+$1,$4,$5,$6,$7,0*
20,1,$1+$1,$6,$7,$8,$9,0*
20,1,$1+$1,$8,$9,$2,$3,0*%
G04 Aperture macros list end*
%ADD10C,1.727200*%
%ADD11C,3.048000*%
%ADD12RoundRect,0.249999X0.850001X-0.850001X0.850001X0.850001X-0.850001X0.850001X-0.850001X-0.850001X0*%
%ADD13C,2.200000*%
%ADD14R,1.700000X1.700000*%
%ADD15C,1.700000*%
%ADD16C,1.850000*%
%ADD17C,0.068000*%
G04 APERTURE END LIST*
D10*
%TO.C,U1*%
X119507000Y-76530200D03*
X116967000Y-76530200D03*
X114427000Y-76530200D03*
X111887000Y-76530200D03*
X109347000Y-76530200D03*
X106807000Y-76530200D03*
X104267000Y-76530200D03*
X101727000Y-76530200D03*
D11*
X123113800Y-75260200D03*
X122910600Y-56515000D03*
X98018600Y-56261000D03*
X97891600Y-75361800D03*
%TD*%
D12*
%TO.C,D1*%
X181762400Y-105308400D03*
D13*
X181762400Y-95148400D03*
%TD*%
D14*
%TO.C,J6*%
X159918400Y-49647800D03*
D15*
X162458400Y-49647800D03*
X164998400Y-49647800D03*
X167538400Y-49647800D03*
%TD*%
D14*
%TO.C,J3*%
X112217200Y-50165000D03*
D15*
X114757200Y-50165000D03*
X117297200Y-50165000D03*
X119837200Y-50165000D03*
%TD*%
D13*
%TO.C,A1*%
X94369400Y-94907800D03*
D16*
X97399400Y-94607800D03*
X97399400Y-89757800D03*
D13*
X94369400Y-89457800D03*
%TD*%
D14*
%TO.C,J5*%
X144043400Y-49419200D03*
D15*
X146583400Y-49419200D03*
X149123400Y-49419200D03*
X151663400Y-49419200D03*
%TD*%
D14*
%TO.C,J2*%
X97205800Y-49809400D03*
D15*
X99745800Y-49809400D03*
X102285800Y-49809400D03*
X104825800Y-49809400D03*
%TD*%
D14*
%TO.C,J1*%
X186105800Y-101574600D03*
D15*
X186105800Y-99034600D03*
%TD*%
D14*
%TO.C,J7*%
X176123600Y-49190600D03*
D15*
X178663600Y-49190600D03*
X181203600Y-49190600D03*
X183743600Y-49190600D03*
%TD*%
D10*
%TO.C,U3*%
X157607000Y-78740000D03*
D17*
X171227000Y-47060000D03*
D10*
X160147000Y-78740000D03*
X162687000Y-78740000D03*
X165227000Y-78740000D03*
X167767000Y-78740000D03*
%TD*%
%TO.C,U2*%
X181051200Y-91516200D03*
X188671200Y-91516200D03*
X188671200Y-77038200D03*
X181051200Y-77038200D03*
%TD*%
D14*
%TO.C,J4*%
X127889000Y-49225200D03*
D15*
X130429000Y-49225200D03*
X132969000Y-49225200D03*
X135509000Y-49225200D03*
%TD*%
D10*
%TO.C,U5*%
X110761600Y-71501000D03*
X110761600Y-68961000D03*
X110761600Y-66421000D03*
X110761600Y-63881000D03*
X110761600Y-61341000D03*
X110761600Y-58801000D03*
X110761600Y-56261000D03*
X110761600Y-53721000D03*
X123461600Y-53721000D03*
X123461600Y-56261000D03*
X123461600Y-58801000D03*
X123461600Y-61341000D03*
X123461600Y-63881000D03*
X123461600Y-66421000D03*
X123461600Y-68961000D03*
X123461600Y-71501000D03*
%TD*%
%TO.C,U4*%
X94929600Y-71501000D03*
X94929600Y-68961000D03*
X94929600Y-66421000D03*
X94929600Y-63881000D03*
X94929600Y-61341000D03*
X94929600Y-58801000D03*
X94929600Y-56261000D03*
X94929600Y-53721000D03*
X107629600Y-53721000D03*
X107629600Y-56261000D03*
X107629600Y-58801000D03*
X107629600Y-61341000D03*
X107629600Y-63881000D03*
X107629600Y-66421000D03*
X107629600Y-68961000D03*
X107629600Y-71501000D03*
%TD*%
%TO.C,U9*%
X174089600Y-71501000D03*
X174089600Y-68961000D03*
X174089600Y-66421000D03*
X174089600Y-63881000D03*
X174089600Y-61341000D03*
X174089600Y-58801000D03*
X174089600Y-56261000D03*
X174089600Y-53721000D03*
X186789600Y-53721000D03*
X186789600Y-56261000D03*
X186789600Y-58801000D03*
X186789600Y-61341000D03*
X186789600Y-63881000D03*
X186789600Y-66421000D03*
X186789600Y-68961000D03*
X186789600Y-71501000D03*
%TD*%
%TO.C,U7*%
X142425600Y-71501000D03*
X142425600Y-68961000D03*
X142425600Y-66421000D03*
X142425600Y-63881000D03*
X142425600Y-61341000D03*
X142425600Y-58801000D03*
X142425600Y-56261000D03*
X142425600Y-53721000D03*
X155125600Y-53721000D03*
X155125600Y-56261000D03*
X155125600Y-58801000D03*
X155125600Y-61341000D03*
X155125600Y-63881000D03*
X155125600Y-66421000D03*
X155125600Y-68961000D03*
X155125600Y-71501000D03*
%TD*%
%TO.C,U8*%
X158257600Y-71501000D03*
X158257600Y-68961000D03*
X158257600Y-66421000D03*
X158257600Y-63881000D03*
X158257600Y-61341000D03*
X158257600Y-58801000D03*
X158257600Y-56261000D03*
X158257600Y-53721000D03*
X170957600Y-53721000D03*
X170957600Y-56261000D03*
X170957600Y-58801000D03*
X170957600Y-61341000D03*
X170957600Y-63881000D03*
X170957600Y-66421000D03*
X170957600Y-68961000D03*
X170957600Y-71501000D03*
%TD*%
%TO.C,U6*%
X126593600Y-71501000D03*
X126593600Y-68961000D03*
X126593600Y-66421000D03*
X126593600Y-63881000D03*
X126593600Y-61341000D03*
X126593600Y-58801000D03*
X126593600Y-56261000D03*
X126593600Y-53721000D03*
X139293600Y-53721000D03*
X139293600Y-56261000D03*
X139293600Y-58801000D03*
X139293600Y-61341000D03*
X139293600Y-63881000D03*
X139293600Y-66421000D03*
X139293600Y-68961000D03*
X139293600Y-71501000D03*
%TD*%
M02*
