%TF.GenerationSoftware,KiCad,Pcbnew,9.0.7*%
%TF.CreationDate,2026-03-03T20:00:45-05:00*%
%TF.ProjectId,StepperClock,53746570-7065-4724-936c-6f636b2e6b69,rev?*%
%TF.SameCoordinates,Original*%
%TF.FileFunction,Soldermask,Top*%
%TF.FilePolarity,Negative*%
%FSLAX46Y46*%
G04 Gerber Fmt 4.6, Leading zero omitted, Abs format (unit mm)*
G04 Created by KiCad (PCBNEW 9.0.7) date 2026-03-03 20:00:45*
%MOMM*%
%LPD*%
G01*
G04 APERTURE LIST*
G04 Aperture macros list*
%AMRoundRect*
0 Rectangle with rounded corners*
0 $1 Rounding radius*
0 $2 $3 $4 $5 $6 $7 $8 $9 X,Y pos of 4 corners*
0 Add a 4 corners polygon primitive as box body*
4,1,4,$2,$3,$4,$5,$6,$7,$8,$9,$2,$3,0*
0 Add four circle primitives for the rounded corners*
1,1,$1+$1,$2,$3*
1,1,$1+$1,$4,$5*
1,1,$1+$1,$6,$7*
1,1,$1+$1,$8,$9*
0 Add four rect primitives between the rounded corners*
20,1,$1+$1,$2,$3,$4,$5,0*
20,1,$1+$1,$4,$5,$6,$7,0*
20,1,$1+$1,$6,$7,$8,$9,0*
20,1,$1+$1,$8,$9,$2,$3,0*%
%AMFreePoly0*
4,1,37,0.603843,0.796157,0.639018,0.796157,0.711114,0.766294,0.766294,0.711114,0.796157,0.639018,0.796157,0.603843,0.800000,0.600000,0.800000,-0.600000,0.796157,-0.603843,0.796157,-0.639018,0.766294,-0.711114,0.711114,-0.766294,0.639018,-0.796157,0.603843,-0.796157,0.600000,-0.800000,0.000000,-0.800000,0.000000,-0.796148,-0.078414,-0.796148,-0.232228,-0.765552,-0.377117,-0.705537,
-0.507515,-0.618408,-0.618408,-0.507515,-0.705537,-0.377117,-0.765552,-0.232228,-0.796148,-0.078414,-0.796148,0.078414,-0.765552,0.232228,-0.705537,0.377117,-0.618408,0.507515,-0.507515,0.618408,-0.377117,0.705537,-0.232228,0.765552,-0.078414,0.796148,0.000000,0.796148,0.000000,0.800000,0.600000,0.800000,0.603843,0.796157,0.603843,0.796157,$1*%
%AMFreePoly1*
4,1,37,0.000000,0.796148,0.078414,0.796148,0.232228,0.765552,0.377117,0.705537,0.507515,0.618408,0.618408,0.507515,0.705537,0.377117,0.765552,0.232228,0.796148,0.078414,0.796148,-0.078414,0.765552,-0.232228,0.705537,-0.377117,0.618408,-0.507515,0.507515,-0.618408,0.377117,-0.705537,0.232228,-0.765552,0.078414,-0.796148,0.000000,-0.796148,0.000000,-0.800000,-0.600000,-0.800000,
-0.603843,-0.796157,-0.639018,-0.796157,-0.711114,-0.766294,-0.766294,-0.711114,-0.796157,-0.639018,-0.796157,-0.603843,-0.800000,-0.600000,-0.800000,0.600000,-0.796157,0.603843,-0.796157,0.639018,-0.766294,0.711114,-0.711114,0.766294,-0.639018,0.796157,-0.603843,0.796157,-0.600000,0.800000,0.000000,0.800000,0.000000,0.796148,0.000000,0.796148,$1*%
G04 Aperture macros list end*
%ADD10R,1.700000X1.700000*%
%ADD11C,1.700000*%
%ADD12RoundRect,0.250000X0.325000X0.450000X-0.325000X0.450000X-0.325000X-0.450000X0.325000X-0.450000X0*%
%ADD13RoundRect,0.250000X-0.350000X-0.450000X0.350000X-0.450000X0.350000X0.450000X-0.350000X0.450000X0*%
%ADD14RoundRect,0.250000X0.350000X0.625000X-0.350000X0.625000X-0.350000X-0.625000X0.350000X-0.625000X0*%
%ADD15O,1.200000X1.750000*%
%ADD16O,3.200000X1.900000*%
%ADD17C,3.048000*%
%ADD18C,1.727200*%
%ADD19RoundRect,0.250000X-0.550000X-0.550000X0.550000X-0.550000X0.550000X0.550000X-0.550000X0.550000X0*%
%ADD20C,1.600000*%
%ADD21RoundRect,0.249999X-0.850001X-0.850001X0.850001X-0.850001X0.850001X0.850001X-0.850001X0.850001X0*%
%ADD22C,2.200000*%
%ADD23C,5.400000*%
%ADD24RoundRect,0.200000X-0.600000X0.600000X-0.600000X-0.600000X0.600000X-0.600000X0.600000X0.600000X0*%
%ADD25FreePoly0,270.000000*%
%ADD26FreePoly1,270.000000*%
G04 APERTURE END LIST*
D10*
%TO.C,J7*%
X87376000Y-45466000D03*
D11*
X84836000Y-45466000D03*
%TD*%
D12*
%TO.C,D1*%
X144018000Y-84328000D03*
X141968000Y-84328000D03*
%TD*%
D13*
%TO.C,R2*%
X153448000Y-84328000D03*
X155448000Y-84328000D03*
%TD*%
D14*
%TO.C,J6*%
X193928000Y-46482000D03*
D15*
X191928000Y-46482000D03*
X189928000Y-46482000D03*
X187928000Y-46482000D03*
X185928000Y-46482000D03*
X183928000Y-46482000D03*
%TD*%
D16*
%TO.C,SW2*%
X153262000Y-93766000D03*
X165762000Y-93766000D03*
X153262000Y-98766000D03*
X165762000Y-98766000D03*
%TD*%
D17*
%TO.C,U2*%
X129082800Y-93980000D03*
X103860600Y-94081600D03*
D18*
X125476000Y-95250000D03*
X122936000Y-95250000D03*
X120396000Y-95250000D03*
X117856000Y-95250000D03*
X115316000Y-95250000D03*
X112776000Y-95250000D03*
X110236000Y-95250000D03*
X107696000Y-95250000D03*
%TD*%
%TO.C,U6*%
X129286000Y-52832000D03*
X129286000Y-55372000D03*
X129286000Y-57912000D03*
X129286000Y-60452000D03*
X129286000Y-62992000D03*
X129286000Y-65532000D03*
X129286000Y-68072000D03*
X129286000Y-70612000D03*
X141986000Y-70612000D03*
X141986000Y-68072000D03*
X141986000Y-65532000D03*
X141986000Y-62992000D03*
X141986000Y-60452000D03*
X141986000Y-57912000D03*
X141986000Y-55372000D03*
X141986000Y-52832000D03*
%TD*%
D19*
%TO.C,C1*%
X84876000Y-52070000D03*
D20*
X87376000Y-52070000D03*
%TD*%
D18*
%TO.C,U4*%
X93726000Y-52832000D03*
X93726000Y-55372000D03*
X93726000Y-57912000D03*
X93726000Y-60452000D03*
X93726000Y-62992000D03*
X93726000Y-65532000D03*
X93726000Y-68072000D03*
X93726000Y-70612000D03*
X106426000Y-70612000D03*
X106426000Y-68072000D03*
X106426000Y-65532000D03*
X106426000Y-62992000D03*
X106426000Y-60452000D03*
X106426000Y-57912000D03*
X106426000Y-55372000D03*
X106426000Y-52832000D03*
%TD*%
D14*
%TO.C,J1*%
X105060000Y-46482000D03*
D15*
X103060000Y-46482000D03*
X101060000Y-46482000D03*
X99060000Y-46482000D03*
X97060000Y-46482000D03*
X95060000Y-46482000D03*
%TD*%
D18*
%TO.C,U7*%
X147066000Y-52832000D03*
X147066000Y-55372000D03*
X147066000Y-57912000D03*
X147066000Y-60452000D03*
X147066000Y-62992000D03*
X147066000Y-65532000D03*
X147066000Y-68072000D03*
X147066000Y-70612000D03*
X159766000Y-70612000D03*
X159766000Y-68072000D03*
X159766000Y-65532000D03*
X159766000Y-62992000D03*
X159766000Y-60452000D03*
X159766000Y-57912000D03*
X159766000Y-55372000D03*
X159766000Y-52832000D03*
%TD*%
D21*
%TO.C,D3*%
X81788000Y-76962000D03*
D22*
X89408000Y-76962000D03*
%TD*%
D14*
%TO.C,J5*%
X176276000Y-46482000D03*
D15*
X174276000Y-46482000D03*
X172276000Y-46482000D03*
X170276000Y-46482000D03*
X168276000Y-46482000D03*
X166276000Y-46482000D03*
%TD*%
D14*
%TO.C,J4*%
X158368000Y-46728000D03*
D15*
X156368000Y-46728000D03*
X154368000Y-46728000D03*
X152368000Y-46728000D03*
X150368000Y-46728000D03*
X148368000Y-46728000D03*
%TD*%
D23*
%TO.C,U3*%
X172788000Y-102832000D03*
D18*
X178308000Y-80772000D03*
X180848000Y-80772000D03*
X183388000Y-80772000D03*
X185928000Y-80772000D03*
X188468000Y-80772000D03*
%TD*%
D14*
%TO.C,J3*%
X140716000Y-46482000D03*
D15*
X138716000Y-46482000D03*
X136716000Y-46482000D03*
X134716000Y-46482000D03*
X132716000Y-46482000D03*
X130716000Y-46482000D03*
%TD*%
D16*
%TO.C,SW1*%
X135636000Y-93472000D03*
X148136000Y-93472000D03*
X135636000Y-98472000D03*
X148136000Y-98472000D03*
%TD*%
D18*
%TO.C,U8*%
X165100000Y-52832000D03*
X165100000Y-55372000D03*
X165100000Y-57912000D03*
X165100000Y-60452000D03*
X165100000Y-62992000D03*
X165100000Y-65532000D03*
X165100000Y-68072000D03*
X165100000Y-70612000D03*
X177800000Y-70612000D03*
X177800000Y-68072000D03*
X177800000Y-65532000D03*
X177800000Y-62992000D03*
X177800000Y-60452000D03*
X177800000Y-57912000D03*
X177800000Y-55372000D03*
X177800000Y-52832000D03*
%TD*%
D12*
%TO.C,D2*%
X159775000Y-84328000D03*
X157725000Y-84328000D03*
%TD*%
D18*
%TO.C,U9*%
X182626000Y-52832000D03*
X182626000Y-55372000D03*
X182626000Y-57912000D03*
X182626000Y-60452000D03*
X182626000Y-62992000D03*
X182626000Y-65532000D03*
X182626000Y-68072000D03*
X182626000Y-70612000D03*
X195326000Y-70612000D03*
X195326000Y-68072000D03*
X195326000Y-65532000D03*
X195326000Y-62992000D03*
X195326000Y-60452000D03*
X195326000Y-57912000D03*
X195326000Y-55372000D03*
X195326000Y-52832000D03*
%TD*%
D13*
%TO.C,R1*%
X137668000Y-84328000D03*
X139668000Y-84328000D03*
%TD*%
D18*
%TO.C,U10*%
X89662000Y-58039000D03*
X82042000Y-58039000D03*
X82042000Y-72517000D03*
X89662000Y-72517000D03*
%TD*%
%TO.C,U5*%
X111506000Y-52832000D03*
X111506000Y-55372000D03*
X111506000Y-57912000D03*
X111506000Y-60452000D03*
X111506000Y-62992000D03*
X111506000Y-65532000D03*
X111506000Y-68072000D03*
X111506000Y-70612000D03*
X124206000Y-70612000D03*
X124206000Y-68072000D03*
X124206000Y-65532000D03*
X124206000Y-62992000D03*
X124206000Y-60452000D03*
X124206000Y-57912000D03*
X124206000Y-55372000D03*
X124206000Y-52832000D03*
%TD*%
D14*
%TO.C,J2*%
X122936000Y-46482000D03*
D15*
X120936000Y-46482000D03*
X118936000Y-46482000D03*
X116936000Y-46482000D03*
X114936000Y-46482000D03*
X112936000Y-46482000D03*
%TD*%
D24*
%TO.C,U1*%
X82550000Y-83820000D03*
D20*
X85090000Y-83820000D03*
D25*
X87630000Y-83820000D03*
D20*
X90170000Y-83820000D03*
X92710000Y-83820000D03*
X95250000Y-83820000D03*
X97790000Y-83820000D03*
D25*
X100330000Y-83820000D03*
D20*
X102870000Y-83820000D03*
X105410000Y-83820000D03*
X107950000Y-83820000D03*
X110490000Y-83820000D03*
D25*
X113030000Y-83820000D03*
D20*
X115570000Y-83820000D03*
X118110000Y-83820000D03*
X120650000Y-83820000D03*
X123190000Y-83820000D03*
D25*
X125730000Y-83820000D03*
D20*
X128270000Y-83820000D03*
X130810000Y-83820000D03*
X130810000Y-101600000D03*
X128270000Y-101600000D03*
D26*
X125730000Y-101600000D03*
D20*
X123190000Y-101600000D03*
X120650000Y-101600000D03*
X118110000Y-101600000D03*
X115570000Y-101600000D03*
D26*
X113030000Y-101600000D03*
D20*
X110490000Y-101600000D03*
X107950000Y-101600000D03*
X105410000Y-101600000D03*
X102870000Y-101600000D03*
D26*
X100330000Y-101600000D03*
D20*
X97790000Y-101600000D03*
X95250000Y-101600000D03*
X92710000Y-101600000D03*
X90170000Y-101600000D03*
D26*
X87630000Y-101600000D03*
D20*
X85090000Y-101600000D03*
X82550000Y-101600000D03*
%TD*%
M02*
