%TF.GenerationSoftware,KiCad,Pcbnew,9.0.7*%
%TF.CreationDate,2026-02-26T22:39:56-05:00*%
%TF.ProjectId,StepperClock,53746570-7065-4724-936c-6f636b2e6b69,rev?*%
%TF.SameCoordinates,Original*%
%TF.FileFunction,Legend,Top*%
%TF.FilePolarity,Positive*%
%FSLAX46Y46*%
G04 Gerber Fmt 4.6, Leading zero omitted, Abs format (unit mm)*
G04 Created by KiCad (PCBNEW 9.0.7) date 2026-02-26 22:39:56*
%MOMM*%
%LPD*%
G01*
G04 APERTURE LIST*
%ADD10C,0.100000*%
%ADD11C,0.150000*%
%ADD12C,0.120000*%
G04 APERTURE END LIST*
D10*
X98094704Y-79688980D02*
X98094704Y-78879457D01*
X98094704Y-78879457D02*
X98047085Y-78784219D01*
X98047085Y-78784219D02*
X97999466Y-78736600D01*
X97999466Y-78736600D02*
X97904228Y-78688980D01*
X97904228Y-78688980D02*
X97713752Y-78688980D01*
X97713752Y-78688980D02*
X97618514Y-78736600D01*
X97618514Y-78736600D02*
X97570895Y-78784219D01*
X97570895Y-78784219D02*
X97523276Y-78879457D01*
X97523276Y-78879457D02*
X97523276Y-79688980D01*
X96523276Y-78688980D02*
X97094704Y-78688980D01*
X96808990Y-78688980D02*
X96808990Y-79688980D01*
X96808990Y-79688980D02*
X96904228Y-79546123D01*
X96904228Y-79546123D02*
X96999466Y-79450885D01*
X96999466Y-79450885D02*
X97094704Y-79403266D01*
X118022039Y-57210780D02*
X117926801Y-57210780D01*
X117926801Y-57210780D02*
X117831563Y-57163161D01*
X117831563Y-57163161D02*
X117783944Y-57115542D01*
X117783944Y-57115542D02*
X117736325Y-57020304D01*
X117736325Y-57020304D02*
X117688706Y-56829828D01*
X117688706Y-56829828D02*
X117688706Y-56591733D01*
X117688706Y-56591733D02*
X117736325Y-56401257D01*
X117736325Y-56401257D02*
X117783944Y-56306019D01*
X117783944Y-56306019D02*
X117831563Y-56258400D01*
X117831563Y-56258400D02*
X117926801Y-56210780D01*
X117926801Y-56210780D02*
X118022039Y-56210780D01*
X118022039Y-56210780D02*
X118117277Y-56258400D01*
X118117277Y-56258400D02*
X118164896Y-56306019D01*
X118164896Y-56306019D02*
X118212515Y-56401257D01*
X118212515Y-56401257D02*
X118260134Y-56591733D01*
X118260134Y-56591733D02*
X118260134Y-56829828D01*
X118260134Y-56829828D02*
X118212515Y-57020304D01*
X118212515Y-57020304D02*
X118164896Y-57115542D01*
X118164896Y-57115542D02*
X118117277Y-57163161D01*
X118117277Y-57163161D02*
X118022039Y-57210780D01*
X117260134Y-56306019D02*
X117212515Y-56258400D01*
X117212515Y-56258400D02*
X117260134Y-56210780D01*
X117260134Y-56210780D02*
X117307753Y-56258400D01*
X117307753Y-56258400D02*
X117260134Y-56306019D01*
X117260134Y-56306019D02*
X117260134Y-56210780D01*
X116736325Y-56210780D02*
X116545849Y-56210780D01*
X116545849Y-56210780D02*
X116450611Y-56258400D01*
X116450611Y-56258400D02*
X116402992Y-56306019D01*
X116402992Y-56306019D02*
X116307754Y-56448876D01*
X116307754Y-56448876D02*
X116260135Y-56639352D01*
X116260135Y-56639352D02*
X116260135Y-57020304D01*
X116260135Y-57020304D02*
X116307754Y-57115542D01*
X116307754Y-57115542D02*
X116355373Y-57163161D01*
X116355373Y-57163161D02*
X116450611Y-57210780D01*
X116450611Y-57210780D02*
X116641087Y-57210780D01*
X116641087Y-57210780D02*
X116736325Y-57163161D01*
X116736325Y-57163161D02*
X116783944Y-57115542D01*
X116783944Y-57115542D02*
X116831563Y-57020304D01*
X116831563Y-57020304D02*
X116831563Y-56782209D01*
X116831563Y-56782209D02*
X116783944Y-56686971D01*
X116783944Y-56686971D02*
X116736325Y-56639352D01*
X116736325Y-56639352D02*
X116641087Y-56591733D01*
X116641087Y-56591733D02*
X116450611Y-56591733D01*
X116450611Y-56591733D02*
X116355373Y-56639352D01*
X116355373Y-56639352D02*
X116307754Y-56686971D01*
X116307754Y-56686971D02*
X116260135Y-56782209D01*
X115402992Y-57210780D02*
X115593468Y-57210780D01*
X115593468Y-57210780D02*
X115688706Y-57163161D01*
X115688706Y-57163161D02*
X115736325Y-57115542D01*
X115736325Y-57115542D02*
X115831563Y-56972685D01*
X115831563Y-56972685D02*
X115879182Y-56782209D01*
X115879182Y-56782209D02*
X115879182Y-56401257D01*
X115879182Y-56401257D02*
X115831563Y-56306019D01*
X115831563Y-56306019D02*
X115783944Y-56258400D01*
X115783944Y-56258400D02*
X115688706Y-56210780D01*
X115688706Y-56210780D02*
X115498230Y-56210780D01*
X115498230Y-56210780D02*
X115402992Y-56258400D01*
X115402992Y-56258400D02*
X115355373Y-56306019D01*
X115355373Y-56306019D02*
X115307754Y-56401257D01*
X115307754Y-56401257D02*
X115307754Y-56639352D01*
X115307754Y-56639352D02*
X115355373Y-56734590D01*
X115355373Y-56734590D02*
X115402992Y-56782209D01*
X115402992Y-56782209D02*
X115498230Y-56829828D01*
X115498230Y-56829828D02*
X115688706Y-56829828D01*
X115688706Y-56829828D02*
X115783944Y-56782209D01*
X115783944Y-56782209D02*
X115831563Y-56734590D01*
X115831563Y-56734590D02*
X115879182Y-56639352D01*
X114926801Y-57210780D02*
X114926801Y-57020304D01*
X114545849Y-57210780D02*
X114545849Y-57020304D01*
X113974420Y-56782209D02*
X114069658Y-56829828D01*
X114069658Y-56829828D02*
X114117277Y-56877447D01*
X114117277Y-56877447D02*
X114164896Y-56972685D01*
X114164896Y-56972685D02*
X114164896Y-57020304D01*
X114164896Y-57020304D02*
X114117277Y-57115542D01*
X114117277Y-57115542D02*
X114069658Y-57163161D01*
X114069658Y-57163161D02*
X113974420Y-57210780D01*
X113974420Y-57210780D02*
X113783944Y-57210780D01*
X113783944Y-57210780D02*
X113688706Y-57163161D01*
X113688706Y-57163161D02*
X113641087Y-57115542D01*
X113641087Y-57115542D02*
X113593468Y-57020304D01*
X113593468Y-57020304D02*
X113593468Y-56972685D01*
X113593468Y-56972685D02*
X113641087Y-56877447D01*
X113641087Y-56877447D02*
X113688706Y-56829828D01*
X113688706Y-56829828D02*
X113783944Y-56782209D01*
X113783944Y-56782209D02*
X113974420Y-56782209D01*
X113974420Y-56782209D02*
X114069658Y-56734590D01*
X114069658Y-56734590D02*
X114117277Y-56686971D01*
X114117277Y-56686971D02*
X114164896Y-56591733D01*
X114164896Y-56591733D02*
X114164896Y-56401257D01*
X114164896Y-56401257D02*
X114117277Y-56306019D01*
X114117277Y-56306019D02*
X114069658Y-56258400D01*
X114069658Y-56258400D02*
X113974420Y-56210780D01*
X113974420Y-56210780D02*
X113783944Y-56210780D01*
X113783944Y-56210780D02*
X113688706Y-56258400D01*
X113688706Y-56258400D02*
X113641087Y-56306019D01*
X113641087Y-56306019D02*
X113593468Y-56401257D01*
X113593468Y-56401257D02*
X113593468Y-56591733D01*
X113593468Y-56591733D02*
X113641087Y-56686971D01*
X113641087Y-56686971D02*
X113688706Y-56734590D01*
X113688706Y-56734590D02*
X113783944Y-56782209D01*
X112974420Y-57210780D02*
X112879182Y-57210780D01*
X112879182Y-57210780D02*
X112783944Y-57163161D01*
X112783944Y-57163161D02*
X112736325Y-57115542D01*
X112736325Y-57115542D02*
X112688706Y-57020304D01*
X112688706Y-57020304D02*
X112641087Y-56829828D01*
X112641087Y-56829828D02*
X112641087Y-56591733D01*
X112641087Y-56591733D02*
X112688706Y-56401257D01*
X112688706Y-56401257D02*
X112736325Y-56306019D01*
X112736325Y-56306019D02*
X112783944Y-56258400D01*
X112783944Y-56258400D02*
X112879182Y-56210780D01*
X112879182Y-56210780D02*
X112974420Y-56210780D01*
X112974420Y-56210780D02*
X113069658Y-56258400D01*
X113069658Y-56258400D02*
X113117277Y-56306019D01*
X113117277Y-56306019D02*
X113164896Y-56401257D01*
X113164896Y-56401257D02*
X113212515Y-56591733D01*
X113212515Y-56591733D02*
X113212515Y-56829828D01*
X113212515Y-56829828D02*
X113164896Y-57020304D01*
X113164896Y-57020304D02*
X113117277Y-57115542D01*
X113117277Y-57115542D02*
X113069658Y-57163161D01*
X113069658Y-57163161D02*
X112974420Y-57210780D01*
X112307753Y-56210780D02*
X111783944Y-56877447D01*
X112307753Y-56877447D02*
X111783944Y-56210780D01*
X110879182Y-56210780D02*
X111450610Y-56210780D01*
X111164896Y-56210780D02*
X111164896Y-57210780D01*
X111164896Y-57210780D02*
X111260134Y-57067923D01*
X111260134Y-57067923D02*
X111355372Y-56972685D01*
X111355372Y-56972685D02*
X111450610Y-56925066D01*
X110022039Y-57210780D02*
X110212515Y-57210780D01*
X110212515Y-57210780D02*
X110307753Y-57163161D01*
X110307753Y-57163161D02*
X110355372Y-57115542D01*
X110355372Y-57115542D02*
X110450610Y-56972685D01*
X110450610Y-56972685D02*
X110498229Y-56782209D01*
X110498229Y-56782209D02*
X110498229Y-56401257D01*
X110498229Y-56401257D02*
X110450610Y-56306019D01*
X110450610Y-56306019D02*
X110402991Y-56258400D01*
X110402991Y-56258400D02*
X110307753Y-56210780D01*
X110307753Y-56210780D02*
X110117277Y-56210780D01*
X110117277Y-56210780D02*
X110022039Y-56258400D01*
X110022039Y-56258400D02*
X109974420Y-56306019D01*
X109974420Y-56306019D02*
X109926801Y-56401257D01*
X109926801Y-56401257D02*
X109926801Y-56639352D01*
X109926801Y-56639352D02*
X109974420Y-56734590D01*
X109974420Y-56734590D02*
X110022039Y-56782209D01*
X110022039Y-56782209D02*
X110117277Y-56829828D01*
X110117277Y-56829828D02*
X110307753Y-56829828D01*
X110307753Y-56829828D02*
X110402991Y-56782209D01*
X110402991Y-56782209D02*
X110450610Y-56734590D01*
X110450610Y-56734590D02*
X110498229Y-56639352D01*
X109307753Y-57210780D02*
X109212515Y-57210780D01*
X109212515Y-57210780D02*
X109117277Y-57163161D01*
X109117277Y-57163161D02*
X109069658Y-57115542D01*
X109069658Y-57115542D02*
X109022039Y-57020304D01*
X109022039Y-57020304D02*
X108974420Y-56829828D01*
X108974420Y-56829828D02*
X108974420Y-56591733D01*
X108974420Y-56591733D02*
X109022039Y-56401257D01*
X109022039Y-56401257D02*
X109069658Y-56306019D01*
X109069658Y-56306019D02*
X109117277Y-56258400D01*
X109117277Y-56258400D02*
X109212515Y-56210780D01*
X109212515Y-56210780D02*
X109307753Y-56210780D01*
X109307753Y-56210780D02*
X109402991Y-56258400D01*
X109402991Y-56258400D02*
X109450610Y-56306019D01*
X109450610Y-56306019D02*
X109498229Y-56401257D01*
X109498229Y-56401257D02*
X109545848Y-56591733D01*
X109545848Y-56591733D02*
X109545848Y-56829828D01*
X109545848Y-56829828D02*
X109498229Y-57020304D01*
X109498229Y-57020304D02*
X109450610Y-57115542D01*
X109450610Y-57115542D02*
X109402991Y-57163161D01*
X109402991Y-57163161D02*
X109307753Y-57210780D01*
X108260134Y-55829828D02*
X108307753Y-55877447D01*
X108307753Y-55877447D02*
X108402991Y-56020304D01*
X108402991Y-56020304D02*
X108450610Y-56115542D01*
X108450610Y-56115542D02*
X108498229Y-56258400D01*
X108498229Y-56258400D02*
X108545848Y-56496495D01*
X108545848Y-56496495D02*
X108545848Y-56686971D01*
X108545848Y-56686971D02*
X108498229Y-56925066D01*
X108498229Y-56925066D02*
X108450610Y-57067923D01*
X108450610Y-57067923D02*
X108402991Y-57163161D01*
X108402991Y-57163161D02*
X108307753Y-57306019D01*
X108307753Y-57306019D02*
X108260134Y-57353638D01*
X107307753Y-56210780D02*
X107641086Y-56686971D01*
X107879181Y-56210780D02*
X107879181Y-57210780D01*
X107879181Y-57210780D02*
X107498229Y-57210780D01*
X107498229Y-57210780D02*
X107402991Y-57163161D01*
X107402991Y-57163161D02*
X107355372Y-57115542D01*
X107355372Y-57115542D02*
X107307753Y-57020304D01*
X107307753Y-57020304D02*
X107307753Y-56877447D01*
X107307753Y-56877447D02*
X107355372Y-56782209D01*
X107355372Y-56782209D02*
X107402991Y-56734590D01*
X107402991Y-56734590D02*
X107498229Y-56686971D01*
X107498229Y-56686971D02*
X107879181Y-56686971D01*
X106355372Y-57163161D02*
X106450610Y-57210780D01*
X106450610Y-57210780D02*
X106593467Y-57210780D01*
X106593467Y-57210780D02*
X106736324Y-57163161D01*
X106736324Y-57163161D02*
X106831562Y-57067923D01*
X106831562Y-57067923D02*
X106879181Y-56972685D01*
X106879181Y-56972685D02*
X106926800Y-56782209D01*
X106926800Y-56782209D02*
X106926800Y-56639352D01*
X106926800Y-56639352D02*
X106879181Y-56448876D01*
X106879181Y-56448876D02*
X106831562Y-56353638D01*
X106831562Y-56353638D02*
X106736324Y-56258400D01*
X106736324Y-56258400D02*
X106593467Y-56210780D01*
X106593467Y-56210780D02*
X106498229Y-56210780D01*
X106498229Y-56210780D02*
X106355372Y-56258400D01*
X106355372Y-56258400D02*
X106307753Y-56306019D01*
X106307753Y-56306019D02*
X106307753Y-56639352D01*
X106307753Y-56639352D02*
X106498229Y-56639352D01*
X105545848Y-56734590D02*
X105402991Y-56686971D01*
X105402991Y-56686971D02*
X105355372Y-56639352D01*
X105355372Y-56639352D02*
X105307753Y-56544114D01*
X105307753Y-56544114D02*
X105307753Y-56401257D01*
X105307753Y-56401257D02*
X105355372Y-56306019D01*
X105355372Y-56306019D02*
X105402991Y-56258400D01*
X105402991Y-56258400D02*
X105498229Y-56210780D01*
X105498229Y-56210780D02*
X105879181Y-56210780D01*
X105879181Y-56210780D02*
X105879181Y-57210780D01*
X105879181Y-57210780D02*
X105545848Y-57210780D01*
X105545848Y-57210780D02*
X105450610Y-57163161D01*
X105450610Y-57163161D02*
X105402991Y-57115542D01*
X105402991Y-57115542D02*
X105355372Y-57020304D01*
X105355372Y-57020304D02*
X105355372Y-56925066D01*
X105355372Y-56925066D02*
X105402991Y-56829828D01*
X105402991Y-56829828D02*
X105450610Y-56782209D01*
X105450610Y-56782209D02*
X105545848Y-56734590D01*
X105545848Y-56734590D02*
X105879181Y-56734590D01*
X104974419Y-55829828D02*
X104926800Y-55877447D01*
X104926800Y-55877447D02*
X104831562Y-56020304D01*
X104831562Y-56020304D02*
X104783943Y-56115542D01*
X104783943Y-56115542D02*
X104736324Y-56258400D01*
X104736324Y-56258400D02*
X104688705Y-56496495D01*
X104688705Y-56496495D02*
X104688705Y-56686971D01*
X104688705Y-56686971D02*
X104736324Y-56925066D01*
X104736324Y-56925066D02*
X104783943Y-57067923D01*
X104783943Y-57067923D02*
X104831562Y-57163161D01*
X104831562Y-57163161D02*
X104926800Y-57306019D01*
X104926800Y-57306019D02*
X104974419Y-57353638D01*
X104212514Y-56210780D02*
X104212514Y-57210780D01*
X103736324Y-56210780D02*
X103736324Y-57210780D01*
X103736324Y-57210780D02*
X103355372Y-57210780D01*
X103355372Y-57210780D02*
X103260134Y-57163161D01*
X103260134Y-57163161D02*
X103212515Y-57115542D01*
X103212515Y-57115542D02*
X103164896Y-57020304D01*
X103164896Y-57020304D02*
X103164896Y-56877447D01*
X103164896Y-56877447D02*
X103212515Y-56782209D01*
X103212515Y-56782209D02*
X103260134Y-56734590D01*
X103260134Y-56734590D02*
X103355372Y-56686971D01*
X103355372Y-56686971D02*
X103736324Y-56686971D01*
X102783943Y-56258400D02*
X102641086Y-56210780D01*
X102641086Y-56210780D02*
X102402991Y-56210780D01*
X102402991Y-56210780D02*
X102307753Y-56258400D01*
X102307753Y-56258400D02*
X102260134Y-56306019D01*
X102260134Y-56306019D02*
X102212515Y-56401257D01*
X102212515Y-56401257D02*
X102212515Y-56496495D01*
X102212515Y-56496495D02*
X102260134Y-56591733D01*
X102260134Y-56591733D02*
X102307753Y-56639352D01*
X102307753Y-56639352D02*
X102402991Y-56686971D01*
X102402991Y-56686971D02*
X102593467Y-56734590D01*
X102593467Y-56734590D02*
X102688705Y-56782209D01*
X102688705Y-56782209D02*
X102736324Y-56829828D01*
X102736324Y-56829828D02*
X102783943Y-56925066D01*
X102783943Y-56925066D02*
X102783943Y-57020304D01*
X102783943Y-57020304D02*
X102736324Y-57115542D01*
X102736324Y-57115542D02*
X102688705Y-57163161D01*
X102688705Y-57163161D02*
X102593467Y-57210780D01*
X102593467Y-57210780D02*
X102355372Y-57210780D01*
X102355372Y-57210780D02*
X102212515Y-57163161D01*
D11*
X138861666Y-73448019D02*
X138861666Y-74162304D01*
X138861666Y-74162304D02*
X138814047Y-74305161D01*
X138814047Y-74305161D02*
X138718809Y-74400400D01*
X138718809Y-74400400D02*
X138575952Y-74448019D01*
X138575952Y-74448019D02*
X138480714Y-74448019D01*
X139337857Y-74448019D02*
X139337857Y-73448019D01*
X139337857Y-73448019D02*
X139718809Y-73448019D01*
X139718809Y-73448019D02*
X139814047Y-73495638D01*
X139814047Y-73495638D02*
X139861666Y-73543257D01*
X139861666Y-73543257D02*
X139909285Y-73638495D01*
X139909285Y-73638495D02*
X139909285Y-73781352D01*
X139909285Y-73781352D02*
X139861666Y-73876590D01*
X139861666Y-73876590D02*
X139814047Y-73924209D01*
X139814047Y-73924209D02*
X139718809Y-73971828D01*
X139718809Y-73971828D02*
X139337857Y-73971828D01*
X140290238Y-73543257D02*
X140337857Y-73495638D01*
X140337857Y-73495638D02*
X140433095Y-73448019D01*
X140433095Y-73448019D02*
X140671190Y-73448019D01*
X140671190Y-73448019D02*
X140766428Y-73495638D01*
X140766428Y-73495638D02*
X140814047Y-73543257D01*
X140814047Y-73543257D02*
X140861666Y-73638495D01*
X140861666Y-73638495D02*
X140861666Y-73733733D01*
X140861666Y-73733733D02*
X140814047Y-73876590D01*
X140814047Y-73876590D02*
X140242619Y-74448019D01*
X140242619Y-74448019D02*
X140861666Y-74448019D01*
X131648066Y-73524219D02*
X131648066Y-74238504D01*
X131648066Y-74238504D02*
X131600447Y-74381361D01*
X131600447Y-74381361D02*
X131505209Y-74476600D01*
X131505209Y-74476600D02*
X131362352Y-74524219D01*
X131362352Y-74524219D02*
X131267114Y-74524219D01*
X132124257Y-74524219D02*
X132124257Y-73524219D01*
X132124257Y-73524219D02*
X132505209Y-73524219D01*
X132505209Y-73524219D02*
X132600447Y-73571838D01*
X132600447Y-73571838D02*
X132648066Y-73619457D01*
X132648066Y-73619457D02*
X132695685Y-73714695D01*
X132695685Y-73714695D02*
X132695685Y-73857552D01*
X132695685Y-73857552D02*
X132648066Y-73952790D01*
X132648066Y-73952790D02*
X132600447Y-74000409D01*
X132600447Y-74000409D02*
X132505209Y-74048028D01*
X132505209Y-74048028D02*
X132124257Y-74048028D01*
X133648066Y-74524219D02*
X133076638Y-74524219D01*
X133362352Y-74524219D02*
X133362352Y-73524219D01*
X133362352Y-73524219D02*
X133267114Y-73667076D01*
X133267114Y-73667076D02*
X133171876Y-73762314D01*
X133171876Y-73762314D02*
X133076638Y-73809933D01*
X179747219Y-100966494D02*
X178747219Y-100966494D01*
X178747219Y-100966494D02*
X178747219Y-100728399D01*
X178747219Y-100728399D02*
X178794838Y-100585542D01*
X178794838Y-100585542D02*
X178890076Y-100490304D01*
X178890076Y-100490304D02*
X178985314Y-100442685D01*
X178985314Y-100442685D02*
X179175790Y-100395066D01*
X179175790Y-100395066D02*
X179318647Y-100395066D01*
X179318647Y-100395066D02*
X179509123Y-100442685D01*
X179509123Y-100442685D02*
X179604361Y-100490304D01*
X179604361Y-100490304D02*
X179699600Y-100585542D01*
X179699600Y-100585542D02*
X179747219Y-100728399D01*
X179747219Y-100728399D02*
X179747219Y-100966494D01*
X179747219Y-99442685D02*
X179747219Y-100014113D01*
X179747219Y-99728399D02*
X178747219Y-99728399D01*
X178747219Y-99728399D02*
X178890076Y-99823637D01*
X178890076Y-99823637D02*
X178985314Y-99918875D01*
X178985314Y-99918875D02*
X179032933Y-100014113D01*
X180117219Y-105570304D02*
X179117219Y-105570304D01*
X180117219Y-104998876D02*
X179545790Y-105427447D01*
X179117219Y-104998876D02*
X179688647Y-105570304D01*
X157103219Y-45596133D02*
X157817504Y-45596133D01*
X157817504Y-45596133D02*
X157960361Y-45643752D01*
X157960361Y-45643752D02*
X158055600Y-45738990D01*
X158055600Y-45738990D02*
X158103219Y-45881847D01*
X158103219Y-45881847D02*
X158103219Y-45977085D01*
X157103219Y-44691371D02*
X157103219Y-44881847D01*
X157103219Y-44881847D02*
X157150838Y-44977085D01*
X157150838Y-44977085D02*
X157198457Y-45024704D01*
X157198457Y-45024704D02*
X157341314Y-45119942D01*
X157341314Y-45119942D02*
X157531790Y-45167561D01*
X157531790Y-45167561D02*
X157912742Y-45167561D01*
X157912742Y-45167561D02*
X158007980Y-45119942D01*
X158007980Y-45119942D02*
X158055600Y-45072323D01*
X158055600Y-45072323D02*
X158103219Y-44977085D01*
X158103219Y-44977085D02*
X158103219Y-44786609D01*
X158103219Y-44786609D02*
X158055600Y-44691371D01*
X158055600Y-44691371D02*
X158007980Y-44643752D01*
X158007980Y-44643752D02*
X157912742Y-44596133D01*
X157912742Y-44596133D02*
X157674647Y-44596133D01*
X157674647Y-44596133D02*
X157579409Y-44643752D01*
X157579409Y-44643752D02*
X157531790Y-44691371D01*
X157531790Y-44691371D02*
X157484171Y-44786609D01*
X157484171Y-44786609D02*
X157484171Y-44977085D01*
X157484171Y-44977085D02*
X157531790Y-45072323D01*
X157531790Y-45072323D02*
X157579409Y-45119942D01*
X157579409Y-45119942D02*
X157674647Y-45167561D01*
X109402019Y-46113333D02*
X110116304Y-46113333D01*
X110116304Y-46113333D02*
X110259161Y-46160952D01*
X110259161Y-46160952D02*
X110354400Y-46256190D01*
X110354400Y-46256190D02*
X110402019Y-46399047D01*
X110402019Y-46399047D02*
X110402019Y-46494285D01*
X109402019Y-45732380D02*
X109402019Y-45113333D01*
X109402019Y-45113333D02*
X109782971Y-45446666D01*
X109782971Y-45446666D02*
X109782971Y-45303809D01*
X109782971Y-45303809D02*
X109830590Y-45208571D01*
X109830590Y-45208571D02*
X109878209Y-45160952D01*
X109878209Y-45160952D02*
X109973447Y-45113333D01*
X109973447Y-45113333D02*
X110211542Y-45113333D01*
X110211542Y-45113333D02*
X110306780Y-45160952D01*
X110306780Y-45160952D02*
X110354400Y-45208571D01*
X110354400Y-45208571D02*
X110402019Y-45303809D01*
X110402019Y-45303809D02*
X110402019Y-45589523D01*
X110402019Y-45589523D02*
X110354400Y-45684761D01*
X110354400Y-45684761D02*
X110306780Y-45732380D01*
X143303504Y-80146139D02*
X143303504Y-79669949D01*
X143589219Y-80241377D02*
X142589219Y-79908044D01*
X142589219Y-79908044D02*
X143589219Y-79574711D01*
X143589219Y-78717568D02*
X143589219Y-79288996D01*
X143589219Y-79003282D02*
X142589219Y-79003282D01*
X142589219Y-79003282D02*
X142732076Y-79098520D01*
X142732076Y-79098520D02*
X142827314Y-79193758D01*
X142827314Y-79193758D02*
X142874933Y-79288996D01*
X141228219Y-45367533D02*
X141942504Y-45367533D01*
X141942504Y-45367533D02*
X142085361Y-45415152D01*
X142085361Y-45415152D02*
X142180600Y-45510390D01*
X142180600Y-45510390D02*
X142228219Y-45653247D01*
X142228219Y-45653247D02*
X142228219Y-45748485D01*
X141228219Y-44415152D02*
X141228219Y-44891342D01*
X141228219Y-44891342D02*
X141704409Y-44938961D01*
X141704409Y-44938961D02*
X141656790Y-44891342D01*
X141656790Y-44891342D02*
X141609171Y-44796104D01*
X141609171Y-44796104D02*
X141609171Y-44558009D01*
X141609171Y-44558009D02*
X141656790Y-44462771D01*
X141656790Y-44462771D02*
X141704409Y-44415152D01*
X141704409Y-44415152D02*
X141799647Y-44367533D01*
X141799647Y-44367533D02*
X142037742Y-44367533D01*
X142037742Y-44367533D02*
X142132980Y-44415152D01*
X142132980Y-44415152D02*
X142180600Y-44462771D01*
X142180600Y-44462771D02*
X142228219Y-44558009D01*
X142228219Y-44558009D02*
X142228219Y-44796104D01*
X142228219Y-44796104D02*
X142180600Y-44891342D01*
X142180600Y-44891342D02*
X142132980Y-44938961D01*
X94390619Y-45757733D02*
X95104904Y-45757733D01*
X95104904Y-45757733D02*
X95247761Y-45805352D01*
X95247761Y-45805352D02*
X95343000Y-45900590D01*
X95343000Y-45900590D02*
X95390619Y-46043447D01*
X95390619Y-46043447D02*
X95390619Y-46138685D01*
X94485857Y-45329161D02*
X94438238Y-45281542D01*
X94438238Y-45281542D02*
X94390619Y-45186304D01*
X94390619Y-45186304D02*
X94390619Y-44948209D01*
X94390619Y-44948209D02*
X94438238Y-44852971D01*
X94438238Y-44852971D02*
X94485857Y-44805352D01*
X94485857Y-44805352D02*
X94581095Y-44757733D01*
X94581095Y-44757733D02*
X94676333Y-44757733D01*
X94676333Y-44757733D02*
X94819190Y-44805352D01*
X94819190Y-44805352D02*
X95390619Y-45376780D01*
X95390619Y-45376780D02*
X95390619Y-44757733D01*
X185772466Y-103409419D02*
X185772466Y-104123704D01*
X185772466Y-104123704D02*
X185724847Y-104266561D01*
X185724847Y-104266561D02*
X185629609Y-104361800D01*
X185629609Y-104361800D02*
X185486752Y-104409419D01*
X185486752Y-104409419D02*
X185391514Y-104409419D01*
X186772466Y-104409419D02*
X186201038Y-104409419D01*
X186486752Y-104409419D02*
X186486752Y-103409419D01*
X186486752Y-103409419D02*
X186391514Y-103552276D01*
X186391514Y-103552276D02*
X186296276Y-103647514D01*
X186296276Y-103647514D02*
X186201038Y-103695133D01*
X173308419Y-45138933D02*
X174022704Y-45138933D01*
X174022704Y-45138933D02*
X174165561Y-45186552D01*
X174165561Y-45186552D02*
X174260800Y-45281790D01*
X174260800Y-45281790D02*
X174308419Y-45424647D01*
X174308419Y-45424647D02*
X174308419Y-45519885D01*
X173308419Y-44757980D02*
X173308419Y-44091314D01*
X173308419Y-44091314D02*
X174308419Y-44519885D01*
D10*
X174145095Y-75967419D02*
X174145095Y-76776942D01*
X174145095Y-76776942D02*
X174192714Y-76872180D01*
X174192714Y-76872180D02*
X174240333Y-76919800D01*
X174240333Y-76919800D02*
X174335571Y-76967419D01*
X174335571Y-76967419D02*
X174526047Y-76967419D01*
X174526047Y-76967419D02*
X174621285Y-76919800D01*
X174621285Y-76919800D02*
X174668904Y-76872180D01*
X174668904Y-76872180D02*
X174716523Y-76776942D01*
X174716523Y-76776942D02*
X174716523Y-75967419D01*
X175097476Y-75967419D02*
X175716523Y-75967419D01*
X175716523Y-75967419D02*
X175383190Y-76348371D01*
X175383190Y-76348371D02*
X175526047Y-76348371D01*
X175526047Y-76348371D02*
X175621285Y-76395990D01*
X175621285Y-76395990D02*
X175668904Y-76443609D01*
X175668904Y-76443609D02*
X175716523Y-76538847D01*
X175716523Y-76538847D02*
X175716523Y-76776942D01*
X175716523Y-76776942D02*
X175668904Y-76872180D01*
X175668904Y-76872180D02*
X175621285Y-76919800D01*
X175621285Y-76919800D02*
X175526047Y-76967419D01*
X175526047Y-76967419D02*
X175240333Y-76967419D01*
X175240333Y-76967419D02*
X175145095Y-76919800D01*
X175145095Y-76919800D02*
X175097476Y-76872180D01*
X178781419Y-78485904D02*
X179590942Y-78485904D01*
X179590942Y-78485904D02*
X179686180Y-78438285D01*
X179686180Y-78438285D02*
X179733800Y-78390666D01*
X179733800Y-78390666D02*
X179781419Y-78295428D01*
X179781419Y-78295428D02*
X179781419Y-78104952D01*
X179781419Y-78104952D02*
X179733800Y-78009714D01*
X179733800Y-78009714D02*
X179686180Y-77962095D01*
X179686180Y-77962095D02*
X179590942Y-77914476D01*
X179590942Y-77914476D02*
X178781419Y-77914476D01*
X178876657Y-77485904D02*
X178829038Y-77438285D01*
X178829038Y-77438285D02*
X178781419Y-77343047D01*
X178781419Y-77343047D02*
X178781419Y-77104952D01*
X178781419Y-77104952D02*
X178829038Y-77009714D01*
X178829038Y-77009714D02*
X178876657Y-76962095D01*
X178876657Y-76962095D02*
X178971895Y-76914476D01*
X178971895Y-76914476D02*
X179067133Y-76914476D01*
X179067133Y-76914476D02*
X179209990Y-76962095D01*
X179209990Y-76962095D02*
X179781419Y-77533523D01*
X179781419Y-77533523D02*
X179781419Y-76914476D01*
X181193619Y-81623839D02*
X181193619Y-81433363D01*
X181193619Y-81433363D02*
X181241238Y-81338125D01*
X181241238Y-81338125D02*
X181336476Y-81242887D01*
X181336476Y-81242887D02*
X181526952Y-81195268D01*
X181526952Y-81195268D02*
X181860285Y-81195268D01*
X181860285Y-81195268D02*
X182050761Y-81242887D01*
X182050761Y-81242887D02*
X182146000Y-81338125D01*
X182146000Y-81338125D02*
X182193619Y-81433363D01*
X182193619Y-81433363D02*
X182193619Y-81623839D01*
X182193619Y-81623839D02*
X182146000Y-81719077D01*
X182146000Y-81719077D02*
X182050761Y-81814315D01*
X182050761Y-81814315D02*
X181860285Y-81861934D01*
X181860285Y-81861934D02*
X181526952Y-81861934D01*
X181526952Y-81861934D02*
X181336476Y-81814315D01*
X181336476Y-81814315D02*
X181241238Y-81719077D01*
X181241238Y-81719077D02*
X181193619Y-81623839D01*
X181193619Y-80766696D02*
X182003142Y-80766696D01*
X182003142Y-80766696D02*
X182098380Y-80719077D01*
X182098380Y-80719077D02*
X182146000Y-80671458D01*
X182146000Y-80671458D02*
X182193619Y-80576220D01*
X182193619Y-80576220D02*
X182193619Y-80385744D01*
X182193619Y-80385744D02*
X182146000Y-80290506D01*
X182146000Y-80290506D02*
X182098380Y-80242887D01*
X182098380Y-80242887D02*
X182003142Y-80195268D01*
X182003142Y-80195268D02*
X181193619Y-80195268D01*
X181193619Y-79861934D02*
X181193619Y-79290506D01*
X182193619Y-79576220D02*
X181193619Y-79576220D01*
X181812666Y-78957172D02*
X181812666Y-78195268D01*
X187543619Y-81369839D02*
X187543619Y-81179363D01*
X187543619Y-81179363D02*
X187591238Y-81084125D01*
X187591238Y-81084125D02*
X187686476Y-80988887D01*
X187686476Y-80988887D02*
X187876952Y-80941268D01*
X187876952Y-80941268D02*
X188210285Y-80941268D01*
X188210285Y-80941268D02*
X188400761Y-80988887D01*
X188400761Y-80988887D02*
X188496000Y-81084125D01*
X188496000Y-81084125D02*
X188543619Y-81179363D01*
X188543619Y-81179363D02*
X188543619Y-81369839D01*
X188543619Y-81369839D02*
X188496000Y-81465077D01*
X188496000Y-81465077D02*
X188400761Y-81560315D01*
X188400761Y-81560315D02*
X188210285Y-81607934D01*
X188210285Y-81607934D02*
X187876952Y-81607934D01*
X187876952Y-81607934D02*
X187686476Y-81560315D01*
X187686476Y-81560315D02*
X187591238Y-81465077D01*
X187591238Y-81465077D02*
X187543619Y-81369839D01*
X187543619Y-80512696D02*
X188353142Y-80512696D01*
X188353142Y-80512696D02*
X188448380Y-80465077D01*
X188448380Y-80465077D02*
X188496000Y-80417458D01*
X188496000Y-80417458D02*
X188543619Y-80322220D01*
X188543619Y-80322220D02*
X188543619Y-80131744D01*
X188543619Y-80131744D02*
X188496000Y-80036506D01*
X188496000Y-80036506D02*
X188448380Y-79988887D01*
X188448380Y-79988887D02*
X188353142Y-79941268D01*
X188353142Y-79941268D02*
X187543619Y-79941268D01*
X187543619Y-79607934D02*
X187543619Y-79036506D01*
X188543619Y-79322220D02*
X187543619Y-79322220D01*
X188162666Y-78703172D02*
X188162666Y-77941268D01*
X188543619Y-78322220D02*
X187781714Y-78322220D01*
X182193619Y-89942315D02*
X181193619Y-89942315D01*
X182193619Y-89466125D02*
X181193619Y-89466125D01*
X181193619Y-89466125D02*
X182193619Y-88894697D01*
X182193619Y-88894697D02*
X181193619Y-88894697D01*
X181812666Y-88418506D02*
X181812666Y-87656602D01*
X188543619Y-89942315D02*
X187543619Y-89942315D01*
X188543619Y-89466125D02*
X187543619Y-89466125D01*
X187543619Y-89466125D02*
X188543619Y-88894697D01*
X188543619Y-88894697D02*
X187543619Y-88894697D01*
X188162666Y-88418506D02*
X188162666Y-87656602D01*
X188543619Y-88037554D02*
X187781714Y-88037554D01*
D11*
X125073819Y-45173533D02*
X125788104Y-45173533D01*
X125788104Y-45173533D02*
X125930961Y-45221152D01*
X125930961Y-45221152D02*
X126026200Y-45316390D01*
X126026200Y-45316390D02*
X126073819Y-45459247D01*
X126073819Y-45459247D02*
X126073819Y-45554485D01*
X125407152Y-44268771D02*
X126073819Y-44268771D01*
X125026200Y-44506866D02*
X125740485Y-44744961D01*
X125740485Y-44744961D02*
X125740485Y-44125914D01*
%TO.C,U1*%
D10*
X125653800Y-77800200D02*
X95681800Y-77800200D01*
X95681800Y-53924200D01*
X125653800Y-53924200D01*
X125653800Y-77800200D01*
X124993400Y-72491600D02*
X96774000Y-72491600D01*
X96774000Y-59156600D01*
X124993400Y-59156600D01*
X124993400Y-72491600D01*
D12*
%TO.C,JP2*%
X136220000Y-74768200D02*
X141720000Y-74768200D01*
X136220000Y-76718200D02*
X136220000Y-74768200D01*
X137270000Y-77268200D02*
X137870000Y-77268200D01*
X137570000Y-76968200D02*
X137270000Y-77268200D01*
X137870000Y-77268200D02*
X137570000Y-76968200D01*
X141720000Y-74768200D02*
X141720000Y-76718200D01*
X141720000Y-76718200D02*
X136220000Y-76718200D01*
%TO.C,JP1*%
X129006400Y-74844400D02*
X134506400Y-74844400D01*
X129006400Y-76794400D02*
X129006400Y-74844400D01*
X130056400Y-77344400D02*
X130656400Y-77344400D01*
X130356400Y-77044400D02*
X130056400Y-77344400D01*
X130656400Y-77344400D02*
X130356400Y-77044400D01*
X134506400Y-74844400D02*
X134506400Y-76794400D01*
X134506400Y-76794400D02*
X129006400Y-76794400D01*
%TO.C,D1*%
X181762400Y-103968400D02*
X181762400Y-102948400D01*
X180292400Y-102168400D02*
X183232400Y-102168400D01*
X180292400Y-102048400D02*
X183232400Y-102048400D01*
X180292400Y-101928400D02*
X183232400Y-101928400D01*
X181762400Y-96488400D02*
X181762400Y-97508400D01*
X180292400Y-102948400D02*
X183232400Y-102948400D01*
X183232400Y-97508400D01*
X180292400Y-97508400D01*
X180292400Y-102948400D01*
%TO.C,J6*%
X158648400Y-50917800D02*
X158648400Y-49647800D01*
X159488400Y-48487800D02*
X159488400Y-48257800D01*
X159918400Y-50917800D02*
X158648400Y-50917800D01*
X160348400Y-48487800D02*
X160348400Y-48257800D01*
X161188400Y-48257800D02*
X161188400Y-45497800D01*
X162028400Y-39497800D02*
X162888400Y-39497800D01*
X162028400Y-45497800D02*
X162028400Y-39497800D01*
X162028400Y-48570442D02*
X162028400Y-48257800D01*
X162888400Y-39497800D02*
X162888400Y-45497800D01*
X162888400Y-48570442D02*
X162888400Y-48257800D01*
X163728400Y-48257800D02*
X163728400Y-45497800D01*
X164568400Y-39497800D02*
X165428400Y-39497800D01*
X164568400Y-45497800D02*
X164568400Y-39497800D01*
X164568400Y-48570442D02*
X164568400Y-48257800D01*
X165428400Y-39497800D02*
X165428400Y-45497800D01*
X165428400Y-48570442D02*
X165428400Y-48257800D01*
X166268400Y-48257800D02*
X166268400Y-45497800D01*
X167108400Y-39497800D02*
X167968400Y-39497800D01*
X167108400Y-45497800D02*
X167108400Y-39497800D01*
X167108400Y-48570442D02*
X167108400Y-48257800D01*
X167968400Y-39497800D02*
X167968400Y-45497800D01*
X167968400Y-48570442D02*
X167968400Y-48257800D01*
X158538400Y-48257800D02*
X168918400Y-48257800D01*
X168918400Y-45497800D01*
X158538400Y-45497800D01*
X158538400Y-48257800D01*
X159488400Y-45497800D02*
X160348400Y-45497800D01*
X160348400Y-39497800D01*
X159488400Y-39497800D01*
X159488400Y-45497800D01*
G36*
X159488400Y-45497800D02*
G01*
X160348400Y-45497800D01*
X160348400Y-39497800D01*
X159488400Y-39497800D01*
X159488400Y-45497800D01*
G37*
%TO.C,J3*%
X110947200Y-51435000D02*
X110947200Y-50165000D01*
X111787200Y-49005000D02*
X111787200Y-48775000D01*
X112217200Y-51435000D02*
X110947200Y-51435000D01*
X112647200Y-49005000D02*
X112647200Y-48775000D01*
X113487200Y-48775000D02*
X113487200Y-46015000D01*
X114327200Y-40015000D02*
X115187200Y-40015000D01*
X114327200Y-46015000D02*
X114327200Y-40015000D01*
X114327200Y-49087642D02*
X114327200Y-48775000D01*
X115187200Y-40015000D02*
X115187200Y-46015000D01*
X115187200Y-49087642D02*
X115187200Y-48775000D01*
X116027200Y-48775000D02*
X116027200Y-46015000D01*
X116867200Y-40015000D02*
X117727200Y-40015000D01*
X116867200Y-46015000D02*
X116867200Y-40015000D01*
X116867200Y-49087642D02*
X116867200Y-48775000D01*
X117727200Y-40015000D02*
X117727200Y-46015000D01*
X117727200Y-49087642D02*
X117727200Y-48775000D01*
X118567200Y-48775000D02*
X118567200Y-46015000D01*
X119407200Y-40015000D02*
X120267200Y-40015000D01*
X119407200Y-46015000D02*
X119407200Y-40015000D01*
X119407200Y-49087642D02*
X119407200Y-48775000D01*
X120267200Y-40015000D02*
X120267200Y-46015000D01*
X120267200Y-49087642D02*
X120267200Y-48775000D01*
X110837200Y-48775000D02*
X121217200Y-48775000D01*
X121217200Y-46015000D01*
X110837200Y-46015000D01*
X110837200Y-48775000D01*
X111787200Y-46015000D02*
X112647200Y-46015000D01*
X112647200Y-40015000D01*
X111787200Y-40015000D01*
X111787200Y-46015000D01*
G36*
X111787200Y-46015000D02*
G01*
X112647200Y-46015000D01*
X112647200Y-40015000D01*
X111787200Y-40015000D01*
X111787200Y-46015000D01*
G37*
%TO.C,A1*%
X92759400Y-82182800D02*
X92759400Y-84672800D01*
X92759400Y-86020739D02*
X92759400Y-84672800D01*
X92759400Y-87947800D02*
X92759400Y-86944861D01*
X92759400Y-88282800D02*
X93675400Y-88282800D01*
X92759400Y-96082800D02*
X93675400Y-96082800D01*
X92759400Y-96417800D02*
X92759400Y-87947800D01*
X92759400Y-97420739D02*
X92759400Y-96417800D01*
X92759400Y-99692800D02*
X92759400Y-98344860D01*
X92759400Y-102182800D02*
X92759400Y-99692800D01*
X93179400Y-102762476D02*
X93179400Y-103272800D01*
X95299400Y-81572800D02*
X95719400Y-81572800D01*
X95299400Y-102792800D02*
X95299400Y-103272800D01*
X95299400Y-102792800D02*
X95719400Y-102792800D01*
X96063400Y-88282800D02*
X97279400Y-88282800D01*
X96063400Y-96082800D02*
X97279400Y-96082800D01*
X97279400Y-88578890D02*
X97279400Y-88282800D01*
X97279400Y-93428890D02*
X97279400Y-90936710D01*
X97279400Y-96082800D02*
X97279400Y-95786710D01*
X97839400Y-81572800D02*
X98259400Y-81572800D01*
X97839400Y-102792800D02*
X98259400Y-102792800D01*
X100379400Y-81572800D02*
X100799400Y-81572800D01*
X100379400Y-102792800D02*
X100799400Y-102792800D01*
X102919400Y-81572800D02*
X103339400Y-81572800D01*
X102919400Y-102792800D02*
X103339400Y-102792800D01*
X105459400Y-81572800D02*
X105879400Y-81572800D01*
X105459400Y-102792800D02*
X105879400Y-102792800D01*
X107999400Y-81572800D02*
X108419400Y-81572800D01*
X107999400Y-102792800D02*
X108419400Y-102792800D01*
X110539400Y-81572800D02*
X110959400Y-81572800D01*
X110539400Y-102792800D02*
X110959400Y-102792800D01*
X113079400Y-81572800D02*
X113499400Y-81572800D01*
X113079400Y-102792800D02*
X113499400Y-102792800D01*
X115619400Y-81572800D02*
X116039400Y-81572800D01*
X115619400Y-102792800D02*
X116039400Y-102792800D01*
X118159400Y-81572800D02*
X118579400Y-81572800D01*
X118159400Y-102792800D02*
X118579400Y-102792800D01*
X120699400Y-81572800D02*
X121119400Y-81572800D01*
X120699400Y-102792800D02*
X121119400Y-102792800D01*
X123239400Y-81572800D02*
X123659400Y-81572800D01*
X123239400Y-102792800D02*
X123659400Y-102792800D01*
X125779400Y-81572800D02*
X126199400Y-81572800D01*
X125779400Y-102792800D02*
X126199400Y-102792800D01*
X128319400Y-81572800D02*
X128739400Y-81572800D01*
X128319400Y-102792800D02*
X128739400Y-102792800D01*
X130859400Y-81572800D02*
X131279400Y-81572800D01*
X130859400Y-102792800D02*
X131279400Y-102792800D01*
X133399400Y-81572800D02*
X133819400Y-81572800D01*
X133399400Y-102792800D02*
X133819400Y-102792800D01*
X135939400Y-81572800D02*
X136359400Y-81572800D01*
X135939400Y-102792800D02*
X136359400Y-102792800D01*
X138479400Y-81572800D02*
X138899400Y-81572800D01*
X138479400Y-102792800D02*
X138899400Y-102792800D01*
X141019400Y-81572800D02*
X141439400Y-81572800D01*
X141019400Y-102792800D02*
X141439400Y-102792800D01*
X143979400Y-86020739D02*
X143979400Y-82182800D01*
X143979400Y-86944861D02*
X143979400Y-88582800D01*
X143979400Y-88582800D02*
X143979400Y-95782800D01*
X143979400Y-95782800D02*
X143979400Y-97420739D01*
X143979400Y-102182800D02*
X143979400Y-98344861D01*
X92759400Y-82182800D02*
G75*
G02*
X93179463Y-81603124I610000J0D01*
G01*
X93179400Y-102762476D02*
G75*
G02*
X92759400Y-102182800I190051J579692D01*
G01*
X143559337Y-81603124D02*
G75*
G02*
X143979397Y-82182800I-189997J-579716D01*
G01*
X143979400Y-102182800D02*
G75*
G02*
X143559337Y-102762476I-610002J1D01*
G01*
%TO.C,J5*%
X142773400Y-50689200D02*
X142773400Y-49419200D01*
X143613400Y-48259200D02*
X143613400Y-48029200D01*
X144043400Y-50689200D02*
X142773400Y-50689200D01*
X144473400Y-48259200D02*
X144473400Y-48029200D01*
X145313400Y-48029200D02*
X145313400Y-45269200D01*
X146153400Y-39269200D02*
X147013400Y-39269200D01*
X146153400Y-45269200D02*
X146153400Y-39269200D01*
X146153400Y-48341842D02*
X146153400Y-48029200D01*
X147013400Y-39269200D02*
X147013400Y-45269200D01*
X147013400Y-48341842D02*
X147013400Y-48029200D01*
X147853400Y-48029200D02*
X147853400Y-45269200D01*
X148693400Y-39269200D02*
X149553400Y-39269200D01*
X148693400Y-45269200D02*
X148693400Y-39269200D01*
X148693400Y-48341842D02*
X148693400Y-48029200D01*
X149553400Y-39269200D02*
X149553400Y-45269200D01*
X149553400Y-48341842D02*
X149553400Y-48029200D01*
X150393400Y-48029200D02*
X150393400Y-45269200D01*
X151233400Y-39269200D02*
X152093400Y-39269200D01*
X151233400Y-45269200D02*
X151233400Y-39269200D01*
X151233400Y-48341842D02*
X151233400Y-48029200D01*
X152093400Y-39269200D02*
X152093400Y-45269200D01*
X152093400Y-48341842D02*
X152093400Y-48029200D01*
X142663400Y-48029200D02*
X153043400Y-48029200D01*
X153043400Y-45269200D01*
X142663400Y-45269200D01*
X142663400Y-48029200D01*
X143613400Y-45269200D02*
X144473400Y-45269200D01*
X144473400Y-39269200D01*
X143613400Y-39269200D01*
X143613400Y-45269200D01*
G36*
X143613400Y-45269200D02*
G01*
X144473400Y-45269200D01*
X144473400Y-39269200D01*
X143613400Y-39269200D01*
X143613400Y-45269200D01*
G37*
%TO.C,J2*%
X95935800Y-51079400D02*
X95935800Y-49809400D01*
X96775800Y-48649400D02*
X96775800Y-48419400D01*
X97205800Y-51079400D02*
X95935800Y-51079400D01*
X97635800Y-48649400D02*
X97635800Y-48419400D01*
X98475800Y-48419400D02*
X98475800Y-45659400D01*
X99315800Y-39659400D02*
X100175800Y-39659400D01*
X99315800Y-45659400D02*
X99315800Y-39659400D01*
X99315800Y-48732042D02*
X99315800Y-48419400D01*
X100175800Y-39659400D02*
X100175800Y-45659400D01*
X100175800Y-48732042D02*
X100175800Y-48419400D01*
X101015800Y-48419400D02*
X101015800Y-45659400D01*
X101855800Y-39659400D02*
X102715800Y-39659400D01*
X101855800Y-45659400D02*
X101855800Y-39659400D01*
X101855800Y-48732042D02*
X101855800Y-48419400D01*
X102715800Y-39659400D02*
X102715800Y-45659400D01*
X102715800Y-48732042D02*
X102715800Y-48419400D01*
X103555800Y-48419400D02*
X103555800Y-45659400D01*
X104395800Y-39659400D02*
X105255800Y-39659400D01*
X104395800Y-45659400D02*
X104395800Y-39659400D01*
X104395800Y-48732042D02*
X104395800Y-48419400D01*
X105255800Y-39659400D02*
X105255800Y-45659400D01*
X105255800Y-48732042D02*
X105255800Y-48419400D01*
X95825800Y-48419400D02*
X106205800Y-48419400D01*
X106205800Y-45659400D01*
X95825800Y-45659400D01*
X95825800Y-48419400D01*
X96775800Y-45659400D02*
X97635800Y-45659400D01*
X97635800Y-39659400D01*
X96775800Y-39659400D01*
X96775800Y-45659400D01*
G36*
X96775800Y-45659400D02*
G01*
X97635800Y-45659400D01*
X97635800Y-39659400D01*
X96775800Y-39659400D01*
X96775800Y-45659400D01*
G37*
%TO.C,J1*%
X184725800Y-100304600D02*
X184725800Y-97654600D01*
X187485800Y-97654600D02*
X184725800Y-97654600D01*
X187485800Y-100304600D02*
X184725800Y-100304600D01*
X187485800Y-100304600D02*
X187485800Y-97654600D01*
X187485800Y-101574600D02*
X187485800Y-102954600D01*
X187485800Y-102954600D02*
X186105800Y-102954600D01*
%TO.C,J7*%
X174853600Y-50460600D02*
X174853600Y-49190600D01*
X175693600Y-48030600D02*
X175693600Y-47800600D01*
X176123600Y-50460600D02*
X174853600Y-50460600D01*
X176553600Y-48030600D02*
X176553600Y-47800600D01*
X177393600Y-47800600D02*
X177393600Y-45040600D01*
X178233600Y-39040600D02*
X179093600Y-39040600D01*
X178233600Y-45040600D02*
X178233600Y-39040600D01*
X178233600Y-48113242D02*
X178233600Y-47800600D01*
X179093600Y-39040600D02*
X179093600Y-45040600D01*
X179093600Y-48113242D02*
X179093600Y-47800600D01*
X179933600Y-47800600D02*
X179933600Y-45040600D01*
X180773600Y-39040600D02*
X181633600Y-39040600D01*
X180773600Y-45040600D02*
X180773600Y-39040600D01*
X180773600Y-48113242D02*
X180773600Y-47800600D01*
X181633600Y-39040600D02*
X181633600Y-45040600D01*
X181633600Y-48113242D02*
X181633600Y-47800600D01*
X182473600Y-47800600D02*
X182473600Y-45040600D01*
X183313600Y-39040600D02*
X184173600Y-39040600D01*
X183313600Y-45040600D02*
X183313600Y-39040600D01*
X183313600Y-48113242D02*
X183313600Y-47800600D01*
X184173600Y-39040600D02*
X184173600Y-45040600D01*
X184173600Y-48113242D02*
X184173600Y-47800600D01*
X174743600Y-47800600D02*
X185123600Y-47800600D01*
X185123600Y-45040600D01*
X174743600Y-45040600D01*
X174743600Y-47800600D01*
X175693600Y-45040600D02*
X176553600Y-45040600D01*
X176553600Y-39040600D01*
X175693600Y-39040600D01*
X175693600Y-45040600D01*
G36*
X175693600Y-45040600D02*
G01*
X176553600Y-45040600D01*
X176553600Y-39040600D01*
X175693600Y-39040600D01*
X175693600Y-45040600D01*
G37*
%TO.C,U3*%
D10*
X148927000Y-77510000D02*
X176447000Y-77510000D01*
X176447000Y-104110000D01*
X148927000Y-104110000D01*
X148927000Y-77510000D01*
%TO.C,U2*%
X180035200Y-92532200D02*
X189687200Y-92532200D01*
X189687200Y-76022200D01*
X180035200Y-76022200D01*
X180035200Y-92532200D01*
D12*
%TO.C,J4*%
X126619000Y-50495200D02*
X126619000Y-49225200D01*
X127459000Y-48065200D02*
X127459000Y-47835200D01*
X127889000Y-50495200D02*
X126619000Y-50495200D01*
X128319000Y-48065200D02*
X128319000Y-47835200D01*
X129159000Y-47835200D02*
X129159000Y-45075200D01*
X129999000Y-39075200D02*
X130859000Y-39075200D01*
X129999000Y-45075200D02*
X129999000Y-39075200D01*
X129999000Y-48147842D02*
X129999000Y-47835200D01*
X130859000Y-39075200D02*
X130859000Y-45075200D01*
X130859000Y-48147842D02*
X130859000Y-47835200D01*
X131699000Y-47835200D02*
X131699000Y-45075200D01*
X132539000Y-39075200D02*
X133399000Y-39075200D01*
X132539000Y-45075200D02*
X132539000Y-39075200D01*
X132539000Y-48147842D02*
X132539000Y-47835200D01*
X133399000Y-39075200D02*
X133399000Y-45075200D01*
X133399000Y-48147842D02*
X133399000Y-47835200D01*
X134239000Y-47835200D02*
X134239000Y-45075200D01*
X135079000Y-39075200D02*
X135939000Y-39075200D01*
X135079000Y-45075200D02*
X135079000Y-39075200D01*
X135079000Y-48147842D02*
X135079000Y-47835200D01*
X135939000Y-39075200D02*
X135939000Y-45075200D01*
X135939000Y-48147842D02*
X135939000Y-47835200D01*
X126509000Y-47835200D02*
X136889000Y-47835200D01*
X136889000Y-45075200D01*
X126509000Y-45075200D01*
X126509000Y-47835200D01*
X127459000Y-45075200D02*
X128319000Y-45075200D01*
X128319000Y-39075200D01*
X127459000Y-39075200D01*
X127459000Y-45075200D01*
G36*
X127459000Y-45075200D02*
G01*
X128319000Y-45075200D01*
X128319000Y-39075200D01*
X127459000Y-39075200D01*
X127459000Y-45075200D01*
G37*
%TD*%
M02*
