%TF.GenerationSoftware,KiCad,Pcbnew,9.0.7*%
%TF.CreationDate,2026-02-26T22:39:56-05:00*%
%TF.ProjectId,StepperClock,53746570-7065-4724-936c-6f636b2e6b69,rev?*%
%TF.SameCoordinates,Original*%
%TF.FileFunction,Paste,Top*%
%TF.FilePolarity,Positive*%
%FSLAX46Y46*%
G04 Gerber Fmt 4.6, Leading zero omitted, Abs format (unit mm)*
G04 Created by KiCad (PCBNEW 9.0.7) date 2026-02-26 22:39:56*
%MOMM*%
%LPD*%
G01*
G04 APERTURE LIST*
%ADD10R,2.200000X3.800000*%
G04 APERTURE END LIST*
D10*
%TO.C,A1*%
X94239400Y-101872800D03*
X96779400Y-101872800D03*
X99319400Y-101872800D03*
X101859400Y-101872800D03*
X104399400Y-101872800D03*
X106939400Y-101872800D03*
X109479400Y-101872800D03*
X112019400Y-101872800D03*
X114559400Y-101872800D03*
X117099400Y-101872800D03*
X119639400Y-101872800D03*
X122179400Y-101872800D03*
X124719400Y-101872800D03*
X127259400Y-101872800D03*
X129799400Y-101872800D03*
X132339400Y-101872800D03*
X134879400Y-101872800D03*
X137419400Y-101872800D03*
X139959400Y-101872800D03*
X142499400Y-101872800D03*
X94239400Y-82492800D03*
X96779400Y-82492800D03*
X99319400Y-82492800D03*
X101859400Y-82492800D03*
X104399400Y-82492800D03*
X106939400Y-82492800D03*
X109479400Y-82492800D03*
X112019400Y-82492800D03*
X114559400Y-82492800D03*
X117099400Y-82492800D03*
X119639400Y-82492800D03*
X122179400Y-82492800D03*
X124719400Y-82492800D03*
X127259400Y-82492800D03*
X129799400Y-82492800D03*
X132339400Y-82492800D03*
X134879400Y-82492800D03*
X137419400Y-82492800D03*
X139959400Y-82492800D03*
X142499400Y-82492800D03*
%TD*%
M02*
