%TF.GenerationSoftware,KiCad,Pcbnew,9.0.7*%
%TF.CreationDate,2026-02-26T22:39:55-05:00*%
%TF.ProjectId,StepperClock,53746570-7065-4724-936c-6f636b2e6b69,rev?*%
%TF.SameCoordinates,Original*%
%TF.FileFunction,Copper,L4,Bot*%
%TF.FilePolarity,Positive*%
%FSLAX46Y46*%
G04 Gerber Fmt 4.6, Leading zero omitted, Abs format (unit mm)*
G04 Created by KiCad (PCBNEW 9.0.7) date 2026-02-26 22:39:55*
%MOMM*%
%LPD*%
G01*
G04 APERTURE LIST*
G04 Aperture macros list*
%AMRoundRect*
0 Rectangle with rounded corners*
0 $1 Rounding radius*
0 $2 $3 $4 $5 $6 $7 $8 $9 X,Y pos of 4 corners*
0 Add a 4 corners polygon primitive as box body*
4,1,4,$2,$3,$4,$5,$6,$7,$8,$9,$2,$3,0*
0 Add four circle primitives for the rounded corners*
1,1,$1+$1,$2,$3*
1,1,$1+$1,$4,$5*
1,1,$1+$1,$6,$7*
1,1,$1+$1,$8,$9*
0 Add four rect primitives between the rounded corners*
20,1,$1+$1,$2,$3,$4,$5,0*
20,1,$1+$1,$4,$5,$6,$7,0*
20,1,$1+$1,$6,$7,$8,$9,0*
20,1,$1+$1,$8,$9,$2,$3,0*%
G04 Aperture macros list end*
%TA.AperFunction,ComponentPad*%
%ADD10C,1.727200*%
%TD*%
%TA.AperFunction,ComponentPad*%
%ADD11C,3.048000*%
%TD*%
%TA.AperFunction,ComponentPad*%
%ADD12RoundRect,0.249999X0.850001X-0.850001X0.850001X0.850001X-0.850001X0.850001X-0.850001X-0.850001X0*%
%TD*%
%TA.AperFunction,ComponentPad*%
%ADD13C,2.200000*%
%TD*%
%TA.AperFunction,ComponentPad*%
%ADD14R,1.700000X1.700000*%
%TD*%
%TA.AperFunction,ComponentPad*%
%ADD15C,1.700000*%
%TD*%
%TA.AperFunction,ComponentPad*%
%ADD16C,0.068000*%
%TD*%
%TA.AperFunction,Conductor*%
%ADD17C,0.200000*%
%TD*%
G04 APERTURE END LIST*
D10*
%TO.P,U1,1,GND*%
%TO.N,GND*%
X119507000Y-76530200D03*
%TO.P,U1,2,VCC*%
%TO.N,+3V3*%
X116967000Y-76530200D03*
%TO.P,U1,3,SCL*%
%TO.N,/SCK*%
X114427000Y-76530200D03*
%TO.P,U1,4,SDA*%
%TO.N,/MOSI*%
X111887000Y-76530200D03*
%TO.P,U1,5,RES*%
%TO.N,/TFT_Reset*%
X109347000Y-76530200D03*
%TO.P,U1,6,D/~{C}*%
%TO.N,/TFT_D{slash}~{C}*%
X106807000Y-76530200D03*
%TO.P,U1,7,CS*%
%TO.N,/TFT_Select*%
X104267000Y-76530200D03*
%TO.P,U1,8,BLK*%
%TO.N,unconnected-(U1-BLK-Pad8)*%
X101727000Y-76530200D03*
D11*
%TO.P,U1,9*%
%TO.N,N/C*%
X123113800Y-75260200D03*
X122910600Y-56515000D03*
X98018600Y-56261000D03*
X97891600Y-75361800D03*
%TD*%
D12*
%TO.P,D1,1,K*%
%TO.N,Net-(A1-VSYS)*%
X181762400Y-105308400D03*
D13*
%TO.P,D1,2,A*%
%TO.N,+5V*%
X181762400Y-95148400D03*
%TD*%
D14*
%TO.P,J6,1,Pin_1*%
%TO.N,/Sec1_M1B*%
X159918400Y-49647800D03*
D15*
%TO.P,J6,2,Pin_2*%
%TO.N,/Sec1_M1A*%
X162458400Y-49647800D03*
%TO.P,J6,3,Pin_3*%
%TO.N,/Sec1_M2B*%
X164998400Y-49647800D03*
%TO.P,J6,4,Pin_4*%
X167538400Y-49647800D03*
%TD*%
D14*
%TO.P,J3,1,Pin_1*%
%TO.N,/Hour0_M1B*%
X112217200Y-50165000D03*
D15*
%TO.P,J3,2,Pin_2*%
%TO.N,/Hour0_M1A*%
X114757200Y-50165000D03*
%TO.P,J3,3,Pin_3*%
%TO.N,/Hour0_M2B*%
X117297200Y-50165000D03*
%TO.P,J3,4,Pin_4*%
X119837200Y-50165000D03*
%TD*%
D14*
%TO.P,J5,1,Pin_1*%
%TO.N,/Min0_M1B*%
X144043400Y-49419200D03*
D15*
%TO.P,J5,2,Pin_2*%
%TO.N,/Min0_M1A*%
X146583400Y-49419200D03*
%TO.P,J5,3,Pin_3*%
%TO.N,/Min0_M2B*%
X149123400Y-49419200D03*
%TO.P,J5,4,Pin_4*%
X151663400Y-49419200D03*
%TD*%
D14*
%TO.P,J2,1,Pin_1*%
%TO.N,/Hour1_M1B*%
X97205800Y-49809400D03*
D15*
%TO.P,J2,2,Pin_2*%
%TO.N,/Hour1_M1A*%
X99745800Y-49809400D03*
%TO.P,J2,3,Pin_3*%
%TO.N,/Hour1_M2B*%
X102285800Y-49809400D03*
%TO.P,J2,4,Pin_4*%
X104825800Y-49809400D03*
%TD*%
D14*
%TO.P,J1,1,Pin_1*%
%TO.N,GND*%
X186105800Y-101574600D03*
D15*
%TO.P,J1,2,Pin_2*%
%TO.N,+12V*%
X186105800Y-99034600D03*
%TD*%
D14*
%TO.P,J7,1,Pin_1*%
%TO.N,/Sec0_M1B*%
X176123600Y-49190600D03*
D15*
%TO.P,J7,2,Pin_2*%
%TO.N,/Sec0_M1A*%
X178663600Y-49190600D03*
%TO.P,J7,3,Pin_3*%
%TO.N,/Sec0_M2B*%
X181203600Y-49190600D03*
%TO.P,J7,4,Pin_4*%
X183743600Y-49190600D03*
%TD*%
D10*
%TO.P,U3,1,PPS*%
%TO.N,unconnected-(U3-PPS-Pad1)*%
X157607000Y-78740000D03*
D16*
X171227000Y-47060000D03*
D10*
%TO.P,U3,2,Tx*%
%TO.N,/PicoRx*%
X160147000Y-78740000D03*
%TO.P,U3,3,Rx*%
%TO.N,/PicoTx*%
X162687000Y-78740000D03*
%TO.P,U3,4,GND*%
%TO.N,GND*%
X165227000Y-78740000D03*
%TO.P,U3,5,VCC*%
%TO.N,+3V3*%
X167767000Y-78740000D03*
%TD*%
%TO.P,U2,1,IN-*%
%TO.N,GND*%
X181051200Y-91516200D03*
%TO.P,U2,2,IN+*%
%TO.N,+12V*%
X188671200Y-91516200D03*
%TO.P,U2,3,Out+*%
%TO.N,+5V*%
X188671200Y-77038200D03*
%TO.P,U2,4,Out-*%
%TO.N,GND*%
X181051200Y-77038200D03*
%TD*%
D14*
%TO.P,J4,1,Pin_1*%
%TO.N,/Min1_M1B*%
X127889000Y-49225200D03*
D15*
%TO.P,J4,2,Pin_2*%
%TO.N,/Min1_M1A*%
X130429000Y-49225200D03*
%TO.P,J4,3,Pin_3*%
%TO.N,/Min1_M2B*%
X132969000Y-49225200D03*
%TO.P,J4,4,Pin_4*%
X135509000Y-49225200D03*
%TD*%
D10*
%TO.P,U5,1,EN*%
%TO.N,/Enable*%
X110761600Y-71501000D03*
%TO.P,U5,2,MS1*%
%TO.N,Net-(JP1-C)*%
X110761600Y-68961000D03*
%TO.P,U5,3,MS2*%
%TO.N,Net-(JP2-C)*%
X110761600Y-66421000D03*
%TO.P,U5,4,UART*%
%TO.N,unconnected-(U5-UART-Pad4)*%
X110761600Y-63881000D03*
%TO.P,U5,5,PDN*%
%TO.N,unconnected-(U5-PDN-Pad5)*%
X110761600Y-61341000D03*
%TO.P,U5,6,CLK*%
%TO.N,Net-(U4-CLK)*%
X110761600Y-58801000D03*
%TO.P,U5,7,STEP*%
%TO.N,/Hour0Step*%
X110761600Y-56261000D03*
%TO.P,U5,8,DIR*%
%TO.N,/Direction*%
X110761600Y-53721000D03*
%TO.P,U5,9,GND*%
%TO.N,GND*%
X123461600Y-53721000D03*
%TO.P,U5,10,VIO*%
%TO.N,+5V*%
X123461600Y-56261000D03*
%TO.P,U5,11,M2B*%
%TO.N,/Hour0_M2B*%
X123461600Y-58801000D03*
%TO.P,U5,12,M2A*%
X123461600Y-61341000D03*
%TO.P,U5,13,M1A*%
%TO.N,/Hour0_M1A*%
X123461600Y-63881000D03*
%TO.P,U5,14,M1B*%
%TO.N,/Hour0_M1B*%
X123461600Y-66421000D03*
%TO.P,U5,15,GND*%
%TO.N,GND*%
X123461600Y-68961000D03*
%TO.P,U5,16,VM*%
%TO.N,+12V*%
X123461600Y-71501000D03*
%TD*%
%TO.P,U4,1,EN*%
%TO.N,/Enable*%
X94929600Y-71501000D03*
%TO.P,U4,2,MS1*%
%TO.N,Net-(JP1-C)*%
X94929600Y-68961000D03*
%TO.P,U4,3,MS2*%
%TO.N,Net-(JP2-C)*%
X94929600Y-66421000D03*
%TO.P,U4,4,UART*%
%TO.N,unconnected-(U4-UART-Pad4)*%
X94929600Y-63881000D03*
%TO.P,U4,5,PDN*%
%TO.N,unconnected-(U4-PDN-Pad5)*%
X94929600Y-61341000D03*
%TO.P,U4,6,CLK*%
%TO.N,Net-(U4-CLK)*%
X94929600Y-58801000D03*
%TO.P,U4,7,STEP*%
%TO.N,/Hour1Step*%
X94929600Y-56261000D03*
%TO.P,U4,8,DIR*%
%TO.N,/Direction*%
X94929600Y-53721000D03*
%TO.P,U4,9,GND*%
%TO.N,GND*%
X107629600Y-53721000D03*
%TO.P,U4,10,VIO*%
%TO.N,+5V*%
X107629600Y-56261000D03*
%TO.P,U4,11,M2B*%
%TO.N,/Hour1_M2B*%
X107629600Y-58801000D03*
%TO.P,U4,12,M2A*%
X107629600Y-61341000D03*
%TO.P,U4,13,M1A*%
%TO.N,/Hour1_M1A*%
X107629600Y-63881000D03*
%TO.P,U4,14,M1B*%
%TO.N,/Hour1_M1B*%
X107629600Y-66421000D03*
%TO.P,U4,15,GND*%
%TO.N,GND*%
X107629600Y-68961000D03*
%TO.P,U4,16,VM*%
%TO.N,+12V*%
X107629600Y-71501000D03*
%TD*%
%TO.P,U9,1,EN*%
%TO.N,/Enable*%
X174089600Y-71501000D03*
%TO.P,U9,2,MS1*%
%TO.N,Net-(JP1-C)*%
X174089600Y-68961000D03*
%TO.P,U9,3,MS2*%
%TO.N,Net-(JP2-C)*%
X174089600Y-66421000D03*
%TO.P,U9,4,UART*%
%TO.N,unconnected-(U9-UART-Pad4)*%
X174089600Y-63881000D03*
%TO.P,U9,5,PDN*%
%TO.N,unconnected-(U9-PDN-Pad5)*%
X174089600Y-61341000D03*
%TO.P,U9,6,CLK*%
%TO.N,Net-(U4-CLK)*%
X174089600Y-58801000D03*
%TO.P,U9,7,STEP*%
%TO.N,/Sec0Step*%
X174089600Y-56261000D03*
%TO.P,U9,8,DIR*%
%TO.N,/Direction*%
X174089600Y-53721000D03*
%TO.P,U9,9,GND*%
%TO.N,GND*%
X186789600Y-53721000D03*
%TO.P,U9,10,VIO*%
%TO.N,+5V*%
X186789600Y-56261000D03*
%TO.P,U9,11,M2B*%
%TO.N,/Sec0_M2B*%
X186789600Y-58801000D03*
%TO.P,U9,12,M2A*%
X186789600Y-61341000D03*
%TO.P,U9,13,M1A*%
%TO.N,/Sec0_M1A*%
X186789600Y-63881000D03*
%TO.P,U9,14,M1B*%
%TO.N,/Sec0_M1B*%
X186789600Y-66421000D03*
%TO.P,U9,15,GND*%
%TO.N,GND*%
X186789600Y-68961000D03*
%TO.P,U9,16,VM*%
%TO.N,+12V*%
X186789600Y-71501000D03*
%TD*%
%TO.P,U7,1,EN*%
%TO.N,/Enable*%
X142425600Y-71501000D03*
%TO.P,U7,2,MS1*%
%TO.N,Net-(JP1-C)*%
X142425600Y-68961000D03*
%TO.P,U7,3,MS2*%
%TO.N,Net-(JP2-C)*%
X142425600Y-66421000D03*
%TO.P,U7,4,UART*%
%TO.N,unconnected-(U7-UART-Pad4)*%
X142425600Y-63881000D03*
%TO.P,U7,5,PDN*%
%TO.N,unconnected-(U7-PDN-Pad5)*%
X142425600Y-61341000D03*
%TO.P,U7,6,CLK*%
%TO.N,Net-(U4-CLK)*%
X142425600Y-58801000D03*
%TO.P,U7,7,STEP*%
%TO.N,/Min0Step*%
X142425600Y-56261000D03*
%TO.P,U7,8,DIR*%
%TO.N,/Direction*%
X142425600Y-53721000D03*
%TO.P,U7,9,GND*%
%TO.N,GND*%
X155125600Y-53721000D03*
%TO.P,U7,10,VIO*%
%TO.N,+5V*%
X155125600Y-56261000D03*
%TO.P,U7,11,M2B*%
%TO.N,/Min0_M2B*%
X155125600Y-58801000D03*
%TO.P,U7,12,M2A*%
X155125600Y-61341000D03*
%TO.P,U7,13,M1A*%
%TO.N,/Min0_M1A*%
X155125600Y-63881000D03*
%TO.P,U7,14,M1B*%
%TO.N,/Min0_M1B*%
X155125600Y-66421000D03*
%TO.P,U7,15,GND*%
%TO.N,GND*%
X155125600Y-68961000D03*
%TO.P,U7,16,VM*%
%TO.N,+12V*%
X155125600Y-71501000D03*
%TD*%
%TO.P,U8,1,EN*%
%TO.N,/Enable*%
X158257600Y-71501000D03*
%TO.P,U8,2,MS1*%
%TO.N,Net-(JP1-C)*%
X158257600Y-68961000D03*
%TO.P,U8,3,MS2*%
%TO.N,Net-(JP2-C)*%
X158257600Y-66421000D03*
%TO.P,U8,4,UART*%
%TO.N,unconnected-(U8-UART-Pad4)*%
X158257600Y-63881000D03*
%TO.P,U8,5,PDN*%
%TO.N,unconnected-(U8-PDN-Pad5)*%
X158257600Y-61341000D03*
%TO.P,U8,6,CLK*%
%TO.N,Net-(U4-CLK)*%
X158257600Y-58801000D03*
%TO.P,U8,7,STEP*%
%TO.N,/Sec1Step*%
X158257600Y-56261000D03*
%TO.P,U8,8,DIR*%
%TO.N,/Direction*%
X158257600Y-53721000D03*
%TO.P,U8,9,GND*%
%TO.N,GND*%
X170957600Y-53721000D03*
%TO.P,U8,10,VIO*%
%TO.N,+5V*%
X170957600Y-56261000D03*
%TO.P,U8,11,M2B*%
%TO.N,/Sec1_M2B*%
X170957600Y-58801000D03*
%TO.P,U8,12,M2A*%
X170957600Y-61341000D03*
%TO.P,U8,13,M1A*%
%TO.N,/Sec1_M1A*%
X170957600Y-63881000D03*
%TO.P,U8,14,M1B*%
%TO.N,/Sec1_M1B*%
X170957600Y-66421000D03*
%TO.P,U8,15,GND*%
%TO.N,GND*%
X170957600Y-68961000D03*
%TO.P,U8,16,VM*%
%TO.N,+12V*%
X170957600Y-71501000D03*
%TD*%
%TO.P,U6,1,EN*%
%TO.N,/Enable*%
X126593600Y-71501000D03*
%TO.P,U6,2,MS1*%
%TO.N,Net-(JP1-C)*%
X126593600Y-68961000D03*
%TO.P,U6,3,MS2*%
%TO.N,Net-(JP2-C)*%
X126593600Y-66421000D03*
%TO.P,U6,4,UART*%
%TO.N,unconnected-(U6-UART-Pad4)*%
X126593600Y-63881000D03*
%TO.P,U6,5,PDN*%
%TO.N,unconnected-(U6-PDN-Pad5)*%
X126593600Y-61341000D03*
%TO.P,U6,6,CLK*%
%TO.N,Net-(U4-CLK)*%
X126593600Y-58801000D03*
%TO.P,U6,7,STEP*%
%TO.N,/Min1Step*%
X126593600Y-56261000D03*
%TO.P,U6,8,DIR*%
%TO.N,/Direction*%
X126593600Y-53721000D03*
%TO.P,U6,9,GND*%
%TO.N,GND*%
X139293600Y-53721000D03*
%TO.P,U6,10,VIO*%
%TO.N,+5V*%
X139293600Y-56261000D03*
%TO.P,U6,11,M2B*%
%TO.N,/Min1_M2B*%
X139293600Y-58801000D03*
%TO.P,U6,12,M2A*%
X139293600Y-61341000D03*
%TO.P,U6,13,M1A*%
%TO.N,/Min1_M1A*%
X139293600Y-63881000D03*
%TO.P,U6,14,M1B*%
%TO.N,/Min1_M1B*%
X139293600Y-66421000D03*
%TO.P,U6,15,GND*%
%TO.N,GND*%
X139293600Y-68961000D03*
%TO.P,U6,16,VM*%
%TO.N,+12V*%
X139293600Y-71501000D03*
%TD*%
D17*
%TO.N,/Min0_M1B*%
X144043400Y-55338800D02*
X144043400Y-49419200D01*
X155125600Y-66421000D02*
X144043400Y-55338800D01*
%TO.N,/Min0_M1A*%
X155125600Y-63881000D02*
X146583400Y-55338800D01*
X146583400Y-55338800D02*
X146583400Y-49419200D01*
%TO.N,/Min0_M2B*%
X149123400Y-55338800D02*
X149123400Y-49419200D01*
X155125600Y-61341000D02*
X149123400Y-55338800D01*
X155125600Y-58801000D02*
X151663400Y-55338800D01*
X151663400Y-55338800D02*
X151663400Y-49419200D01*
%TD*%
M02*
