M48
; DRILL file {KiCad 9.0.7} date 2026-03-03T20:00:47-0500
; FORMAT={-:-/ absolute / inch / decimal}
; #@! TF.CreationDate,2026-03-03T20:00:47-05:00
; #@! TF.GenerationSoftware,Kicad,Pcbnew,9.0.7
; #@! TF.FileFunction,Plated,1,4,PTH
FMAT,2
INCH
; #@! TA.AperFunction,Plated,PTH,ViaDrill
T1C0.0118
; #@! TA.AperFunction,Plated,PTH,ComponentDrill
T2C0.0295
; #@! TA.AperFunction,Plated,PTH,ComponentDrill
T3C0.0315
; #@! TA.AperFunction,Plated,PTH,ComponentDrill
T4C0.0394
; #@! TA.AperFunction,Plated,PTH,ComponentDrill
T5C0.0400
; #@! TA.AperFunction,Plated,PTH,ComponentDrill
T6C0.0433
; #@! TA.AperFunction,Plated,PTH,ComponentDrill
T7C0.0512
; #@! TA.AperFunction,Plated,PTH,ComponentDrill
T8C0.1000
%
G90
G05
T1
X4.55Y-2.0341
X4.55Y-2.79
X4.55Y-2.97
X5.12Y-3.03
X5.73Y-3.32
X6.35Y-3.32
X7.26Y-2.19
X7.27Y-2.31
X7.36Y-2.52
X7.36Y-2.79
X7.51Y-2.52
X7.51Y-2.79
T2
X3.7425Y-1.83
X3.8213Y-1.83
X3.9Y-1.83
X3.9787Y-1.83
X4.0575Y-1.83
X4.1362Y-1.83
X4.4463Y-1.83
X4.525Y-1.83
X4.6038Y-1.83
X4.6825Y-1.83
X4.7613Y-1.83
X4.84Y-1.83
X5.1463Y-1.83
X5.225Y-1.83
X5.3038Y-1.83
X5.3825Y-1.83
X5.4613Y-1.83
X5.54Y-1.83
X5.8413Y-1.8397
X5.92Y-1.8397
X5.9987Y-1.8397
X6.0775Y-1.8397
X6.1562Y-1.8397
X6.235Y-1.8397
X6.5463Y-1.83
X6.625Y-1.83
X6.7038Y-1.83
X6.7825Y-1.83
X6.8613Y-1.83
X6.94Y-1.83
X7.2413Y-1.83
X7.32Y-1.83
X7.3987Y-1.83
X7.4775Y-1.83
X7.5562Y-1.83
X7.635Y-1.83
T3
X3.3416Y-2.05
X3.44Y-2.05
X4.24Y-3.75
X4.34Y-3.75
X4.44Y-3.75
X4.54Y-3.75
X4.64Y-3.75
X4.74Y-3.75
X4.84Y-3.75
X4.94Y-3.75
T4
X3.25Y-3.3
X3.25Y-4.0
X3.34Y-1.79
X3.35Y-3.3
X3.35Y-4.0
X3.44Y-1.79
X3.45Y-3.3
X3.45Y-4.0
X3.55Y-3.3
X3.55Y-4.0
X3.65Y-3.3
X3.65Y-4.0
X3.75Y-3.3
X3.75Y-4.0
X3.85Y-3.3
X3.85Y-4.0
X3.95Y-3.3
X3.95Y-4.0
X4.05Y-3.3
X4.05Y-4.0
X4.15Y-3.3
X4.15Y-4.0
X4.25Y-3.3
X4.25Y-4.0
X4.35Y-3.3
X4.35Y-4.0
X4.45Y-3.3
X4.45Y-4.0
X4.55Y-3.3
X4.55Y-4.0
X4.65Y-3.3
X4.65Y-4.0
X4.75Y-3.3
X4.75Y-4.0
X4.85Y-3.3
X4.85Y-4.0
X4.95Y-3.3
X4.95Y-4.0
X5.05Y-3.3
X5.05Y-4.0
X5.15Y-3.3
X5.15Y-4.0
T5
X3.23Y-2.285
X3.23Y-2.855
X3.53Y-2.285
X3.53Y-2.855
X3.69Y-2.08
X3.69Y-2.18
X3.69Y-2.28
X3.69Y-2.38
X3.69Y-2.48
X3.69Y-2.58
X3.69Y-2.68
X3.69Y-2.78
X4.19Y-2.08
X4.19Y-2.18
X4.19Y-2.28
X4.19Y-2.38
X4.19Y-2.48
X4.19Y-2.58
X4.19Y-2.68
X4.19Y-2.78
X4.39Y-2.08
X4.39Y-2.18
X4.39Y-2.28
X4.39Y-2.38
X4.39Y-2.48
X4.39Y-2.58
X4.39Y-2.68
X4.39Y-2.78
X4.89Y-2.08
X4.89Y-2.18
X4.89Y-2.28
X4.89Y-2.38
X4.89Y-2.48
X4.89Y-2.58
X4.89Y-2.68
X4.89Y-2.78
X5.09Y-2.08
X5.09Y-2.18
X5.09Y-2.28
X5.09Y-2.38
X5.09Y-2.48
X5.09Y-2.58
X5.09Y-2.68
X5.09Y-2.78
X5.59Y-2.08
X5.59Y-2.18
X5.59Y-2.28
X5.59Y-2.38
X5.59Y-2.48
X5.59Y-2.58
X5.59Y-2.68
X5.59Y-2.78
X5.79Y-2.08
X5.79Y-2.18
X5.79Y-2.28
X5.79Y-2.38
X5.79Y-2.48
X5.79Y-2.58
X5.79Y-2.68
X5.79Y-2.78
X6.29Y-2.08
X6.29Y-2.18
X6.29Y-2.28
X6.29Y-2.38
X6.29Y-2.48
X6.29Y-2.58
X6.29Y-2.68
X6.29Y-2.78
X6.5Y-2.08
X6.5Y-2.18
X6.5Y-2.28
X6.5Y-2.38
X6.5Y-2.48
X6.5Y-2.58
X6.5Y-2.68
X6.5Y-2.78
X7.0Y-2.08
X7.0Y-2.18
X7.0Y-2.28
X7.0Y-2.38
X7.0Y-2.48
X7.0Y-2.58
X7.0Y-2.68
X7.0Y-2.78
X7.02Y-3.18
X7.12Y-3.18
X7.19Y-2.08
X7.19Y-2.18
X7.19Y-2.28
X7.19Y-2.38
X7.19Y-2.48
X7.19Y-2.58
X7.19Y-2.68
X7.19Y-2.78
X7.22Y-3.18
X7.32Y-3.18
X7.42Y-3.18
X7.69Y-2.08
X7.69Y-2.18
X7.69Y-2.28
X7.69Y-2.38
X7.69Y-2.48
X7.69Y-2.58
X7.69Y-2.68
X7.69Y-2.78
T6
X3.22Y-3.03
X3.52Y-3.03
T7
X5.34Y-3.68
X5.34Y-3.8769
X5.8321Y-3.68
X5.8321Y-3.8769
X6.0339Y-3.6916
X6.0339Y-3.8884
X6.5261Y-3.6916
X6.5261Y-3.8884
T8
X4.089Y-3.704
X5.082Y-3.7
M30
