%TF.GenerationSoftware,KiCad,Pcbnew,9.0.7*%
%TF.CreationDate,2026-03-03T20:00:45-05:00*%
%TF.ProjectId,StepperClock,53746570-7065-4724-936c-6f636b2e6b69,rev?*%
%TF.SameCoordinates,Original*%
%TF.FileFunction,Legend,Top*%
%TF.FilePolarity,Positive*%
%FSLAX46Y46*%
G04 Gerber Fmt 4.6, Leading zero omitted, Abs format (unit mm)*
G04 Created by KiCad (PCBNEW 9.0.7) date 2026-03-03 20:00:45*
%MOMM*%
%LPD*%
G01*
G04 APERTURE LIST*
%ADD10C,0.150000*%
%ADD11C,0.100000*%
%ADD12C,0.120000*%
G04 APERTURE END LIST*
D10*
X89210819Y-45799333D02*
X89925104Y-45799333D01*
X89925104Y-45799333D02*
X90067961Y-45846952D01*
X90067961Y-45846952D02*
X90163200Y-45942190D01*
X90163200Y-45942190D02*
X90210819Y-46085047D01*
X90210819Y-46085047D02*
X90210819Y-46180285D01*
X89210819Y-45418380D02*
X89210819Y-44751714D01*
X89210819Y-44751714D02*
X90210819Y-45180285D01*
X142254905Y-86432819D02*
X142254905Y-85432819D01*
X142254905Y-85432819D02*
X142493000Y-85432819D01*
X142493000Y-85432819D02*
X142635857Y-85480438D01*
X142635857Y-85480438D02*
X142731095Y-85575676D01*
X142731095Y-85575676D02*
X142778714Y-85670914D01*
X142778714Y-85670914D02*
X142826333Y-85861390D01*
X142826333Y-85861390D02*
X142826333Y-86004247D01*
X142826333Y-86004247D02*
X142778714Y-86194723D01*
X142778714Y-86194723D02*
X142731095Y-86289961D01*
X142731095Y-86289961D02*
X142635857Y-86385200D01*
X142635857Y-86385200D02*
X142493000Y-86432819D01*
X142493000Y-86432819D02*
X142254905Y-86432819D01*
X143778714Y-86432819D02*
X143207286Y-86432819D01*
X143493000Y-86432819D02*
X143493000Y-85432819D01*
X143493000Y-85432819D02*
X143397762Y-85575676D01*
X143397762Y-85575676D02*
X143302524Y-85670914D01*
X143302524Y-85670914D02*
X143207286Y-85718533D01*
X154281333Y-83132819D02*
X153948000Y-82656628D01*
X153709905Y-83132819D02*
X153709905Y-82132819D01*
X153709905Y-82132819D02*
X154090857Y-82132819D01*
X154090857Y-82132819D02*
X154186095Y-82180438D01*
X154186095Y-82180438D02*
X154233714Y-82228057D01*
X154233714Y-82228057D02*
X154281333Y-82323295D01*
X154281333Y-82323295D02*
X154281333Y-82466152D01*
X154281333Y-82466152D02*
X154233714Y-82561390D01*
X154233714Y-82561390D02*
X154186095Y-82609009D01*
X154186095Y-82609009D02*
X154090857Y-82656628D01*
X154090857Y-82656628D02*
X153709905Y-82656628D01*
X154662286Y-82228057D02*
X154709905Y-82180438D01*
X154709905Y-82180438D02*
X154805143Y-82132819D01*
X154805143Y-82132819D02*
X155043238Y-82132819D01*
X155043238Y-82132819D02*
X155138476Y-82180438D01*
X155138476Y-82180438D02*
X155186095Y-82228057D01*
X155186095Y-82228057D02*
X155233714Y-82323295D01*
X155233714Y-82323295D02*
X155233714Y-82418533D01*
X155233714Y-82418533D02*
X155186095Y-82561390D01*
X155186095Y-82561390D02*
X154614667Y-83132819D01*
X154614667Y-83132819D02*
X155233714Y-83132819D01*
X193864666Y-49246819D02*
X193864666Y-49961104D01*
X193864666Y-49961104D02*
X193817047Y-50103961D01*
X193817047Y-50103961D02*
X193721809Y-50199200D01*
X193721809Y-50199200D02*
X193578952Y-50246819D01*
X193578952Y-50246819D02*
X193483714Y-50246819D01*
X194769428Y-49246819D02*
X194578952Y-49246819D01*
X194578952Y-49246819D02*
X194483714Y-49294438D01*
X194483714Y-49294438D02*
X194436095Y-49342057D01*
X194436095Y-49342057D02*
X194340857Y-49484914D01*
X194340857Y-49484914D02*
X194293238Y-49675390D01*
X194293238Y-49675390D02*
X194293238Y-50056342D01*
X194293238Y-50056342D02*
X194340857Y-50151580D01*
X194340857Y-50151580D02*
X194388476Y-50199200D01*
X194388476Y-50199200D02*
X194483714Y-50246819D01*
X194483714Y-50246819D02*
X194674190Y-50246819D01*
X194674190Y-50246819D02*
X194769428Y-50199200D01*
X194769428Y-50199200D02*
X194817047Y-50151580D01*
X194817047Y-50151580D02*
X194864666Y-50056342D01*
X194864666Y-50056342D02*
X194864666Y-49818247D01*
X194864666Y-49818247D02*
X194817047Y-49723009D01*
X194817047Y-49723009D02*
X194769428Y-49675390D01*
X194769428Y-49675390D02*
X194674190Y-49627771D01*
X194674190Y-49627771D02*
X194483714Y-49627771D01*
X194483714Y-49627771D02*
X194388476Y-49675390D01*
X194388476Y-49675390D02*
X194340857Y-49723009D01*
X194340857Y-49723009D02*
X194293238Y-49818247D01*
D11*
X104063704Y-98408780D02*
X104063704Y-97599257D01*
X104063704Y-97599257D02*
X104016085Y-97504019D01*
X104016085Y-97504019D02*
X103968466Y-97456400D01*
X103968466Y-97456400D02*
X103873228Y-97408780D01*
X103873228Y-97408780D02*
X103682752Y-97408780D01*
X103682752Y-97408780D02*
X103587514Y-97456400D01*
X103587514Y-97456400D02*
X103539895Y-97504019D01*
X103539895Y-97504019D02*
X103492276Y-97599257D01*
X103492276Y-97599257D02*
X103492276Y-98408780D01*
X103063704Y-98313542D02*
X103016085Y-98361161D01*
X103016085Y-98361161D02*
X102920847Y-98408780D01*
X102920847Y-98408780D02*
X102682752Y-98408780D01*
X102682752Y-98408780D02*
X102587514Y-98361161D01*
X102587514Y-98361161D02*
X102539895Y-98313542D01*
X102539895Y-98313542D02*
X102492276Y-98218304D01*
X102492276Y-98218304D02*
X102492276Y-98123066D01*
X102492276Y-98123066D02*
X102539895Y-97980209D01*
X102539895Y-97980209D02*
X103111323Y-97408780D01*
X103111323Y-97408780D02*
X102492276Y-97408780D01*
X123991039Y-75930580D02*
X123895801Y-75930580D01*
X123895801Y-75930580D02*
X123800563Y-75882961D01*
X123800563Y-75882961D02*
X123752944Y-75835342D01*
X123752944Y-75835342D02*
X123705325Y-75740104D01*
X123705325Y-75740104D02*
X123657706Y-75549628D01*
X123657706Y-75549628D02*
X123657706Y-75311533D01*
X123657706Y-75311533D02*
X123705325Y-75121057D01*
X123705325Y-75121057D02*
X123752944Y-75025819D01*
X123752944Y-75025819D02*
X123800563Y-74978200D01*
X123800563Y-74978200D02*
X123895801Y-74930580D01*
X123895801Y-74930580D02*
X123991039Y-74930580D01*
X123991039Y-74930580D02*
X124086277Y-74978200D01*
X124086277Y-74978200D02*
X124133896Y-75025819D01*
X124133896Y-75025819D02*
X124181515Y-75121057D01*
X124181515Y-75121057D02*
X124229134Y-75311533D01*
X124229134Y-75311533D02*
X124229134Y-75549628D01*
X124229134Y-75549628D02*
X124181515Y-75740104D01*
X124181515Y-75740104D02*
X124133896Y-75835342D01*
X124133896Y-75835342D02*
X124086277Y-75882961D01*
X124086277Y-75882961D02*
X123991039Y-75930580D01*
X123229134Y-75025819D02*
X123181515Y-74978200D01*
X123181515Y-74978200D02*
X123229134Y-74930580D01*
X123229134Y-74930580D02*
X123276753Y-74978200D01*
X123276753Y-74978200D02*
X123229134Y-75025819D01*
X123229134Y-75025819D02*
X123229134Y-74930580D01*
X122705325Y-74930580D02*
X122514849Y-74930580D01*
X122514849Y-74930580D02*
X122419611Y-74978200D01*
X122419611Y-74978200D02*
X122371992Y-75025819D01*
X122371992Y-75025819D02*
X122276754Y-75168676D01*
X122276754Y-75168676D02*
X122229135Y-75359152D01*
X122229135Y-75359152D02*
X122229135Y-75740104D01*
X122229135Y-75740104D02*
X122276754Y-75835342D01*
X122276754Y-75835342D02*
X122324373Y-75882961D01*
X122324373Y-75882961D02*
X122419611Y-75930580D01*
X122419611Y-75930580D02*
X122610087Y-75930580D01*
X122610087Y-75930580D02*
X122705325Y-75882961D01*
X122705325Y-75882961D02*
X122752944Y-75835342D01*
X122752944Y-75835342D02*
X122800563Y-75740104D01*
X122800563Y-75740104D02*
X122800563Y-75502009D01*
X122800563Y-75502009D02*
X122752944Y-75406771D01*
X122752944Y-75406771D02*
X122705325Y-75359152D01*
X122705325Y-75359152D02*
X122610087Y-75311533D01*
X122610087Y-75311533D02*
X122419611Y-75311533D01*
X122419611Y-75311533D02*
X122324373Y-75359152D01*
X122324373Y-75359152D02*
X122276754Y-75406771D01*
X122276754Y-75406771D02*
X122229135Y-75502009D01*
X121371992Y-75930580D02*
X121562468Y-75930580D01*
X121562468Y-75930580D02*
X121657706Y-75882961D01*
X121657706Y-75882961D02*
X121705325Y-75835342D01*
X121705325Y-75835342D02*
X121800563Y-75692485D01*
X121800563Y-75692485D02*
X121848182Y-75502009D01*
X121848182Y-75502009D02*
X121848182Y-75121057D01*
X121848182Y-75121057D02*
X121800563Y-75025819D01*
X121800563Y-75025819D02*
X121752944Y-74978200D01*
X121752944Y-74978200D02*
X121657706Y-74930580D01*
X121657706Y-74930580D02*
X121467230Y-74930580D01*
X121467230Y-74930580D02*
X121371992Y-74978200D01*
X121371992Y-74978200D02*
X121324373Y-75025819D01*
X121324373Y-75025819D02*
X121276754Y-75121057D01*
X121276754Y-75121057D02*
X121276754Y-75359152D01*
X121276754Y-75359152D02*
X121324373Y-75454390D01*
X121324373Y-75454390D02*
X121371992Y-75502009D01*
X121371992Y-75502009D02*
X121467230Y-75549628D01*
X121467230Y-75549628D02*
X121657706Y-75549628D01*
X121657706Y-75549628D02*
X121752944Y-75502009D01*
X121752944Y-75502009D02*
X121800563Y-75454390D01*
X121800563Y-75454390D02*
X121848182Y-75359152D01*
X120895801Y-75930580D02*
X120895801Y-75740104D01*
X120514849Y-75930580D02*
X120514849Y-75740104D01*
X119943420Y-75502009D02*
X120038658Y-75549628D01*
X120038658Y-75549628D02*
X120086277Y-75597247D01*
X120086277Y-75597247D02*
X120133896Y-75692485D01*
X120133896Y-75692485D02*
X120133896Y-75740104D01*
X120133896Y-75740104D02*
X120086277Y-75835342D01*
X120086277Y-75835342D02*
X120038658Y-75882961D01*
X120038658Y-75882961D02*
X119943420Y-75930580D01*
X119943420Y-75930580D02*
X119752944Y-75930580D01*
X119752944Y-75930580D02*
X119657706Y-75882961D01*
X119657706Y-75882961D02*
X119610087Y-75835342D01*
X119610087Y-75835342D02*
X119562468Y-75740104D01*
X119562468Y-75740104D02*
X119562468Y-75692485D01*
X119562468Y-75692485D02*
X119610087Y-75597247D01*
X119610087Y-75597247D02*
X119657706Y-75549628D01*
X119657706Y-75549628D02*
X119752944Y-75502009D01*
X119752944Y-75502009D02*
X119943420Y-75502009D01*
X119943420Y-75502009D02*
X120038658Y-75454390D01*
X120038658Y-75454390D02*
X120086277Y-75406771D01*
X120086277Y-75406771D02*
X120133896Y-75311533D01*
X120133896Y-75311533D02*
X120133896Y-75121057D01*
X120133896Y-75121057D02*
X120086277Y-75025819D01*
X120086277Y-75025819D02*
X120038658Y-74978200D01*
X120038658Y-74978200D02*
X119943420Y-74930580D01*
X119943420Y-74930580D02*
X119752944Y-74930580D01*
X119752944Y-74930580D02*
X119657706Y-74978200D01*
X119657706Y-74978200D02*
X119610087Y-75025819D01*
X119610087Y-75025819D02*
X119562468Y-75121057D01*
X119562468Y-75121057D02*
X119562468Y-75311533D01*
X119562468Y-75311533D02*
X119610087Y-75406771D01*
X119610087Y-75406771D02*
X119657706Y-75454390D01*
X119657706Y-75454390D02*
X119752944Y-75502009D01*
X118943420Y-75930580D02*
X118848182Y-75930580D01*
X118848182Y-75930580D02*
X118752944Y-75882961D01*
X118752944Y-75882961D02*
X118705325Y-75835342D01*
X118705325Y-75835342D02*
X118657706Y-75740104D01*
X118657706Y-75740104D02*
X118610087Y-75549628D01*
X118610087Y-75549628D02*
X118610087Y-75311533D01*
X118610087Y-75311533D02*
X118657706Y-75121057D01*
X118657706Y-75121057D02*
X118705325Y-75025819D01*
X118705325Y-75025819D02*
X118752944Y-74978200D01*
X118752944Y-74978200D02*
X118848182Y-74930580D01*
X118848182Y-74930580D02*
X118943420Y-74930580D01*
X118943420Y-74930580D02*
X119038658Y-74978200D01*
X119038658Y-74978200D02*
X119086277Y-75025819D01*
X119086277Y-75025819D02*
X119133896Y-75121057D01*
X119133896Y-75121057D02*
X119181515Y-75311533D01*
X119181515Y-75311533D02*
X119181515Y-75549628D01*
X119181515Y-75549628D02*
X119133896Y-75740104D01*
X119133896Y-75740104D02*
X119086277Y-75835342D01*
X119086277Y-75835342D02*
X119038658Y-75882961D01*
X119038658Y-75882961D02*
X118943420Y-75930580D01*
X118276753Y-74930580D02*
X117752944Y-75597247D01*
X118276753Y-75597247D02*
X117752944Y-74930580D01*
X116848182Y-74930580D02*
X117419610Y-74930580D01*
X117133896Y-74930580D02*
X117133896Y-75930580D01*
X117133896Y-75930580D02*
X117229134Y-75787723D01*
X117229134Y-75787723D02*
X117324372Y-75692485D01*
X117324372Y-75692485D02*
X117419610Y-75644866D01*
X115991039Y-75930580D02*
X116181515Y-75930580D01*
X116181515Y-75930580D02*
X116276753Y-75882961D01*
X116276753Y-75882961D02*
X116324372Y-75835342D01*
X116324372Y-75835342D02*
X116419610Y-75692485D01*
X116419610Y-75692485D02*
X116467229Y-75502009D01*
X116467229Y-75502009D02*
X116467229Y-75121057D01*
X116467229Y-75121057D02*
X116419610Y-75025819D01*
X116419610Y-75025819D02*
X116371991Y-74978200D01*
X116371991Y-74978200D02*
X116276753Y-74930580D01*
X116276753Y-74930580D02*
X116086277Y-74930580D01*
X116086277Y-74930580D02*
X115991039Y-74978200D01*
X115991039Y-74978200D02*
X115943420Y-75025819D01*
X115943420Y-75025819D02*
X115895801Y-75121057D01*
X115895801Y-75121057D02*
X115895801Y-75359152D01*
X115895801Y-75359152D02*
X115943420Y-75454390D01*
X115943420Y-75454390D02*
X115991039Y-75502009D01*
X115991039Y-75502009D02*
X116086277Y-75549628D01*
X116086277Y-75549628D02*
X116276753Y-75549628D01*
X116276753Y-75549628D02*
X116371991Y-75502009D01*
X116371991Y-75502009D02*
X116419610Y-75454390D01*
X116419610Y-75454390D02*
X116467229Y-75359152D01*
X115276753Y-75930580D02*
X115181515Y-75930580D01*
X115181515Y-75930580D02*
X115086277Y-75882961D01*
X115086277Y-75882961D02*
X115038658Y-75835342D01*
X115038658Y-75835342D02*
X114991039Y-75740104D01*
X114991039Y-75740104D02*
X114943420Y-75549628D01*
X114943420Y-75549628D02*
X114943420Y-75311533D01*
X114943420Y-75311533D02*
X114991039Y-75121057D01*
X114991039Y-75121057D02*
X115038658Y-75025819D01*
X115038658Y-75025819D02*
X115086277Y-74978200D01*
X115086277Y-74978200D02*
X115181515Y-74930580D01*
X115181515Y-74930580D02*
X115276753Y-74930580D01*
X115276753Y-74930580D02*
X115371991Y-74978200D01*
X115371991Y-74978200D02*
X115419610Y-75025819D01*
X115419610Y-75025819D02*
X115467229Y-75121057D01*
X115467229Y-75121057D02*
X115514848Y-75311533D01*
X115514848Y-75311533D02*
X115514848Y-75549628D01*
X115514848Y-75549628D02*
X115467229Y-75740104D01*
X115467229Y-75740104D02*
X115419610Y-75835342D01*
X115419610Y-75835342D02*
X115371991Y-75882961D01*
X115371991Y-75882961D02*
X115276753Y-75930580D01*
X114229134Y-74549628D02*
X114276753Y-74597247D01*
X114276753Y-74597247D02*
X114371991Y-74740104D01*
X114371991Y-74740104D02*
X114419610Y-74835342D01*
X114419610Y-74835342D02*
X114467229Y-74978200D01*
X114467229Y-74978200D02*
X114514848Y-75216295D01*
X114514848Y-75216295D02*
X114514848Y-75406771D01*
X114514848Y-75406771D02*
X114467229Y-75644866D01*
X114467229Y-75644866D02*
X114419610Y-75787723D01*
X114419610Y-75787723D02*
X114371991Y-75882961D01*
X114371991Y-75882961D02*
X114276753Y-76025819D01*
X114276753Y-76025819D02*
X114229134Y-76073438D01*
X113276753Y-74930580D02*
X113610086Y-75406771D01*
X113848181Y-74930580D02*
X113848181Y-75930580D01*
X113848181Y-75930580D02*
X113467229Y-75930580D01*
X113467229Y-75930580D02*
X113371991Y-75882961D01*
X113371991Y-75882961D02*
X113324372Y-75835342D01*
X113324372Y-75835342D02*
X113276753Y-75740104D01*
X113276753Y-75740104D02*
X113276753Y-75597247D01*
X113276753Y-75597247D02*
X113324372Y-75502009D01*
X113324372Y-75502009D02*
X113371991Y-75454390D01*
X113371991Y-75454390D02*
X113467229Y-75406771D01*
X113467229Y-75406771D02*
X113848181Y-75406771D01*
X112324372Y-75882961D02*
X112419610Y-75930580D01*
X112419610Y-75930580D02*
X112562467Y-75930580D01*
X112562467Y-75930580D02*
X112705324Y-75882961D01*
X112705324Y-75882961D02*
X112800562Y-75787723D01*
X112800562Y-75787723D02*
X112848181Y-75692485D01*
X112848181Y-75692485D02*
X112895800Y-75502009D01*
X112895800Y-75502009D02*
X112895800Y-75359152D01*
X112895800Y-75359152D02*
X112848181Y-75168676D01*
X112848181Y-75168676D02*
X112800562Y-75073438D01*
X112800562Y-75073438D02*
X112705324Y-74978200D01*
X112705324Y-74978200D02*
X112562467Y-74930580D01*
X112562467Y-74930580D02*
X112467229Y-74930580D01*
X112467229Y-74930580D02*
X112324372Y-74978200D01*
X112324372Y-74978200D02*
X112276753Y-75025819D01*
X112276753Y-75025819D02*
X112276753Y-75359152D01*
X112276753Y-75359152D02*
X112467229Y-75359152D01*
X111514848Y-75454390D02*
X111371991Y-75406771D01*
X111371991Y-75406771D02*
X111324372Y-75359152D01*
X111324372Y-75359152D02*
X111276753Y-75263914D01*
X111276753Y-75263914D02*
X111276753Y-75121057D01*
X111276753Y-75121057D02*
X111324372Y-75025819D01*
X111324372Y-75025819D02*
X111371991Y-74978200D01*
X111371991Y-74978200D02*
X111467229Y-74930580D01*
X111467229Y-74930580D02*
X111848181Y-74930580D01*
X111848181Y-74930580D02*
X111848181Y-75930580D01*
X111848181Y-75930580D02*
X111514848Y-75930580D01*
X111514848Y-75930580D02*
X111419610Y-75882961D01*
X111419610Y-75882961D02*
X111371991Y-75835342D01*
X111371991Y-75835342D02*
X111324372Y-75740104D01*
X111324372Y-75740104D02*
X111324372Y-75644866D01*
X111324372Y-75644866D02*
X111371991Y-75549628D01*
X111371991Y-75549628D02*
X111419610Y-75502009D01*
X111419610Y-75502009D02*
X111514848Y-75454390D01*
X111514848Y-75454390D02*
X111848181Y-75454390D01*
X110943419Y-74549628D02*
X110895800Y-74597247D01*
X110895800Y-74597247D02*
X110800562Y-74740104D01*
X110800562Y-74740104D02*
X110752943Y-74835342D01*
X110752943Y-74835342D02*
X110705324Y-74978200D01*
X110705324Y-74978200D02*
X110657705Y-75216295D01*
X110657705Y-75216295D02*
X110657705Y-75406771D01*
X110657705Y-75406771D02*
X110705324Y-75644866D01*
X110705324Y-75644866D02*
X110752943Y-75787723D01*
X110752943Y-75787723D02*
X110800562Y-75882961D01*
X110800562Y-75882961D02*
X110895800Y-76025819D01*
X110895800Y-76025819D02*
X110943419Y-76073438D01*
X110181514Y-74930580D02*
X110181514Y-75930580D01*
X109705324Y-74930580D02*
X109705324Y-75930580D01*
X109705324Y-75930580D02*
X109324372Y-75930580D01*
X109324372Y-75930580D02*
X109229134Y-75882961D01*
X109229134Y-75882961D02*
X109181515Y-75835342D01*
X109181515Y-75835342D02*
X109133896Y-75740104D01*
X109133896Y-75740104D02*
X109133896Y-75597247D01*
X109133896Y-75597247D02*
X109181515Y-75502009D01*
X109181515Y-75502009D02*
X109229134Y-75454390D01*
X109229134Y-75454390D02*
X109324372Y-75406771D01*
X109324372Y-75406771D02*
X109705324Y-75406771D01*
X108752943Y-74978200D02*
X108610086Y-74930580D01*
X108610086Y-74930580D02*
X108371991Y-74930580D01*
X108371991Y-74930580D02*
X108276753Y-74978200D01*
X108276753Y-74978200D02*
X108229134Y-75025819D01*
X108229134Y-75025819D02*
X108181515Y-75121057D01*
X108181515Y-75121057D02*
X108181515Y-75216295D01*
X108181515Y-75216295D02*
X108229134Y-75311533D01*
X108229134Y-75311533D02*
X108276753Y-75359152D01*
X108276753Y-75359152D02*
X108371991Y-75406771D01*
X108371991Y-75406771D02*
X108562467Y-75454390D01*
X108562467Y-75454390D02*
X108657705Y-75502009D01*
X108657705Y-75502009D02*
X108705324Y-75549628D01*
X108705324Y-75549628D02*
X108752943Y-75644866D01*
X108752943Y-75644866D02*
X108752943Y-75740104D01*
X108752943Y-75740104D02*
X108705324Y-75835342D01*
X108705324Y-75835342D02*
X108657705Y-75882961D01*
X108657705Y-75882961D02*
X108562467Y-75930580D01*
X108562467Y-75930580D02*
X108324372Y-75930580D01*
X108324372Y-75930580D02*
X108181515Y-75882961D01*
D10*
X89495333Y-48111580D02*
X89447714Y-48159200D01*
X89447714Y-48159200D02*
X89304857Y-48206819D01*
X89304857Y-48206819D02*
X89209619Y-48206819D01*
X89209619Y-48206819D02*
X89066762Y-48159200D01*
X89066762Y-48159200D02*
X88971524Y-48063961D01*
X88971524Y-48063961D02*
X88923905Y-47968723D01*
X88923905Y-47968723D02*
X88876286Y-47778247D01*
X88876286Y-47778247D02*
X88876286Y-47635390D01*
X88876286Y-47635390D02*
X88923905Y-47444914D01*
X88923905Y-47444914D02*
X88971524Y-47349676D01*
X88971524Y-47349676D02*
X89066762Y-47254438D01*
X89066762Y-47254438D02*
X89209619Y-47206819D01*
X89209619Y-47206819D02*
X89304857Y-47206819D01*
X89304857Y-47206819D02*
X89447714Y-47254438D01*
X89447714Y-47254438D02*
X89495333Y-47302057D01*
X90447714Y-48206819D02*
X89876286Y-48206819D01*
X90162000Y-48206819D02*
X90162000Y-47206819D01*
X90162000Y-47206819D02*
X90066762Y-47349676D01*
X90066762Y-47349676D02*
X89971524Y-47444914D01*
X89971524Y-47444914D02*
X89876286Y-47492533D01*
X104822666Y-49238819D02*
X104822666Y-49953104D01*
X104822666Y-49953104D02*
X104775047Y-50095961D01*
X104775047Y-50095961D02*
X104679809Y-50191200D01*
X104679809Y-50191200D02*
X104536952Y-50238819D01*
X104536952Y-50238819D02*
X104441714Y-50238819D01*
X105822666Y-50238819D02*
X105251238Y-50238819D01*
X105536952Y-50238819D02*
X105536952Y-49238819D01*
X105536952Y-49238819D02*
X105441714Y-49381676D01*
X105441714Y-49381676D02*
X105346476Y-49476914D01*
X105346476Y-49476914D02*
X105251238Y-49524533D01*
X84859905Y-74946819D02*
X84859905Y-73946819D01*
X84859905Y-73946819D02*
X85098000Y-73946819D01*
X85098000Y-73946819D02*
X85240857Y-73994438D01*
X85240857Y-73994438D02*
X85336095Y-74089676D01*
X85336095Y-74089676D02*
X85383714Y-74184914D01*
X85383714Y-74184914D02*
X85431333Y-74375390D01*
X85431333Y-74375390D02*
X85431333Y-74518247D01*
X85431333Y-74518247D02*
X85383714Y-74708723D01*
X85383714Y-74708723D02*
X85336095Y-74803961D01*
X85336095Y-74803961D02*
X85240857Y-74899200D01*
X85240857Y-74899200D02*
X85098000Y-74946819D01*
X85098000Y-74946819D02*
X84859905Y-74946819D01*
X85764667Y-73946819D02*
X86383714Y-73946819D01*
X86383714Y-73946819D02*
X86050381Y-74327771D01*
X86050381Y-74327771D02*
X86193238Y-74327771D01*
X86193238Y-74327771D02*
X86288476Y-74375390D01*
X86288476Y-74375390D02*
X86336095Y-74423009D01*
X86336095Y-74423009D02*
X86383714Y-74518247D01*
X86383714Y-74518247D02*
X86383714Y-74756342D01*
X86383714Y-74756342D02*
X86336095Y-74851580D01*
X86336095Y-74851580D02*
X86288476Y-74899200D01*
X86288476Y-74899200D02*
X86193238Y-74946819D01*
X86193238Y-74946819D02*
X85907524Y-74946819D01*
X85907524Y-74946819D02*
X85812286Y-74899200D01*
X85812286Y-74899200D02*
X85764667Y-74851580D01*
X81526095Y-75316819D02*
X81526095Y-74316819D01*
X82097523Y-75316819D02*
X81668952Y-74745390D01*
X82097523Y-74316819D02*
X81526095Y-74888247D01*
X175958666Y-49238819D02*
X175958666Y-49953104D01*
X175958666Y-49953104D02*
X175911047Y-50095961D01*
X175911047Y-50095961D02*
X175815809Y-50191200D01*
X175815809Y-50191200D02*
X175672952Y-50238819D01*
X175672952Y-50238819D02*
X175577714Y-50238819D01*
X176911047Y-49238819D02*
X176434857Y-49238819D01*
X176434857Y-49238819D02*
X176387238Y-49715009D01*
X176387238Y-49715009D02*
X176434857Y-49667390D01*
X176434857Y-49667390D02*
X176530095Y-49619771D01*
X176530095Y-49619771D02*
X176768190Y-49619771D01*
X176768190Y-49619771D02*
X176863428Y-49667390D01*
X176863428Y-49667390D02*
X176911047Y-49715009D01*
X176911047Y-49715009D02*
X176958666Y-49810247D01*
X176958666Y-49810247D02*
X176958666Y-50048342D01*
X176958666Y-50048342D02*
X176911047Y-50143580D01*
X176911047Y-50143580D02*
X176863428Y-50191200D01*
X176863428Y-50191200D02*
X176768190Y-50238819D01*
X176768190Y-50238819D02*
X176530095Y-50238819D01*
X176530095Y-50238819D02*
X176434857Y-50191200D01*
X176434857Y-50191200D02*
X176387238Y-50143580D01*
X158272666Y-49492819D02*
X158272666Y-50207104D01*
X158272666Y-50207104D02*
X158225047Y-50349961D01*
X158225047Y-50349961D02*
X158129809Y-50445200D01*
X158129809Y-50445200D02*
X157986952Y-50492819D01*
X157986952Y-50492819D02*
X157891714Y-50492819D01*
X159177428Y-49826152D02*
X159177428Y-50492819D01*
X158939333Y-49445200D02*
X158701238Y-50159485D01*
X158701238Y-50159485D02*
X159320285Y-50159485D01*
D11*
X194846095Y-77999419D02*
X194846095Y-78808942D01*
X194846095Y-78808942D02*
X194893714Y-78904180D01*
X194893714Y-78904180D02*
X194941333Y-78951800D01*
X194941333Y-78951800D02*
X195036571Y-78999419D01*
X195036571Y-78999419D02*
X195227047Y-78999419D01*
X195227047Y-78999419D02*
X195322285Y-78951800D01*
X195322285Y-78951800D02*
X195369904Y-78904180D01*
X195369904Y-78904180D02*
X195417523Y-78808942D01*
X195417523Y-78808942D02*
X195417523Y-77999419D01*
X195798476Y-77999419D02*
X196417523Y-77999419D01*
X196417523Y-77999419D02*
X196084190Y-78380371D01*
X196084190Y-78380371D02*
X196227047Y-78380371D01*
X196227047Y-78380371D02*
X196322285Y-78427990D01*
X196322285Y-78427990D02*
X196369904Y-78475609D01*
X196369904Y-78475609D02*
X196417523Y-78570847D01*
X196417523Y-78570847D02*
X196417523Y-78808942D01*
X196417523Y-78808942D02*
X196369904Y-78904180D01*
X196369904Y-78904180D02*
X196322285Y-78951800D01*
X196322285Y-78951800D02*
X196227047Y-78999419D01*
X196227047Y-78999419D02*
X195941333Y-78999419D01*
X195941333Y-78999419D02*
X195846095Y-78951800D01*
X195846095Y-78951800D02*
X195798476Y-78904180D01*
D10*
X140382666Y-49238819D02*
X140382666Y-49953104D01*
X140382666Y-49953104D02*
X140335047Y-50095961D01*
X140335047Y-50095961D02*
X140239809Y-50191200D01*
X140239809Y-50191200D02*
X140096952Y-50238819D01*
X140096952Y-50238819D02*
X140001714Y-50238819D01*
X140763619Y-49238819D02*
X141382666Y-49238819D01*
X141382666Y-49238819D02*
X141049333Y-49619771D01*
X141049333Y-49619771D02*
X141192190Y-49619771D01*
X141192190Y-49619771D02*
X141287428Y-49667390D01*
X141287428Y-49667390D02*
X141335047Y-49715009D01*
X141335047Y-49715009D02*
X141382666Y-49810247D01*
X141382666Y-49810247D02*
X141382666Y-50048342D01*
X141382666Y-50048342D02*
X141335047Y-50143580D01*
X141335047Y-50143580D02*
X141287428Y-50191200D01*
X141287428Y-50191200D02*
X141192190Y-50238819D01*
X141192190Y-50238819D02*
X140906476Y-50238819D01*
X140906476Y-50238819D02*
X140811238Y-50191200D01*
X140811238Y-50191200D02*
X140763619Y-50143580D01*
X158011905Y-86432819D02*
X158011905Y-85432819D01*
X158011905Y-85432819D02*
X158250000Y-85432819D01*
X158250000Y-85432819D02*
X158392857Y-85480438D01*
X158392857Y-85480438D02*
X158488095Y-85575676D01*
X158488095Y-85575676D02*
X158535714Y-85670914D01*
X158535714Y-85670914D02*
X158583333Y-85861390D01*
X158583333Y-85861390D02*
X158583333Y-86004247D01*
X158583333Y-86004247D02*
X158535714Y-86194723D01*
X158535714Y-86194723D02*
X158488095Y-86289961D01*
X158488095Y-86289961D02*
X158392857Y-86385200D01*
X158392857Y-86385200D02*
X158250000Y-86432819D01*
X158250000Y-86432819D02*
X158011905Y-86432819D01*
X158964286Y-85528057D02*
X159011905Y-85480438D01*
X159011905Y-85480438D02*
X159107143Y-85432819D01*
X159107143Y-85432819D02*
X159345238Y-85432819D01*
X159345238Y-85432819D02*
X159440476Y-85480438D01*
X159440476Y-85480438D02*
X159488095Y-85528057D01*
X159488095Y-85528057D02*
X159535714Y-85623295D01*
X159535714Y-85623295D02*
X159535714Y-85718533D01*
X159535714Y-85718533D02*
X159488095Y-85861390D01*
X159488095Y-85861390D02*
X158916667Y-86432819D01*
X158916667Y-86432819D02*
X159535714Y-86432819D01*
X138501333Y-83132819D02*
X138168000Y-82656628D01*
X137929905Y-83132819D02*
X137929905Y-82132819D01*
X137929905Y-82132819D02*
X138310857Y-82132819D01*
X138310857Y-82132819D02*
X138406095Y-82180438D01*
X138406095Y-82180438D02*
X138453714Y-82228057D01*
X138453714Y-82228057D02*
X138501333Y-82323295D01*
X138501333Y-82323295D02*
X138501333Y-82466152D01*
X138501333Y-82466152D02*
X138453714Y-82561390D01*
X138453714Y-82561390D02*
X138406095Y-82609009D01*
X138406095Y-82609009D02*
X138310857Y-82656628D01*
X138310857Y-82656628D02*
X137929905Y-82656628D01*
X139453714Y-83132819D02*
X138882286Y-83132819D01*
X139168000Y-83132819D02*
X139168000Y-82132819D01*
X139168000Y-82132819D02*
X139072762Y-82275676D01*
X139072762Y-82275676D02*
X138977524Y-82370914D01*
X138977524Y-82370914D02*
X138882286Y-82418533D01*
D11*
X91931780Y-70593105D02*
X91122257Y-70593105D01*
X91122257Y-70593105D02*
X91027019Y-70640724D01*
X91027019Y-70640724D02*
X90979400Y-70688343D01*
X90979400Y-70688343D02*
X90931780Y-70783581D01*
X90931780Y-70783581D02*
X90931780Y-70974057D01*
X90931780Y-70974057D02*
X90979400Y-71069295D01*
X90979400Y-71069295D02*
X91027019Y-71116914D01*
X91027019Y-71116914D02*
X91122257Y-71164533D01*
X91122257Y-71164533D02*
X91931780Y-71164533D01*
X90931780Y-72164533D02*
X90931780Y-71593105D01*
X90931780Y-71878819D02*
X91931780Y-71878819D01*
X91931780Y-71878819D02*
X91788923Y-71783581D01*
X91788923Y-71783581D02*
X91693685Y-71688343D01*
X91693685Y-71688343D02*
X91646066Y-71593105D01*
X91931780Y-72783581D02*
X91931780Y-72878819D01*
X91931780Y-72878819D02*
X91884161Y-72974057D01*
X91884161Y-72974057D02*
X91836542Y-73021676D01*
X91836542Y-73021676D02*
X91741304Y-73069295D01*
X91741304Y-73069295D02*
X91550828Y-73116914D01*
X91550828Y-73116914D02*
X91312733Y-73116914D01*
X91312733Y-73116914D02*
X91122257Y-73069295D01*
X91122257Y-73069295D02*
X91027019Y-73021676D01*
X91027019Y-73021676D02*
X90979400Y-72974057D01*
X90979400Y-72974057D02*
X90931780Y-72878819D01*
X90931780Y-72878819D02*
X90931780Y-72783581D01*
X90931780Y-72783581D02*
X90979400Y-72688343D01*
X90979400Y-72688343D02*
X91027019Y-72640724D01*
X91027019Y-72640724D02*
X91122257Y-72593105D01*
X91122257Y-72593105D02*
X91312733Y-72545486D01*
X91312733Y-72545486D02*
X91550828Y-72545486D01*
X91550828Y-72545486D02*
X91741304Y-72593105D01*
X91741304Y-72593105D02*
X91836542Y-72640724D01*
X91836542Y-72640724D02*
X91884161Y-72688343D01*
X91884161Y-72688343D02*
X91931780Y-72783581D01*
X89519580Y-67931360D02*
X89519580Y-68121836D01*
X89519580Y-68121836D02*
X89471961Y-68217074D01*
X89471961Y-68217074D02*
X89376723Y-68312312D01*
X89376723Y-68312312D02*
X89186247Y-68359931D01*
X89186247Y-68359931D02*
X88852914Y-68359931D01*
X88852914Y-68359931D02*
X88662438Y-68312312D01*
X88662438Y-68312312D02*
X88567200Y-68217074D01*
X88567200Y-68217074D02*
X88519580Y-68121836D01*
X88519580Y-68121836D02*
X88519580Y-67931360D01*
X88519580Y-67931360D02*
X88567200Y-67836122D01*
X88567200Y-67836122D02*
X88662438Y-67740884D01*
X88662438Y-67740884D02*
X88852914Y-67693265D01*
X88852914Y-67693265D02*
X89186247Y-67693265D01*
X89186247Y-67693265D02*
X89376723Y-67740884D01*
X89376723Y-67740884D02*
X89471961Y-67836122D01*
X89471961Y-67836122D02*
X89519580Y-67931360D01*
X89519580Y-68788503D02*
X88710057Y-68788503D01*
X88710057Y-68788503D02*
X88614819Y-68836122D01*
X88614819Y-68836122D02*
X88567200Y-68883741D01*
X88567200Y-68883741D02*
X88519580Y-68978979D01*
X88519580Y-68978979D02*
X88519580Y-69169455D01*
X88519580Y-69169455D02*
X88567200Y-69264693D01*
X88567200Y-69264693D02*
X88614819Y-69312312D01*
X88614819Y-69312312D02*
X88710057Y-69359931D01*
X88710057Y-69359931D02*
X89519580Y-69359931D01*
X89519580Y-69693265D02*
X89519580Y-70264693D01*
X88519580Y-69978979D02*
X89519580Y-69978979D01*
X88900533Y-70598027D02*
X88900533Y-71359932D01*
X83169580Y-68185360D02*
X83169580Y-68375836D01*
X83169580Y-68375836D02*
X83121961Y-68471074D01*
X83121961Y-68471074D02*
X83026723Y-68566312D01*
X83026723Y-68566312D02*
X82836247Y-68613931D01*
X82836247Y-68613931D02*
X82502914Y-68613931D01*
X82502914Y-68613931D02*
X82312438Y-68566312D01*
X82312438Y-68566312D02*
X82217200Y-68471074D01*
X82217200Y-68471074D02*
X82169580Y-68375836D01*
X82169580Y-68375836D02*
X82169580Y-68185360D01*
X82169580Y-68185360D02*
X82217200Y-68090122D01*
X82217200Y-68090122D02*
X82312438Y-67994884D01*
X82312438Y-67994884D02*
X82502914Y-67947265D01*
X82502914Y-67947265D02*
X82836247Y-67947265D01*
X82836247Y-67947265D02*
X83026723Y-67994884D01*
X83026723Y-67994884D02*
X83121961Y-68090122D01*
X83121961Y-68090122D02*
X83169580Y-68185360D01*
X83169580Y-69042503D02*
X82360057Y-69042503D01*
X82360057Y-69042503D02*
X82264819Y-69090122D01*
X82264819Y-69090122D02*
X82217200Y-69137741D01*
X82217200Y-69137741D02*
X82169580Y-69232979D01*
X82169580Y-69232979D02*
X82169580Y-69423455D01*
X82169580Y-69423455D02*
X82217200Y-69518693D01*
X82217200Y-69518693D02*
X82264819Y-69566312D01*
X82264819Y-69566312D02*
X82360057Y-69613931D01*
X82360057Y-69613931D02*
X83169580Y-69613931D01*
X83169580Y-69947265D02*
X83169580Y-70518693D01*
X82169580Y-70232979D02*
X83169580Y-70232979D01*
X82550533Y-70852027D02*
X82550533Y-71613932D01*
X82169580Y-71232979D02*
X82931485Y-71232979D01*
X88519580Y-59612884D02*
X89519580Y-59612884D01*
X88519580Y-60089074D02*
X89519580Y-60089074D01*
X89519580Y-60089074D02*
X88519580Y-60660502D01*
X88519580Y-60660502D02*
X89519580Y-60660502D01*
X88900533Y-61136693D02*
X88900533Y-61898598D01*
X82169580Y-59612884D02*
X83169580Y-59612884D01*
X82169580Y-60089074D02*
X83169580Y-60089074D01*
X83169580Y-60089074D02*
X82169580Y-60660502D01*
X82169580Y-60660502D02*
X83169580Y-60660502D01*
X82550533Y-61136693D02*
X82550533Y-61898598D01*
X82169580Y-61517645D02*
X82931485Y-61517645D01*
D10*
X122936666Y-49238819D02*
X122936666Y-49953104D01*
X122936666Y-49953104D02*
X122889047Y-50095961D01*
X122889047Y-50095961D02*
X122793809Y-50191200D01*
X122793809Y-50191200D02*
X122650952Y-50238819D01*
X122650952Y-50238819D02*
X122555714Y-50238819D01*
X123365238Y-49334057D02*
X123412857Y-49286438D01*
X123412857Y-49286438D02*
X123508095Y-49238819D01*
X123508095Y-49238819D02*
X123746190Y-49238819D01*
X123746190Y-49238819D02*
X123841428Y-49286438D01*
X123841428Y-49286438D02*
X123889047Y-49334057D01*
X123889047Y-49334057D02*
X123936666Y-49429295D01*
X123936666Y-49429295D02*
X123936666Y-49524533D01*
X123936666Y-49524533D02*
X123889047Y-49667390D01*
X123889047Y-49667390D02*
X123317619Y-50238819D01*
X123317619Y-50238819D02*
X123936666Y-50238819D01*
D12*
%TO.C,J7*%
X88756000Y-44086000D02*
X88756000Y-45466000D01*
X87376000Y-44086000D02*
X88756000Y-44086000D01*
X86106000Y-44086000D02*
X83456000Y-44086000D01*
X86106000Y-44086000D02*
X86106000Y-46846000D01*
X83456000Y-44086000D02*
X83456000Y-46846000D01*
X86106000Y-46846000D02*
X83456000Y-46846000D01*
%TO.C,D1*%
X141993000Y-85288000D02*
X144853000Y-85288000D01*
X144853000Y-83368000D02*
X141993000Y-83368000D01*
X144853000Y-85288000D02*
X144853000Y-83368000D01*
%TO.C,R2*%
X154220936Y-83593000D02*
X154675064Y-83593000D01*
X154220936Y-85063000D02*
X154675064Y-85063000D01*
%TO.C,J6*%
X181868000Y-45682000D02*
X182478000Y-45682000D01*
X181868000Y-46982000D02*
X182478000Y-46982000D01*
X182478000Y-44182000D02*
X182478000Y-47682000D01*
X182478000Y-47682000D02*
X184428000Y-47682000D01*
X184428000Y-47682000D02*
X184428000Y-48292000D01*
X184828000Y-44682000D02*
X184828000Y-44182000D01*
X184928000Y-44182000D02*
X184928000Y-44682000D01*
X185028000Y-44182000D02*
X185028000Y-44682000D01*
X185028000Y-44682000D02*
X184828000Y-44682000D01*
X186828000Y-44682000D02*
X186828000Y-44182000D01*
X186928000Y-44182000D02*
X186928000Y-44682000D01*
X187028000Y-44182000D02*
X187028000Y-44682000D01*
X187028000Y-44682000D02*
X186828000Y-44682000D01*
X188828000Y-44682000D02*
X188828000Y-44182000D01*
X188928000Y-44182000D02*
X188928000Y-44682000D01*
X189028000Y-44182000D02*
X189028000Y-44682000D01*
X189028000Y-44682000D02*
X188828000Y-44682000D01*
X190828000Y-44682000D02*
X190828000Y-44182000D01*
X190928000Y-44182000D02*
X190928000Y-44682000D01*
X191028000Y-44182000D02*
X191028000Y-44682000D01*
X191028000Y-44682000D02*
X190828000Y-44682000D01*
X192828000Y-44682000D02*
X192828000Y-44182000D01*
X192928000Y-44182000D02*
X192928000Y-44682000D01*
X193028000Y-44182000D02*
X193028000Y-44682000D01*
X193028000Y-44682000D02*
X192828000Y-44682000D01*
X193428000Y-47682000D02*
X195378000Y-47682000D01*
X193428000Y-48292000D02*
X193428000Y-47682000D01*
X194228000Y-48292000D02*
X194228000Y-48492000D01*
X194228000Y-48392000D02*
X194528000Y-48392000D01*
X194228000Y-48492000D02*
X194528000Y-48492000D01*
X194528000Y-48492000D02*
X194528000Y-48292000D01*
X195038000Y-48592000D02*
X196288000Y-48592000D01*
X195378000Y-44182000D02*
X182478000Y-44182000D01*
X195378000Y-47682000D02*
X195378000Y-44182000D01*
X195988000Y-45682000D02*
X195378000Y-45682000D01*
X195988000Y-46982000D02*
X195378000Y-46982000D01*
X196288000Y-48592000D02*
X196288000Y-47342000D01*
X195988000Y-48292000D02*
X181868000Y-48292000D01*
X181868000Y-43572000D01*
X195988000Y-43572000D01*
X195988000Y-48292000D01*
%TO.C,SW2*%
X153402000Y-90156000D02*
X153402000Y-92666000D01*
X153402000Y-90156000D02*
X165622000Y-90156000D01*
X153402000Y-94966000D02*
X153402000Y-97566000D01*
X153402000Y-99866000D02*
X153402000Y-102376000D01*
X165622000Y-90156000D02*
X165622000Y-92666000D01*
X165622000Y-94966000D02*
X165622000Y-97566000D01*
X165622000Y-99866000D02*
X165622000Y-102376000D01*
X165622000Y-102376000D02*
X153402000Y-102376000D01*
X163062000Y-96266000D02*
G75*
G02*
X155962000Y-96266000I-3550000J0D01*
G01*
X155962000Y-96266000D02*
G75*
G02*
X163062000Y-96266000I3550000J0D01*
G01*
%TO.C,U2*%
D11*
X130962400Y-91211400D02*
X102743000Y-91211400D01*
X102743000Y-77876400D01*
X130962400Y-77876400D01*
X130962400Y-91211400D01*
X131622800Y-96520000D02*
X101650800Y-96520000D01*
X101650800Y-72644000D01*
X131622800Y-72644000D01*
X131622800Y-96520000D01*
%TO.C,U6*%
X128270000Y-51816000D02*
X143002000Y-51816000D01*
X143002000Y-71628000D01*
X128270000Y-71628000D01*
X128270000Y-51816000D01*
D12*
%TO.C,C1*%
X81716302Y-49755000D02*
X82516302Y-49755000D01*
X82116302Y-49355000D02*
X82116302Y-50155000D01*
X86126000Y-47990000D02*
X86126000Y-56150000D01*
X86166000Y-47990000D02*
X86166000Y-56150000D01*
X86206000Y-47991000D02*
X86206000Y-56149000D01*
X86246000Y-47992000D02*
X86246000Y-56148000D01*
X86286000Y-47993000D02*
X86286000Y-56147000D01*
X86326000Y-47995000D02*
X86326000Y-56145000D01*
X86366000Y-47997000D02*
X86366000Y-51030000D01*
X86366000Y-53110000D02*
X86366000Y-56143000D01*
X86406000Y-48000000D02*
X86406000Y-51030000D01*
X86406000Y-53110000D02*
X86406000Y-56140000D01*
X86446000Y-48002000D02*
X86446000Y-51030000D01*
X86446000Y-53110000D02*
X86446000Y-56138000D01*
X86486000Y-48006000D02*
X86486000Y-51030000D01*
X86486000Y-53110000D02*
X86486000Y-56134000D01*
X86526000Y-48009000D02*
X86526000Y-51030000D01*
X86526000Y-53110000D02*
X86526000Y-56131000D01*
X86566000Y-48014000D02*
X86566000Y-51030000D01*
X86566000Y-53110000D02*
X86566000Y-56126000D01*
X86606000Y-48018000D02*
X86606000Y-51030000D01*
X86606000Y-53110000D02*
X86606000Y-56122000D01*
X86646000Y-48023000D02*
X86646000Y-51030000D01*
X86646000Y-53110000D02*
X86646000Y-56117000D01*
X86686000Y-48028000D02*
X86686000Y-51030000D01*
X86686000Y-53110000D02*
X86686000Y-56112000D01*
X86726000Y-48034000D02*
X86726000Y-51030000D01*
X86726000Y-53110000D02*
X86726000Y-56106000D01*
X86766000Y-48040000D02*
X86766000Y-51030000D01*
X86766000Y-53110000D02*
X86766000Y-56100000D01*
X86806000Y-48047000D02*
X86806000Y-51030000D01*
X86806000Y-53110000D02*
X86806000Y-56093000D01*
X86846000Y-48053000D02*
X86846000Y-51030000D01*
X86846000Y-53110000D02*
X86846000Y-56087000D01*
X86886000Y-48061000D02*
X86886000Y-51030000D01*
X86886000Y-53110000D02*
X86886000Y-56079000D01*
X86926000Y-48068000D02*
X86926000Y-51030000D01*
X86926000Y-53110000D02*
X86926000Y-56072000D01*
X86966000Y-48077000D02*
X86966000Y-51030000D01*
X86966000Y-53110000D02*
X86966000Y-56063000D01*
X87006000Y-48085000D02*
X87006000Y-51030000D01*
X87006000Y-53110000D02*
X87006000Y-56055000D01*
X87046000Y-48094000D02*
X87046000Y-51030000D01*
X87046000Y-53110000D02*
X87046000Y-56046000D01*
X87086000Y-48103000D02*
X87086000Y-51030000D01*
X87086000Y-53110000D02*
X87086000Y-56037000D01*
X87126000Y-48113000D02*
X87126000Y-51030000D01*
X87126000Y-53110000D02*
X87126000Y-56027000D01*
X87166000Y-48123000D02*
X87166000Y-51030000D01*
X87166000Y-53110000D02*
X87166000Y-56017000D01*
X87206000Y-48134000D02*
X87206000Y-51030000D01*
X87206000Y-53110000D02*
X87206000Y-56006000D01*
X87246000Y-48145000D02*
X87246000Y-51030000D01*
X87246000Y-53110000D02*
X87246000Y-55995000D01*
X87286000Y-48157000D02*
X87286000Y-51030000D01*
X87286000Y-53110000D02*
X87286000Y-55983000D01*
X87326000Y-48169000D02*
X87326000Y-51030000D01*
X87326000Y-53110000D02*
X87326000Y-55971000D01*
X87366000Y-48181000D02*
X87366000Y-51030000D01*
X87366000Y-53110000D02*
X87366000Y-55959000D01*
X87406000Y-48194000D02*
X87406000Y-51030000D01*
X87406000Y-53110000D02*
X87406000Y-55946000D01*
X87446000Y-48207000D02*
X87446000Y-51030000D01*
X87446000Y-53110000D02*
X87446000Y-55933000D01*
X87486000Y-48221000D02*
X87486000Y-51030000D01*
X87486000Y-53110000D02*
X87486000Y-55919000D01*
X87526000Y-48235000D02*
X87526000Y-51030000D01*
X87526000Y-53110000D02*
X87526000Y-55905000D01*
X87566000Y-48250000D02*
X87566000Y-51030000D01*
X87566000Y-53110000D02*
X87566000Y-55890000D01*
X87606000Y-48265000D02*
X87606000Y-51030000D01*
X87606000Y-53110000D02*
X87606000Y-55875000D01*
X87646000Y-48281000D02*
X87646000Y-51030000D01*
X87646000Y-53110000D02*
X87646000Y-55859000D01*
X87686000Y-48297000D02*
X87686000Y-51030000D01*
X87686000Y-53110000D02*
X87686000Y-55843000D01*
X87726000Y-48313000D02*
X87726000Y-51030000D01*
X87726000Y-53110000D02*
X87726000Y-55827000D01*
X87766000Y-48330000D02*
X87766000Y-51030000D01*
X87766000Y-53110000D02*
X87766000Y-55810000D01*
X87806000Y-48348000D02*
X87806000Y-51030000D01*
X87806000Y-53110000D02*
X87806000Y-55792000D01*
X87846000Y-48366000D02*
X87846000Y-51030000D01*
X87846000Y-53110000D02*
X87846000Y-55774000D01*
X87886000Y-48385000D02*
X87886000Y-51030000D01*
X87886000Y-53110000D02*
X87886000Y-55755000D01*
X87926000Y-48404000D02*
X87926000Y-51030000D01*
X87926000Y-53110000D02*
X87926000Y-55736000D01*
X87966000Y-48424000D02*
X87966000Y-51030000D01*
X87966000Y-53110000D02*
X87966000Y-55716000D01*
X88006000Y-48444000D02*
X88006000Y-51030000D01*
X88006000Y-53110000D02*
X88006000Y-55696000D01*
X88046000Y-48465000D02*
X88046000Y-51030000D01*
X88046000Y-53110000D02*
X88046000Y-55675000D01*
X88086000Y-48486000D02*
X88086000Y-51030000D01*
X88086000Y-53110000D02*
X88086000Y-55654000D01*
X88126000Y-48508000D02*
X88126000Y-51030000D01*
X88126000Y-53110000D02*
X88126000Y-55632000D01*
X88166000Y-48531000D02*
X88166000Y-51030000D01*
X88166000Y-53110000D02*
X88166000Y-55609000D01*
X88206000Y-48554000D02*
X88206000Y-51030000D01*
X88206000Y-53110000D02*
X88206000Y-55586000D01*
X88246000Y-48577000D02*
X88246000Y-51030000D01*
X88246000Y-53110000D02*
X88246000Y-55563000D01*
X88286000Y-48602000D02*
X88286000Y-51030000D01*
X88286000Y-53110000D02*
X88286000Y-55538000D01*
X88326000Y-48627000D02*
X88326000Y-51030000D01*
X88326000Y-53110000D02*
X88326000Y-55513000D01*
X88366000Y-48652000D02*
X88366000Y-51030000D01*
X88366000Y-53110000D02*
X88366000Y-55488000D01*
X88406000Y-48678000D02*
X88406000Y-51030000D01*
X88406000Y-53110000D02*
X88406000Y-55462000D01*
X88446000Y-48705000D02*
X88446000Y-55435000D01*
X88486000Y-48733000D02*
X88486000Y-55407000D01*
X88526000Y-48761000D02*
X88526000Y-55379000D01*
X88566000Y-48790000D02*
X88566000Y-55350000D01*
X88606000Y-48820000D02*
X88606000Y-55320000D01*
X88646000Y-48851000D02*
X88646000Y-55289000D01*
X88686000Y-48882000D02*
X88686000Y-55258000D01*
X88726000Y-48914000D02*
X88726000Y-55226000D01*
X88766000Y-48947000D02*
X88766000Y-55193000D01*
X88806000Y-48981000D02*
X88806000Y-55159000D01*
X88846000Y-49015000D02*
X88846000Y-55125000D01*
X88886000Y-49051000D02*
X88886000Y-55089000D01*
X88926000Y-49088000D02*
X88926000Y-55052000D01*
X88966000Y-49125000D02*
X88966000Y-55015000D01*
X89006000Y-49164000D02*
X89006000Y-54976000D01*
X89046000Y-49203000D02*
X89046000Y-54937000D01*
X89086000Y-49244000D02*
X89086000Y-54896000D01*
X89126000Y-49286000D02*
X89126000Y-54854000D01*
X89166000Y-49329000D02*
X89166000Y-54811000D01*
X89206000Y-49374000D02*
X89206000Y-54766000D01*
X89246000Y-49419000D02*
X89246000Y-54721000D01*
X89286000Y-49466000D02*
X89286000Y-54674000D01*
X89326000Y-49515000D02*
X89326000Y-54625000D01*
X89366000Y-49565000D02*
X89366000Y-54575000D01*
X89406000Y-49617000D02*
X89406000Y-54523000D01*
X89446000Y-49670000D02*
X89446000Y-54470000D01*
X89486000Y-49726000D02*
X89486000Y-54414000D01*
X89526000Y-49783000D02*
X89526000Y-54357000D01*
X89566000Y-49843000D02*
X89566000Y-54297000D01*
X89606000Y-49905000D02*
X89606000Y-54235000D01*
X89646000Y-49969000D02*
X89646000Y-54171000D01*
X89686000Y-50036000D02*
X89686000Y-54104000D01*
X89726000Y-50106000D02*
X89726000Y-54034000D01*
X89766000Y-50180000D02*
X89766000Y-53960000D01*
X89806000Y-50257000D02*
X89806000Y-53883000D01*
X89846000Y-50339000D02*
X89846000Y-53801000D01*
X89886000Y-50426000D02*
X89886000Y-53714000D01*
X89926000Y-50518000D02*
X89926000Y-53622000D01*
X89966000Y-50617000D02*
X89966000Y-53523000D01*
X90006000Y-50724000D02*
X90006000Y-53416000D01*
X90046000Y-50842000D02*
X90046000Y-53298000D01*
X90086000Y-50973000D02*
X90086000Y-53167000D01*
X90126000Y-51123000D02*
X90126000Y-53017000D01*
X90166000Y-51302000D02*
X90166000Y-52838000D01*
X90206000Y-51537000D02*
X90206000Y-52603000D01*
X90246000Y-52070000D02*
G75*
G02*
X82006000Y-52070000I-4120000J0D01*
G01*
X82006000Y-52070000D02*
G75*
G02*
X90246000Y-52070000I4120000J0D01*
G01*
%TO.C,U4*%
D11*
X92710000Y-51816000D02*
X107442000Y-51816000D01*
X107442000Y-71628000D01*
X92710000Y-71628000D01*
X92710000Y-51816000D01*
D12*
%TO.C,J1*%
X93000000Y-45682000D02*
X93610000Y-45682000D01*
X93000000Y-46982000D02*
X93610000Y-46982000D01*
X93610000Y-44182000D02*
X93610000Y-47682000D01*
X93610000Y-47682000D02*
X95560000Y-47682000D01*
X95560000Y-47682000D02*
X95560000Y-48292000D01*
X95960000Y-44682000D02*
X95960000Y-44182000D01*
X96060000Y-44182000D02*
X96060000Y-44682000D01*
X96160000Y-44182000D02*
X96160000Y-44682000D01*
X96160000Y-44682000D02*
X95960000Y-44682000D01*
X97960000Y-44682000D02*
X97960000Y-44182000D01*
X98060000Y-44182000D02*
X98060000Y-44682000D01*
X98160000Y-44182000D02*
X98160000Y-44682000D01*
X98160000Y-44682000D02*
X97960000Y-44682000D01*
X99960000Y-44682000D02*
X99960000Y-44182000D01*
X100060000Y-44182000D02*
X100060000Y-44682000D01*
X100160000Y-44182000D02*
X100160000Y-44682000D01*
X100160000Y-44682000D02*
X99960000Y-44682000D01*
X101960000Y-44682000D02*
X101960000Y-44182000D01*
X102060000Y-44182000D02*
X102060000Y-44682000D01*
X102160000Y-44182000D02*
X102160000Y-44682000D01*
X102160000Y-44682000D02*
X101960000Y-44682000D01*
X103960000Y-44682000D02*
X103960000Y-44182000D01*
X104060000Y-44182000D02*
X104060000Y-44682000D01*
X104160000Y-44182000D02*
X104160000Y-44682000D01*
X104160000Y-44682000D02*
X103960000Y-44682000D01*
X104560000Y-47682000D02*
X106510000Y-47682000D01*
X104560000Y-48292000D02*
X104560000Y-47682000D01*
X105360000Y-48292000D02*
X105360000Y-48492000D01*
X105360000Y-48392000D02*
X105660000Y-48392000D01*
X105360000Y-48492000D02*
X105660000Y-48492000D01*
X105660000Y-48492000D02*
X105660000Y-48292000D01*
X106170000Y-48592000D02*
X107420000Y-48592000D01*
X106510000Y-44182000D02*
X93610000Y-44182000D01*
X106510000Y-47682000D02*
X106510000Y-44182000D01*
X107120000Y-45682000D02*
X106510000Y-45682000D01*
X107120000Y-46982000D02*
X106510000Y-46982000D01*
X107420000Y-48592000D02*
X107420000Y-47342000D01*
X107120000Y-48292000D02*
X93000000Y-48292000D01*
X93000000Y-43572000D01*
X107120000Y-43572000D01*
X107120000Y-48292000D01*
%TO.C,U7*%
D11*
X146050000Y-51816000D02*
X160782000Y-51816000D01*
X160782000Y-71628000D01*
X146050000Y-71628000D01*
X146050000Y-51816000D01*
D12*
%TO.C,D3*%
X82878000Y-75492000D02*
X88318000Y-75492000D01*
X82878000Y-75622000D02*
X82878000Y-75492000D01*
X82878000Y-78302000D02*
X82878000Y-78432000D01*
X82878000Y-78432000D02*
X88318000Y-78432000D01*
X83658000Y-75492000D02*
X83658000Y-78432000D01*
X83778000Y-75492000D02*
X83778000Y-78432000D01*
X83898000Y-75492000D02*
X83898000Y-78432000D01*
X88318000Y-75492000D02*
X88318000Y-75622000D01*
X88318000Y-78432000D02*
X88318000Y-78302000D01*
%TO.C,J5*%
X164216000Y-45682000D02*
X164826000Y-45682000D01*
X164216000Y-46982000D02*
X164826000Y-46982000D01*
X164826000Y-44182000D02*
X164826000Y-47682000D01*
X164826000Y-47682000D02*
X166776000Y-47682000D01*
X166776000Y-47682000D02*
X166776000Y-48292000D01*
X167176000Y-44682000D02*
X167176000Y-44182000D01*
X167276000Y-44182000D02*
X167276000Y-44682000D01*
X167376000Y-44182000D02*
X167376000Y-44682000D01*
X167376000Y-44682000D02*
X167176000Y-44682000D01*
X169176000Y-44682000D02*
X169176000Y-44182000D01*
X169276000Y-44182000D02*
X169276000Y-44682000D01*
X169376000Y-44182000D02*
X169376000Y-44682000D01*
X169376000Y-44682000D02*
X169176000Y-44682000D01*
X171176000Y-44682000D02*
X171176000Y-44182000D01*
X171276000Y-44182000D02*
X171276000Y-44682000D01*
X171376000Y-44182000D02*
X171376000Y-44682000D01*
X171376000Y-44682000D02*
X171176000Y-44682000D01*
X173176000Y-44682000D02*
X173176000Y-44182000D01*
X173276000Y-44182000D02*
X173276000Y-44682000D01*
X173376000Y-44182000D02*
X173376000Y-44682000D01*
X173376000Y-44682000D02*
X173176000Y-44682000D01*
X175176000Y-44682000D02*
X175176000Y-44182000D01*
X175276000Y-44182000D02*
X175276000Y-44682000D01*
X175376000Y-44182000D02*
X175376000Y-44682000D01*
X175376000Y-44682000D02*
X175176000Y-44682000D01*
X175776000Y-47682000D02*
X177726000Y-47682000D01*
X175776000Y-48292000D02*
X175776000Y-47682000D01*
X176576000Y-48292000D02*
X176576000Y-48492000D01*
X176576000Y-48392000D02*
X176876000Y-48392000D01*
X176576000Y-48492000D02*
X176876000Y-48492000D01*
X176876000Y-48492000D02*
X176876000Y-48292000D01*
X177386000Y-48592000D02*
X178636000Y-48592000D01*
X177726000Y-44182000D02*
X164826000Y-44182000D01*
X177726000Y-47682000D02*
X177726000Y-44182000D01*
X178336000Y-45682000D02*
X177726000Y-45682000D01*
X178336000Y-46982000D02*
X177726000Y-46982000D01*
X178636000Y-48592000D02*
X178636000Y-47342000D01*
X178336000Y-48292000D02*
X164216000Y-48292000D01*
X164216000Y-43572000D01*
X178336000Y-43572000D01*
X178336000Y-48292000D01*
%TO.C,J4*%
X146308000Y-45928000D02*
X146918000Y-45928000D01*
X146308000Y-47228000D02*
X146918000Y-47228000D01*
X146918000Y-44428000D02*
X146918000Y-47928000D01*
X146918000Y-47928000D02*
X148868000Y-47928000D01*
X148868000Y-47928000D02*
X148868000Y-48538000D01*
X149268000Y-44928000D02*
X149268000Y-44428000D01*
X149368000Y-44428000D02*
X149368000Y-44928000D01*
X149468000Y-44428000D02*
X149468000Y-44928000D01*
X149468000Y-44928000D02*
X149268000Y-44928000D01*
X151268000Y-44928000D02*
X151268000Y-44428000D01*
X151368000Y-44428000D02*
X151368000Y-44928000D01*
X151468000Y-44428000D02*
X151468000Y-44928000D01*
X151468000Y-44928000D02*
X151268000Y-44928000D01*
X153268000Y-44928000D02*
X153268000Y-44428000D01*
X153368000Y-44428000D02*
X153368000Y-44928000D01*
X153468000Y-44428000D02*
X153468000Y-44928000D01*
X153468000Y-44928000D02*
X153268000Y-44928000D01*
X155268000Y-44928000D02*
X155268000Y-44428000D01*
X155368000Y-44428000D02*
X155368000Y-44928000D01*
X155468000Y-44428000D02*
X155468000Y-44928000D01*
X155468000Y-44928000D02*
X155268000Y-44928000D01*
X157268000Y-44928000D02*
X157268000Y-44428000D01*
X157368000Y-44428000D02*
X157368000Y-44928000D01*
X157468000Y-44428000D02*
X157468000Y-44928000D01*
X157468000Y-44928000D02*
X157268000Y-44928000D01*
X157868000Y-47928000D02*
X159818000Y-47928000D01*
X157868000Y-48538000D02*
X157868000Y-47928000D01*
X158668000Y-48538000D02*
X158668000Y-48738000D01*
X158668000Y-48638000D02*
X158968000Y-48638000D01*
X158668000Y-48738000D02*
X158968000Y-48738000D01*
X158968000Y-48738000D02*
X158968000Y-48538000D01*
X159478000Y-48838000D02*
X160728000Y-48838000D01*
X159818000Y-44428000D02*
X146918000Y-44428000D01*
X159818000Y-47928000D02*
X159818000Y-44428000D01*
X160428000Y-45928000D02*
X159818000Y-45928000D01*
X160428000Y-47228000D02*
X159818000Y-47228000D01*
X160728000Y-48838000D02*
X160728000Y-47588000D01*
X160428000Y-48538000D02*
X146308000Y-48538000D01*
X146308000Y-43818000D01*
X160428000Y-43818000D01*
X160428000Y-48538000D01*
%TO.C,U3*%
D11*
X169628000Y-79542000D02*
X197148000Y-79542000D01*
X197148000Y-106142000D01*
X169628000Y-106142000D01*
X169628000Y-79542000D01*
X175528000Y-84672000D02*
X191088000Y-84672000D01*
X191088000Y-96852000D01*
X175528000Y-96852000D01*
X175528000Y-84672000D01*
X180223000Y-102392000D02*
X186353000Y-102392000D01*
X186353000Y-106182000D01*
X180223000Y-106182000D01*
X180223000Y-102392000D01*
X194784006Y-101034291D02*
G75*
G02*
X194111994Y-101034291I-336006J0D01*
G01*
X194111994Y-101034291D02*
G75*
G02*
X194784006Y-101034291I336006J0D01*
G01*
X195850906Y-101062000D02*
G75*
G02*
X193065094Y-101062000I-1392906J0D01*
G01*
X193065094Y-101062000D02*
G75*
G02*
X195850906Y-101062000I1392906J0D01*
G01*
X195949841Y-81842000D02*
G75*
G02*
X193286159Y-81842000I-1331841J0D01*
G01*
X193286159Y-81842000D02*
G75*
G02*
X195949841Y-81842000I1331841J0D01*
G01*
D12*
%TO.C,J3*%
X128656000Y-45682000D02*
X129266000Y-45682000D01*
X128656000Y-46982000D02*
X129266000Y-46982000D01*
X129266000Y-44182000D02*
X129266000Y-47682000D01*
X129266000Y-47682000D02*
X131216000Y-47682000D01*
X131216000Y-47682000D02*
X131216000Y-48292000D01*
X131616000Y-44682000D02*
X131616000Y-44182000D01*
X131716000Y-44182000D02*
X131716000Y-44682000D01*
X131816000Y-44182000D02*
X131816000Y-44682000D01*
X131816000Y-44682000D02*
X131616000Y-44682000D01*
X133616000Y-44682000D02*
X133616000Y-44182000D01*
X133716000Y-44182000D02*
X133716000Y-44682000D01*
X133816000Y-44182000D02*
X133816000Y-44682000D01*
X133816000Y-44682000D02*
X133616000Y-44682000D01*
X135616000Y-44682000D02*
X135616000Y-44182000D01*
X135716000Y-44182000D02*
X135716000Y-44682000D01*
X135816000Y-44182000D02*
X135816000Y-44682000D01*
X135816000Y-44682000D02*
X135616000Y-44682000D01*
X137616000Y-44682000D02*
X137616000Y-44182000D01*
X137716000Y-44182000D02*
X137716000Y-44682000D01*
X137816000Y-44182000D02*
X137816000Y-44682000D01*
X137816000Y-44682000D02*
X137616000Y-44682000D01*
X139616000Y-44682000D02*
X139616000Y-44182000D01*
X139716000Y-44182000D02*
X139716000Y-44682000D01*
X139816000Y-44182000D02*
X139816000Y-44682000D01*
X139816000Y-44682000D02*
X139616000Y-44682000D01*
X140216000Y-47682000D02*
X142166000Y-47682000D01*
X140216000Y-48292000D02*
X140216000Y-47682000D01*
X141016000Y-48292000D02*
X141016000Y-48492000D01*
X141016000Y-48392000D02*
X141316000Y-48392000D01*
X141016000Y-48492000D02*
X141316000Y-48492000D01*
X141316000Y-48492000D02*
X141316000Y-48292000D01*
X141826000Y-48592000D02*
X143076000Y-48592000D01*
X142166000Y-44182000D02*
X129266000Y-44182000D01*
X142166000Y-47682000D02*
X142166000Y-44182000D01*
X142776000Y-45682000D02*
X142166000Y-45682000D01*
X142776000Y-46982000D02*
X142166000Y-46982000D01*
X143076000Y-48592000D02*
X143076000Y-47342000D01*
X142776000Y-48292000D02*
X128656000Y-48292000D01*
X128656000Y-43572000D01*
X142776000Y-43572000D01*
X142776000Y-48292000D01*
%TO.C,SW1*%
X135776000Y-89862000D02*
X135776000Y-92372000D01*
X135776000Y-89862000D02*
X147996000Y-89862000D01*
X135776000Y-94672000D02*
X135776000Y-97272000D01*
X135776000Y-99572000D02*
X135776000Y-102082000D01*
X147996000Y-89862000D02*
X147996000Y-92372000D01*
X147996000Y-94672000D02*
X147996000Y-97272000D01*
X147996000Y-99572000D02*
X147996000Y-102082000D01*
X147996000Y-102082000D02*
X135776000Y-102082000D01*
X145436000Y-95972000D02*
G75*
G02*
X138336000Y-95972000I-3550000J0D01*
G01*
X138336000Y-95972000D02*
G75*
G02*
X145436000Y-95972000I3550000J0D01*
G01*
%TO.C,U8*%
D11*
X164084000Y-51816000D02*
X178816000Y-51816000D01*
X178816000Y-71628000D01*
X164084000Y-71628000D01*
X164084000Y-51816000D01*
D12*
%TO.C,D2*%
X157750000Y-85288000D02*
X160610000Y-85288000D01*
X160610000Y-83368000D02*
X157750000Y-83368000D01*
X160610000Y-85288000D02*
X160610000Y-83368000D01*
%TO.C,U9*%
D11*
X181610000Y-51816000D02*
X196342000Y-51816000D01*
X196342000Y-71628000D01*
X181610000Y-71628000D01*
X181610000Y-51816000D01*
D12*
%TO.C,R1*%
X138440936Y-83593000D02*
X138895064Y-83593000D01*
X138440936Y-85063000D02*
X138895064Y-85063000D01*
%TO.C,U10*%
D11*
X90678000Y-57023000D02*
X81026000Y-57023000D01*
X81026000Y-73533000D01*
X90678000Y-73533000D01*
X90678000Y-57023000D01*
%TO.C,U5*%
X110490000Y-51816000D02*
X125222000Y-51816000D01*
X125222000Y-71628000D01*
X110490000Y-71628000D01*
X110490000Y-51816000D01*
D12*
%TO.C,J2*%
X110876000Y-45682000D02*
X111486000Y-45682000D01*
X110876000Y-46982000D02*
X111486000Y-46982000D01*
X111486000Y-44182000D02*
X111486000Y-47682000D01*
X111486000Y-47682000D02*
X113436000Y-47682000D01*
X113436000Y-47682000D02*
X113436000Y-48292000D01*
X113836000Y-44682000D02*
X113836000Y-44182000D01*
X113936000Y-44182000D02*
X113936000Y-44682000D01*
X114036000Y-44182000D02*
X114036000Y-44682000D01*
X114036000Y-44682000D02*
X113836000Y-44682000D01*
X115836000Y-44682000D02*
X115836000Y-44182000D01*
X115936000Y-44182000D02*
X115936000Y-44682000D01*
X116036000Y-44182000D02*
X116036000Y-44682000D01*
X116036000Y-44682000D02*
X115836000Y-44682000D01*
X117836000Y-44682000D02*
X117836000Y-44182000D01*
X117936000Y-44182000D02*
X117936000Y-44682000D01*
X118036000Y-44182000D02*
X118036000Y-44682000D01*
X118036000Y-44682000D02*
X117836000Y-44682000D01*
X119836000Y-44682000D02*
X119836000Y-44182000D01*
X119936000Y-44182000D02*
X119936000Y-44682000D01*
X120036000Y-44182000D02*
X120036000Y-44682000D01*
X120036000Y-44682000D02*
X119836000Y-44682000D01*
X121836000Y-44682000D02*
X121836000Y-44182000D01*
X121936000Y-44182000D02*
X121936000Y-44682000D01*
X122036000Y-44182000D02*
X122036000Y-44682000D01*
X122036000Y-44682000D02*
X121836000Y-44682000D01*
X122436000Y-47682000D02*
X124386000Y-47682000D01*
X122436000Y-48292000D02*
X122436000Y-47682000D01*
X123236000Y-48292000D02*
X123236000Y-48492000D01*
X123236000Y-48392000D02*
X123536000Y-48392000D01*
X123236000Y-48492000D02*
X123536000Y-48492000D01*
X123536000Y-48492000D02*
X123536000Y-48292000D01*
X124046000Y-48592000D02*
X125296000Y-48592000D01*
X124386000Y-44182000D02*
X111486000Y-44182000D01*
X124386000Y-47682000D02*
X124386000Y-44182000D01*
X124996000Y-45682000D02*
X124386000Y-45682000D01*
X124996000Y-46982000D02*
X124386000Y-46982000D01*
X125296000Y-48592000D02*
X125296000Y-47342000D01*
X124996000Y-48292000D02*
X110876000Y-48292000D01*
X110876000Y-43572000D01*
X124996000Y-43572000D01*
X124996000Y-48292000D01*
%TD*%
M02*
