%TF.GenerationSoftware,KiCad,Pcbnew,9.0.7*%
%TF.CreationDate,2026-02-26T22:39:56-05:00*%
%TF.ProjectId,StepperClock,53746570-7065-4724-936c-6f636b2e6b69,rev?*%
%TF.SameCoordinates,Original*%
%TF.FileFunction,Soldermask,Top*%
%TF.FilePolarity,Negative*%
%FSLAX46Y46*%
G04 Gerber Fmt 4.6, Leading zero omitted, Abs format (unit mm)*
G04 Created by KiCad (PCBNEW 9.0.7) date 2026-02-26 22:39:56*
%MOMM*%
%LPD*%
G01*
G04 APERTURE LIST*
G04 Aperture macros list*
%AMRoundRect*
0 Rectangle with rounded corners*
0 $1 Rounding radius*
0 $2 $3 $4 $5 $6 $7 $8 $9 X,Y pos of 4 corners*
0 Add a 4 corners polygon primitive as box body*
4,1,4,$2,$3,$4,$5,$6,$7,$8,$9,$2,$3,0*
0 Add four circle primitives for the rounded corners*
1,1,$1+$1,$2,$3*
1,1,$1+$1,$4,$5*
1,1,$1+$1,$6,$7*
1,1,$1+$1,$8,$9*
0 Add four rect primitives between the rounded corners*
20,1,$1+$1,$2,$3,$4,$5,0*
20,1,$1+$1,$4,$5,$6,$7,0*
20,1,$1+$1,$6,$7,$8,$9,0*
20,1,$1+$1,$8,$9,$2,$3,0*%
%AMFreePoly0*
4,1,6,1.000000,0.000000,0.500000,-0.750000,-0.500000,-0.750000,-0.500000,0.750000,0.500000,0.750000,1.000000,0.000000,1.000000,0.000000,$1*%
%AMFreePoly1*
4,1,37,0.800000,0.796148,0.878414,0.796148,1.032228,0.765552,1.177117,0.705537,1.307515,0.618408,1.418408,0.507515,1.505537,0.377117,1.565552,0.232228,1.596148,0.078414,1.596148,-0.078414,1.565552,-0.232228,1.505537,-0.377117,1.418408,-0.507515,1.307515,-0.618408,1.177117,-0.705537,1.032228,-0.765552,0.878414,-0.796148,0.800000,-0.796148,0.800000,-0.800000,-1.400000,-0.800000,
-1.403843,-0.796157,-1.439018,-0.796157,-1.511114,-0.766294,-1.566294,-0.711114,-1.596157,-0.639018,-1.596157,-0.603843,-1.600000,-0.600000,-1.600000,0.600000,-1.596157,0.603843,-1.596157,0.639018,-1.566294,0.711114,-1.511114,0.766294,-1.439018,0.796157,-1.403843,0.796157,-1.400000,0.800000,0.800000,0.800000,0.800000,0.796148,0.800000,0.796148,$1*%
%AMFreePoly2*
4,1,37,1.403843,0.796157,1.439018,0.796157,1.511114,0.766294,1.566294,0.711114,1.596157,0.639018,1.596157,0.603843,1.600000,0.600000,1.600000,-0.600000,1.596157,-0.603843,1.596157,-0.639018,1.566294,-0.711114,1.511114,-0.766294,1.439018,-0.796157,1.403843,-0.796157,1.400000,-0.800000,-0.800000,-0.800000,-0.800000,-0.796148,-0.878414,-0.796148,-1.032228,-0.765552,-1.177117,-0.705537,
-1.307515,-0.618408,-1.418408,-0.507515,-1.505537,-0.377117,-1.565552,-0.232228,-1.596148,-0.078414,-1.596148,0.078414,-1.565552,0.232228,-1.505537,0.377117,-1.418408,0.507515,-1.307515,0.618408,-1.177117,0.705537,-1.032228,0.765552,-0.878414,0.796148,-0.800000,0.796148,-0.800000,0.800000,1.400000,0.800000,1.403843,0.796157,1.403843,0.796157,$1*%
G04 Aperture macros list end*
%ADD10C,1.727200*%
%ADD11C,3.048000*%
%ADD12FreePoly0,0.000000*%
%ADD13FreePoly0,180.000000*%
%ADD14RoundRect,0.249999X0.850001X-0.850001X0.850001X0.850001X-0.850001X0.850001X-0.850001X-0.850001X0*%
%ADD15C,2.200000*%
%ADD16R,1.700000X1.700000*%
%ADD17C,1.700000*%
%ADD18C,1.850000*%
%ADD19FreePoly1,90.000000*%
%ADD20RoundRect,0.800000X0.000010X-0.800000X0.000010X0.800000X-0.000010X0.800000X-0.000010X-0.800000X0*%
%ADD21FreePoly2,90.000000*%
%ADD22C,0.068000*%
G04 APERTURE END LIST*
%TO.C,JP2*%
G36*
X136470000Y-75018200D02*
G01*
X141470000Y-75018200D01*
X141470000Y-76518200D01*
X136470000Y-76518200D01*
X136470000Y-75018200D01*
G37*
%TO.C,JP1*%
G36*
X129256400Y-75094400D02*
G01*
X134256400Y-75094400D01*
X134256400Y-76594400D01*
X129256400Y-76594400D01*
X129256400Y-75094400D01*
G37*
%TD*%
D10*
%TO.C,U1*%
X119507000Y-76530200D03*
X116967000Y-76530200D03*
X114427000Y-76530200D03*
X111887000Y-76530200D03*
X109347000Y-76530200D03*
X106807000Y-76530200D03*
X104267000Y-76530200D03*
X101727000Y-76530200D03*
D11*
X123113800Y-75260200D03*
X122910600Y-56515000D03*
X98018600Y-56261000D03*
X97891600Y-75361800D03*
%TD*%
D12*
%TO.C,JP2*%
X136970000Y-75768200D03*
D13*
X140970000Y-75768200D03*
%TD*%
D12*
%TO.C,JP1*%
X129756400Y-75844400D03*
D13*
X133756400Y-75844400D03*
%TD*%
D14*
%TO.C,D1*%
X181762400Y-105308400D03*
D15*
X181762400Y-95148400D03*
%TD*%
D16*
%TO.C,J6*%
X159918400Y-49647800D03*
D17*
X162458400Y-49647800D03*
X164998400Y-49647800D03*
X167538400Y-49647800D03*
%TD*%
D16*
%TO.C,J3*%
X112217200Y-50165000D03*
D17*
X114757200Y-50165000D03*
X117297200Y-50165000D03*
X119837200Y-50165000D03*
%TD*%
D15*
%TO.C,A1*%
X94369400Y-94907800D03*
D18*
X97399400Y-94607800D03*
X97399400Y-89757800D03*
D15*
X94369400Y-89457800D03*
D19*
X94239400Y-101872800D03*
D20*
X96779400Y-101872800D03*
D21*
X99319400Y-101872800D03*
D20*
X101859400Y-101872800D03*
X104399400Y-101872800D03*
X106939400Y-101872800D03*
X109479400Y-101872800D03*
D21*
X112019400Y-101872800D03*
D20*
X114559400Y-101872800D03*
X117099400Y-101872800D03*
X119639400Y-101872800D03*
X122179400Y-101872800D03*
D21*
X124719400Y-101872800D03*
D20*
X127259400Y-101872800D03*
X129799400Y-101872800D03*
X132339400Y-101872800D03*
X134879400Y-101872800D03*
D21*
X137419400Y-101872800D03*
D20*
X139959400Y-101872800D03*
X142499400Y-101872800D03*
X142499400Y-82492800D03*
X139959400Y-82492800D03*
D19*
X137419400Y-82492800D03*
D20*
X134879400Y-82492800D03*
X132339400Y-82492800D03*
X129799400Y-82492800D03*
X127259400Y-82492800D03*
D19*
X124719400Y-82492800D03*
D20*
X122179400Y-82492800D03*
X119639400Y-82492800D03*
X117099400Y-82492800D03*
X114559400Y-82492800D03*
D19*
X112019400Y-82492800D03*
D20*
X109479400Y-82492800D03*
X106939400Y-82492800D03*
X104399400Y-82492800D03*
X101859400Y-82492800D03*
D19*
X99319400Y-82492800D03*
D20*
X96779400Y-82492800D03*
X94239400Y-82492800D03*
%TD*%
D16*
%TO.C,J5*%
X144043400Y-49419200D03*
D17*
X146583400Y-49419200D03*
X149123400Y-49419200D03*
X151663400Y-49419200D03*
%TD*%
D16*
%TO.C,J2*%
X97205800Y-49809400D03*
D17*
X99745800Y-49809400D03*
X102285800Y-49809400D03*
X104825800Y-49809400D03*
%TD*%
D16*
%TO.C,J1*%
X186105800Y-101574600D03*
D17*
X186105800Y-99034600D03*
%TD*%
D16*
%TO.C,J7*%
X176123600Y-49190600D03*
D17*
X178663600Y-49190600D03*
X181203600Y-49190600D03*
X183743600Y-49190600D03*
%TD*%
D10*
%TO.C,U3*%
X157607000Y-78740000D03*
D22*
X171227000Y-47060000D03*
D10*
X160147000Y-78740000D03*
X162687000Y-78740000D03*
X165227000Y-78740000D03*
X167767000Y-78740000D03*
%TD*%
%TO.C,U2*%
X181051200Y-91516200D03*
X188671200Y-91516200D03*
X188671200Y-77038200D03*
X181051200Y-77038200D03*
%TD*%
D16*
%TO.C,J4*%
X127889000Y-49225200D03*
D17*
X130429000Y-49225200D03*
X132969000Y-49225200D03*
X135509000Y-49225200D03*
%TD*%
D10*
%TO.C,U5*%
X110761600Y-71501000D03*
X110761600Y-68961000D03*
X110761600Y-66421000D03*
X110761600Y-63881000D03*
X110761600Y-61341000D03*
X110761600Y-58801000D03*
X110761600Y-56261000D03*
X110761600Y-53721000D03*
X123461600Y-53721000D03*
X123461600Y-56261000D03*
X123461600Y-58801000D03*
X123461600Y-61341000D03*
X123461600Y-63881000D03*
X123461600Y-66421000D03*
X123461600Y-68961000D03*
X123461600Y-71501000D03*
%TD*%
%TO.C,U4*%
X94929600Y-71501000D03*
X94929600Y-68961000D03*
X94929600Y-66421000D03*
X94929600Y-63881000D03*
X94929600Y-61341000D03*
X94929600Y-58801000D03*
X94929600Y-56261000D03*
X94929600Y-53721000D03*
X107629600Y-53721000D03*
X107629600Y-56261000D03*
X107629600Y-58801000D03*
X107629600Y-61341000D03*
X107629600Y-63881000D03*
X107629600Y-66421000D03*
X107629600Y-68961000D03*
X107629600Y-71501000D03*
%TD*%
%TO.C,U9*%
X174089600Y-71501000D03*
X174089600Y-68961000D03*
X174089600Y-66421000D03*
X174089600Y-63881000D03*
X174089600Y-61341000D03*
X174089600Y-58801000D03*
X174089600Y-56261000D03*
X174089600Y-53721000D03*
X186789600Y-53721000D03*
X186789600Y-56261000D03*
X186789600Y-58801000D03*
X186789600Y-61341000D03*
X186789600Y-63881000D03*
X186789600Y-66421000D03*
X186789600Y-68961000D03*
X186789600Y-71501000D03*
%TD*%
%TO.C,U7*%
X142425600Y-71501000D03*
X142425600Y-68961000D03*
X142425600Y-66421000D03*
X142425600Y-63881000D03*
X142425600Y-61341000D03*
X142425600Y-58801000D03*
X142425600Y-56261000D03*
X142425600Y-53721000D03*
X155125600Y-53721000D03*
X155125600Y-56261000D03*
X155125600Y-58801000D03*
X155125600Y-61341000D03*
X155125600Y-63881000D03*
X155125600Y-66421000D03*
X155125600Y-68961000D03*
X155125600Y-71501000D03*
%TD*%
%TO.C,U8*%
X158257600Y-71501000D03*
X158257600Y-68961000D03*
X158257600Y-66421000D03*
X158257600Y-63881000D03*
X158257600Y-61341000D03*
X158257600Y-58801000D03*
X158257600Y-56261000D03*
X158257600Y-53721000D03*
X170957600Y-53721000D03*
X170957600Y-56261000D03*
X170957600Y-58801000D03*
X170957600Y-61341000D03*
X170957600Y-63881000D03*
X170957600Y-66421000D03*
X170957600Y-68961000D03*
X170957600Y-71501000D03*
%TD*%
%TO.C,U6*%
X126593600Y-71501000D03*
X126593600Y-68961000D03*
X126593600Y-66421000D03*
X126593600Y-63881000D03*
X126593600Y-61341000D03*
X126593600Y-58801000D03*
X126593600Y-56261000D03*
X126593600Y-53721000D03*
X139293600Y-53721000D03*
X139293600Y-56261000D03*
X139293600Y-58801000D03*
X139293600Y-61341000D03*
X139293600Y-63881000D03*
X139293600Y-66421000D03*
X139293600Y-68961000D03*
X139293600Y-71501000D03*
%TD*%
M02*
