%TF.GenerationSoftware,KiCad,Pcbnew,9.0.7*%
%TF.CreationDate,2026-03-03T20:00:45-05:00*%
%TF.ProjectId,StepperClock,53746570-7065-4724-936c-6f636b2e6b69,rev?*%
%TF.SameCoordinates,Original*%
%TF.FileFunction,Copper,L1,Top*%
%TF.FilePolarity,Positive*%
%FSLAX46Y46*%
G04 Gerber Fmt 4.6, Leading zero omitted, Abs format (unit mm)*
G04 Created by KiCad (PCBNEW 9.0.7) date 2026-03-03 20:00:45*
%MOMM*%
%LPD*%
G01*
G04 APERTURE LIST*
G04 Aperture macros list*
%AMRoundRect*
0 Rectangle with rounded corners*
0 $1 Rounding radius*
0 $2 $3 $4 $5 $6 $7 $8 $9 X,Y pos of 4 corners*
0 Add a 4 corners polygon primitive as box body*
4,1,4,$2,$3,$4,$5,$6,$7,$8,$9,$2,$3,0*
0 Add four circle primitives for the rounded corners*
1,1,$1+$1,$2,$3*
1,1,$1+$1,$4,$5*
1,1,$1+$1,$6,$7*
1,1,$1+$1,$8,$9*
0 Add four rect primitives between the rounded corners*
20,1,$1+$1,$2,$3,$4,$5,0*
20,1,$1+$1,$4,$5,$6,$7,0*
20,1,$1+$1,$6,$7,$8,$9,0*
20,1,$1+$1,$8,$9,$2,$3,0*%
%AMFreePoly0*
4,1,37,0.603843,0.796157,0.639018,0.796157,0.711114,0.766294,0.766294,0.711114,0.796157,0.639018,0.796157,0.603843,0.800000,0.600000,0.800000,-0.600000,0.796157,-0.603843,0.796157,-0.639018,0.766294,-0.711114,0.711114,-0.766294,0.639018,-0.796157,0.603843,-0.796157,0.600000,-0.800000,0.000000,-0.800000,0.000000,-0.796148,-0.078414,-0.796148,-0.232228,-0.765552,-0.377117,-0.705537,
-0.507515,-0.618408,-0.618408,-0.507515,-0.705537,-0.377117,-0.765552,-0.232228,-0.796148,-0.078414,-0.796148,0.078414,-0.765552,0.232228,-0.705537,0.377117,-0.618408,0.507515,-0.507515,0.618408,-0.377117,0.705537,-0.232228,0.765552,-0.078414,0.796148,0.000000,0.796148,0.000000,0.800000,0.600000,0.800000,0.603843,0.796157,0.603843,0.796157,$1*%
%AMFreePoly1*
4,1,37,0.000000,0.796148,0.078414,0.796148,0.232228,0.765552,0.377117,0.705537,0.507515,0.618408,0.618408,0.507515,0.705537,0.377117,0.765552,0.232228,0.796148,0.078414,0.796148,-0.078414,0.765552,-0.232228,0.705537,-0.377117,0.618408,-0.507515,0.507515,-0.618408,0.377117,-0.705537,0.232228,-0.765552,0.078414,-0.796148,0.000000,-0.796148,0.000000,-0.800000,-0.600000,-0.800000,
-0.603843,-0.796157,-0.639018,-0.796157,-0.711114,-0.766294,-0.766294,-0.711114,-0.796157,-0.639018,-0.796157,-0.603843,-0.800000,-0.600000,-0.800000,0.600000,-0.796157,0.603843,-0.796157,0.639018,-0.766294,0.711114,-0.711114,0.766294,-0.639018,0.796157,-0.603843,0.796157,-0.600000,0.800000,0.000000,0.800000,0.000000,0.796148,0.000000,0.796148,$1*%
G04 Aperture macros list end*
%TA.AperFunction,ComponentPad*%
%ADD10R,1.700000X1.700000*%
%TD*%
%TA.AperFunction,ComponentPad*%
%ADD11C,1.700000*%
%TD*%
%TA.AperFunction,SMDPad,CuDef*%
%ADD12RoundRect,0.250000X0.325000X0.450000X-0.325000X0.450000X-0.325000X-0.450000X0.325000X-0.450000X0*%
%TD*%
%TA.AperFunction,SMDPad,CuDef*%
%ADD13RoundRect,0.250000X-0.350000X-0.450000X0.350000X-0.450000X0.350000X0.450000X-0.350000X0.450000X0*%
%TD*%
%TA.AperFunction,ComponentPad*%
%ADD14RoundRect,0.250000X0.350000X0.625000X-0.350000X0.625000X-0.350000X-0.625000X0.350000X-0.625000X0*%
%TD*%
%TA.AperFunction,ComponentPad*%
%ADD15O,1.200000X1.750000*%
%TD*%
%TA.AperFunction,ComponentPad*%
%ADD16O,3.200000X1.900000*%
%TD*%
%TA.AperFunction,ComponentPad*%
%ADD17C,3.048000*%
%TD*%
%TA.AperFunction,ComponentPad*%
%ADD18C,1.727200*%
%TD*%
%TA.AperFunction,ComponentPad*%
%ADD19RoundRect,0.250000X-0.550000X-0.550000X0.550000X-0.550000X0.550000X0.550000X-0.550000X0.550000X0*%
%TD*%
%TA.AperFunction,ComponentPad*%
%ADD20C,1.600000*%
%TD*%
%TA.AperFunction,ComponentPad*%
%ADD21RoundRect,0.249999X-0.850001X-0.850001X0.850001X-0.850001X0.850001X0.850001X-0.850001X0.850001X0*%
%TD*%
%TA.AperFunction,ComponentPad*%
%ADD22C,2.200000*%
%TD*%
%TA.AperFunction,WasherPad*%
%ADD23C,5.400000*%
%TD*%
%TA.AperFunction,ComponentPad*%
%ADD24RoundRect,0.200000X-0.600000X0.600000X-0.600000X-0.600000X0.600000X-0.600000X0.600000X0.600000X0*%
%TD*%
%TA.AperFunction,ComponentPad*%
%ADD25FreePoly0,270.000000*%
%TD*%
%TA.AperFunction,ComponentPad*%
%ADD26FreePoly1,270.000000*%
%TD*%
%TA.AperFunction,ViaPad*%
%ADD27C,0.600000*%
%TD*%
%TA.AperFunction,Conductor*%
%ADD28C,0.200000*%
%TD*%
%TA.AperFunction,Conductor*%
%ADD29C,0.381000*%
%TD*%
G04 APERTURE END LIST*
D10*
%TO.P,J7,1,Pin_1*%
%TO.N,GND*%
X87376000Y-45466000D03*
D11*
%TO.P,J7,2,Pin_2*%
%TO.N,+12V*%
X84836000Y-45466000D03*
%TD*%
D12*
%TO.P,D1,1,K*%
%TO.N,GND*%
X144018000Y-84328000D03*
%TO.P,D1,2,A*%
%TO.N,Net-(D1-A)*%
X141968000Y-84328000D03*
%TD*%
D13*
%TO.P,R2,1*%
%TO.N,/MotorDebug*%
X153448000Y-84328000D03*
%TO.P,R2,2*%
%TO.N,Net-(D2-A)*%
X155448000Y-84328000D03*
%TD*%
D14*
%TO.P,J6,1,Pin_1*%
%TO.N,/Sec0_M1B*%
X193928000Y-46482000D03*
D15*
%TO.P,J6,2,Pin_2*%
%TO.N,/Sec0_M1A*%
X191928000Y-46482000D03*
%TO.P,J6,3,Pin_3*%
%TO.N,/Sec0_M2A*%
X189928000Y-46482000D03*
%TO.P,J6,4,Pin_4*%
%TO.N,/Sec0_M2B*%
X187928000Y-46482000D03*
%TO.P,J6,5,Pin_5*%
%TO.N,GND*%
X185928000Y-46482000D03*
%TO.P,J6,6,Pin_6*%
%TO.N,/Sec0Home*%
X183928000Y-46482000D03*
%TD*%
D16*
%TO.P,SW2,1,A*%
%TO.N,GND*%
X153262000Y-93766000D03*
X165762000Y-93766000D03*
%TO.P,SW2,2,B*%
%TO.N,/DebugPB*%
X153262000Y-98766000D03*
X165762000Y-98766000D03*
%TD*%
D17*
%TO.P,U2,*%
%TO.N,*%
X129082800Y-93980000D03*
X103860600Y-94081600D03*
D18*
%TO.P,U2,1,GND*%
%TO.N,GND*%
X125476000Y-95250000D03*
%TO.P,U2,2,VCC*%
%TO.N,+3V3*%
X122936000Y-95250000D03*
%TO.P,U2,3,SCL*%
%TO.N,/SCK*%
X120396000Y-95250000D03*
%TO.P,U2,4,SDA*%
%TO.N,/MOSI*%
X117856000Y-95250000D03*
%TO.P,U2,5,RES*%
%TO.N,/Reset*%
X115316000Y-95250000D03*
%TO.P,U2,6,D/~{C}*%
%TO.N,/D{slash}~{C}*%
X112776000Y-95250000D03*
%TO.P,U2,7,CS*%
%TO.N,/CS*%
X110236000Y-95250000D03*
%TO.P,U2,8,BLK*%
%TO.N,unconnected-(U2-BLK-Pad8)*%
X107696000Y-95250000D03*
%TD*%
%TO.P,U6,1,EN*%
%TO.N,/MotorEnable*%
X129286000Y-52832000D03*
%TO.P,U6,2,MS1*%
%TO.N,/MS1*%
X129286000Y-55372000D03*
%TO.P,U6,3,MS2*%
%TO.N,/MS2*%
X129286000Y-57912000D03*
%TO.P,U6,4,UART*%
%TO.N,unconnected-(U6-UART-Pad4)*%
X129286000Y-60452000D03*
%TO.P,U6,5,PDN*%
%TO.N,unconnected-(U6-PDN-Pad5)*%
X129286000Y-62992000D03*
%TO.P,U6,6,CLK*%
%TO.N,GND*%
X129286000Y-65532000D03*
%TO.P,U6,7,STEP*%
%TO.N,/Min1Step*%
X129286000Y-68072000D03*
%TO.P,U6,8,DIR*%
%TO.N,/Direction*%
X129286000Y-70612000D03*
%TO.P,U6,9,GND*%
%TO.N,GND*%
X141986000Y-70612000D03*
%TO.P,U6,10,VIO*%
%TO.N,+3V3*%
X141986000Y-68072000D03*
%TO.P,U6,11,M2B*%
%TO.N,/Min1_M2B*%
X141986000Y-65532000D03*
%TO.P,U6,12,M2A*%
%TO.N,/Min1_M2A*%
X141986000Y-62992000D03*
%TO.P,U6,13,M1A*%
%TO.N,/Min1_M1A*%
X141986000Y-60452000D03*
%TO.P,U6,14,M1B*%
%TO.N,/Min1_M1B*%
X141986000Y-57912000D03*
%TO.P,U6,15,GND*%
%TO.N,GND*%
X141986000Y-55372000D03*
%TO.P,U6,16,VM*%
%TO.N,+12V*%
X141986000Y-52832000D03*
%TD*%
D19*
%TO.P,C1,1*%
%TO.N,+12V*%
X84876000Y-52070000D03*
D20*
%TO.P,C1,2*%
%TO.N,GND*%
X87376000Y-52070000D03*
%TD*%
D18*
%TO.P,U4,1,EN*%
%TO.N,/MotorEnable*%
X93726000Y-52832000D03*
%TO.P,U4,2,MS1*%
%TO.N,/MS1*%
X93726000Y-55372000D03*
%TO.P,U4,3,MS2*%
%TO.N,/MS2*%
X93726000Y-57912000D03*
%TO.P,U4,4,UART*%
%TO.N,unconnected-(U4-UART-Pad4)*%
X93726000Y-60452000D03*
%TO.P,U4,5,PDN*%
%TO.N,unconnected-(U4-PDN-Pad5)*%
X93726000Y-62992000D03*
%TO.P,U4,6,CLK*%
%TO.N,GND*%
X93726000Y-65532000D03*
%TO.P,U4,7,STEP*%
%TO.N,/Hour1Step*%
X93726000Y-68072000D03*
%TO.P,U4,8,DIR*%
%TO.N,/Direction*%
X93726000Y-70612000D03*
%TO.P,U4,9,GND*%
%TO.N,GND*%
X106426000Y-70612000D03*
%TO.P,U4,10,VIO*%
%TO.N,+3V3*%
X106426000Y-68072000D03*
%TO.P,U4,11,M2B*%
%TO.N,/Hour1_M2B*%
X106426000Y-65532000D03*
%TO.P,U4,12,M2A*%
%TO.N,/Hour1_M2A*%
X106426000Y-62992000D03*
%TO.P,U4,13,M1A*%
%TO.N,/Hour1_M1A*%
X106426000Y-60452000D03*
%TO.P,U4,14,M1B*%
%TO.N,/Hour1_M1B*%
X106426000Y-57912000D03*
%TO.P,U4,15,GND*%
%TO.N,GND*%
X106426000Y-55372000D03*
%TO.P,U4,16,VM*%
%TO.N,+12V*%
X106426000Y-52832000D03*
%TD*%
D14*
%TO.P,J1,1,Pin_1*%
%TO.N,/Hour1_M1B*%
X105060000Y-46482000D03*
D15*
%TO.P,J1,2,Pin_2*%
%TO.N,/Hour1_M1A*%
X103060000Y-46482000D03*
%TO.P,J1,3,Pin_3*%
%TO.N,/Hour1_M2A*%
X101060000Y-46482000D03*
%TO.P,J1,4,Pin_4*%
%TO.N,/Hour1_M2B*%
X99060000Y-46482000D03*
%TO.P,J1,5,Pin_5*%
%TO.N,GND*%
X97060000Y-46482000D03*
%TO.P,J1,6,Pin_6*%
%TO.N,/Hour1Home*%
X95060000Y-46482000D03*
%TD*%
D18*
%TO.P,U7,1,EN*%
%TO.N,/MotorEnable*%
X147066000Y-52832000D03*
%TO.P,U7,2,MS1*%
%TO.N,/MS1*%
X147066000Y-55372000D03*
%TO.P,U7,3,MS2*%
%TO.N,/MS2*%
X147066000Y-57912000D03*
%TO.P,U7,4,UART*%
%TO.N,unconnected-(U7-UART-Pad4)*%
X147066000Y-60452000D03*
%TO.P,U7,5,PDN*%
%TO.N,unconnected-(U7-PDN-Pad5)*%
X147066000Y-62992000D03*
%TO.P,U7,6,CLK*%
%TO.N,GND*%
X147066000Y-65532000D03*
%TO.P,U7,7,STEP*%
%TO.N,/Min0Step*%
X147066000Y-68072000D03*
%TO.P,U7,8,DIR*%
%TO.N,/Direction*%
X147066000Y-70612000D03*
%TO.P,U7,9,GND*%
%TO.N,GND*%
X159766000Y-70612000D03*
%TO.P,U7,10,VIO*%
%TO.N,+3V3*%
X159766000Y-68072000D03*
%TO.P,U7,11,M2B*%
%TO.N,/Min0_M2B*%
X159766000Y-65532000D03*
%TO.P,U7,12,M2A*%
%TO.N,/Min0_M2A*%
X159766000Y-62992000D03*
%TO.P,U7,13,M1A*%
%TO.N,/Min0_M1A*%
X159766000Y-60452000D03*
%TO.P,U7,14,M1B*%
%TO.N,/Min0_M1B*%
X159766000Y-57912000D03*
%TO.P,U7,15,GND*%
%TO.N,GND*%
X159766000Y-55372000D03*
%TO.P,U7,16,VM*%
%TO.N,+12V*%
X159766000Y-52832000D03*
%TD*%
D21*
%TO.P,D3,1,K*%
%TO.N,/VSYS*%
X81788000Y-76962000D03*
D22*
%TO.P,D3,2,A*%
%TO.N,Net-(D3-A)*%
X89408000Y-76962000D03*
%TD*%
D14*
%TO.P,J5,1,Pin_1*%
%TO.N,/Sec1_M1B*%
X176276000Y-46482000D03*
D15*
%TO.P,J5,2,Pin_2*%
%TO.N,/Sec1_M1A*%
X174276000Y-46482000D03*
%TO.P,J5,3,Pin_3*%
%TO.N,/Sec1_M2A*%
X172276000Y-46482000D03*
%TO.P,J5,4,Pin_4*%
%TO.N,/Sec1_M2B*%
X170276000Y-46482000D03*
%TO.P,J5,5,Pin_5*%
%TO.N,GND*%
X168276000Y-46482000D03*
%TO.P,J5,6,Pin_6*%
%TO.N,/Sec1Home*%
X166276000Y-46482000D03*
%TD*%
D14*
%TO.P,J4,1,Pin_1*%
%TO.N,/Min0_M1B*%
X158368000Y-46728000D03*
D15*
%TO.P,J4,2,Pin_2*%
%TO.N,/Min0_M1A*%
X156368000Y-46728000D03*
%TO.P,J4,3,Pin_3*%
%TO.N,/Min0_M2A*%
X154368000Y-46728000D03*
%TO.P,J4,4,Pin_4*%
%TO.N,/Min0_M2B*%
X152368000Y-46728000D03*
%TO.P,J4,5,Pin_5*%
%TO.N,GND*%
X150368000Y-46728000D03*
%TO.P,J4,6,Pin_6*%
%TO.N,/Min0Home*%
X148368000Y-46728000D03*
%TD*%
D23*
%TO.P,U3,*%
%TO.N,*%
X172788000Y-102832000D03*
D18*
%TO.P,U3,1,PPS*%
%TO.N,unconnected-(U3-PPS-Pad1)*%
X178308000Y-80772000D03*
%TO.P,U3,2,Tx*%
%TO.N,/GPSTx*%
X180848000Y-80772000D03*
%TO.P,U3,3,Rx*%
%TO.N,/GPSRx*%
X183388000Y-80772000D03*
%TO.P,U3,4,GND*%
%TO.N,GND*%
X185928000Y-80772000D03*
%TO.P,U3,5,VCC*%
%TO.N,+3V3*%
X188468000Y-80772000D03*
%TD*%
D14*
%TO.P,J3,1,Pin_1*%
%TO.N,/Min1_M1B*%
X140716000Y-46482000D03*
D15*
%TO.P,J3,2,Pin_2*%
%TO.N,/Min1_M1A*%
X138716000Y-46482000D03*
%TO.P,J3,3,Pin_3*%
%TO.N,/Min1_M2A*%
X136716000Y-46482000D03*
%TO.P,J3,4,Pin_4*%
%TO.N,/Min1_M2B*%
X134716000Y-46482000D03*
%TO.P,J3,5,Pin_5*%
%TO.N,GND*%
X132716000Y-46482000D03*
%TO.P,J3,6,Pin_6*%
%TO.N,/Min1Home*%
X130716000Y-46482000D03*
%TD*%
D16*
%TO.P,SW1,1,A*%
%TO.N,GND*%
X135636000Y-93472000D03*
X148136000Y-93472000D03*
%TO.P,SW1,2,B*%
%TO.N,/TZ_PB*%
X135636000Y-98472000D03*
X148136000Y-98472000D03*
%TD*%
D18*
%TO.P,U8,1,EN*%
%TO.N,/MotorEnable*%
X165100000Y-52832000D03*
%TO.P,U8,2,MS1*%
%TO.N,/MS1*%
X165100000Y-55372000D03*
%TO.P,U8,3,MS2*%
%TO.N,/MS2*%
X165100000Y-57912000D03*
%TO.P,U8,4,UART*%
%TO.N,unconnected-(U8-UART-Pad4)*%
X165100000Y-60452000D03*
%TO.P,U8,5,PDN*%
%TO.N,unconnected-(U8-PDN-Pad5)*%
X165100000Y-62992000D03*
%TO.P,U8,6,CLK*%
%TO.N,GND*%
X165100000Y-65532000D03*
%TO.P,U8,7,STEP*%
%TO.N,/Sec1Step*%
X165100000Y-68072000D03*
%TO.P,U8,8,DIR*%
%TO.N,/Direction*%
X165100000Y-70612000D03*
%TO.P,U8,9,GND*%
%TO.N,GND*%
X177800000Y-70612000D03*
%TO.P,U8,10,VIO*%
%TO.N,+3V3*%
X177800000Y-68072000D03*
%TO.P,U8,11,M2B*%
%TO.N,/Sec1_M2B*%
X177800000Y-65532000D03*
%TO.P,U8,12,M2A*%
%TO.N,/Sec1_M2A*%
X177800000Y-62992000D03*
%TO.P,U8,13,M1A*%
%TO.N,/Sec1_M1A*%
X177800000Y-60452000D03*
%TO.P,U8,14,M1B*%
%TO.N,/Sec1_M1B*%
X177800000Y-57912000D03*
%TO.P,U8,15,GND*%
%TO.N,GND*%
X177800000Y-55372000D03*
%TO.P,U8,16,VM*%
%TO.N,+12V*%
X177800000Y-52832000D03*
%TD*%
D12*
%TO.P,D2,1,K*%
%TO.N,GND*%
X159775000Y-84328000D03*
%TO.P,D2,2,A*%
%TO.N,Net-(D2-A)*%
X157725000Y-84328000D03*
%TD*%
D18*
%TO.P,U9,1,EN*%
%TO.N,/MotorEnable*%
X182626000Y-52832000D03*
%TO.P,U9,2,MS1*%
%TO.N,/MS1*%
X182626000Y-55372000D03*
%TO.P,U9,3,MS2*%
%TO.N,/MS2*%
X182626000Y-57912000D03*
%TO.P,U9,4,UART*%
%TO.N,unconnected-(U9-UART-Pad4)*%
X182626000Y-60452000D03*
%TO.P,U9,5,PDN*%
%TO.N,unconnected-(U9-PDN-Pad5)*%
X182626000Y-62992000D03*
%TO.P,U9,6,CLK*%
%TO.N,GND*%
X182626000Y-65532000D03*
%TO.P,U9,7,STEP*%
%TO.N,/Sec0Step*%
X182626000Y-68072000D03*
%TO.P,U9,8,DIR*%
%TO.N,/Direction*%
X182626000Y-70612000D03*
%TO.P,U9,9,GND*%
%TO.N,GND*%
X195326000Y-70612000D03*
%TO.P,U9,10,VIO*%
%TO.N,+3V3*%
X195326000Y-68072000D03*
%TO.P,U9,11,M2B*%
%TO.N,/Sec0_M2B*%
X195326000Y-65532000D03*
%TO.P,U9,12,M2A*%
%TO.N,/Sec0_M2A*%
X195326000Y-62992000D03*
%TO.P,U9,13,M1A*%
%TO.N,/Sec0_M1A*%
X195326000Y-60452000D03*
%TO.P,U9,14,M1B*%
%TO.N,/Sec0_M1B*%
X195326000Y-57912000D03*
%TO.P,U9,15,GND*%
%TO.N,GND*%
X195326000Y-55372000D03*
%TO.P,U9,16,VM*%
%TO.N,+12V*%
X195326000Y-52832000D03*
%TD*%
D13*
%TO.P,R1,1*%
%TO.N,/DebugLED*%
X137668000Y-84328000D03*
%TO.P,R1,2*%
%TO.N,Net-(D1-A)*%
X139668000Y-84328000D03*
%TD*%
D18*
%TO.P,U10,1,IN-*%
%TO.N,GND*%
X89662000Y-58039000D03*
%TO.P,U10,2,IN+*%
%TO.N,+12V*%
X82042000Y-58039000D03*
%TO.P,U10,3,Out+*%
%TO.N,Net-(D3-A)*%
X82042000Y-72517000D03*
%TO.P,U10,4,Out-*%
%TO.N,GND*%
X89662000Y-72517000D03*
%TD*%
%TO.P,U5,1,EN*%
%TO.N,/MotorEnable*%
X111506000Y-52832000D03*
%TO.P,U5,2,MS1*%
%TO.N,/MS1*%
X111506000Y-55372000D03*
%TO.P,U5,3,MS2*%
%TO.N,/MS2*%
X111506000Y-57912000D03*
%TO.P,U5,4,UART*%
%TO.N,unconnected-(U5-UART-Pad4)*%
X111506000Y-60452000D03*
%TO.P,U5,5,PDN*%
%TO.N,unconnected-(U5-PDN-Pad5)*%
X111506000Y-62992000D03*
%TO.P,U5,6,CLK*%
%TO.N,GND*%
X111506000Y-65532000D03*
%TO.P,U5,7,STEP*%
%TO.N,/Hour0Step*%
X111506000Y-68072000D03*
%TO.P,U5,8,DIR*%
%TO.N,/Direction*%
X111506000Y-70612000D03*
%TO.P,U5,9,GND*%
%TO.N,GND*%
X124206000Y-70612000D03*
%TO.P,U5,10,VIO*%
%TO.N,+3V3*%
X124206000Y-68072000D03*
%TO.P,U5,11,M2B*%
%TO.N,/Hour0_M2B*%
X124206000Y-65532000D03*
%TO.P,U5,12,M2A*%
%TO.N,/Hour0_M2A*%
X124206000Y-62992000D03*
%TO.P,U5,13,M1A*%
%TO.N,/Hour0_M1A*%
X124206000Y-60452000D03*
%TO.P,U5,14,M1B*%
%TO.N,/Hour0_M1B*%
X124206000Y-57912000D03*
%TO.P,U5,15,GND*%
%TO.N,GND*%
X124206000Y-55372000D03*
%TO.P,U5,16,VM*%
%TO.N,+12V*%
X124206000Y-52832000D03*
%TD*%
D14*
%TO.P,J2,1,Pin_1*%
%TO.N,/Hour0_M1B*%
X122936000Y-46482000D03*
D15*
%TO.P,J2,2,Pin_2*%
%TO.N,/Hour0_M1A*%
X120936000Y-46482000D03*
%TO.P,J2,3,Pin_3*%
%TO.N,/Hour0_M2A*%
X118936000Y-46482000D03*
%TO.P,J2,4,Pin_4*%
%TO.N,/Hour0_M2B*%
X116936000Y-46482000D03*
%TO.P,J2,5,Pin_5*%
%TO.N,GND*%
X114936000Y-46482000D03*
%TO.P,J2,6,Pin_6*%
%TO.N,/Hour0Home*%
X112936000Y-46482000D03*
%TD*%
D24*
%TO.P,U1,1,GPIO0*%
%TO.N,/GPSRx*%
X82550000Y-83820000D03*
D20*
%TO.P,U1,2,GPIO1*%
%TO.N,/GPSTx*%
X85090000Y-83820000D03*
D25*
%TO.P,U1,3,GND*%
%TO.N,GND*%
X87630000Y-83820000D03*
D20*
%TO.P,U1,4,GPIO2*%
%TO.N,/Hour1Step*%
X90170000Y-83820000D03*
%TO.P,U1,5,GPIO3*%
%TO.N,/Hour1Home*%
X92710000Y-83820000D03*
%TO.P,U1,6,GPIO4*%
%TO.N,/Hour0Step*%
X95250000Y-83820000D03*
%TO.P,U1,7,GPIO5*%
%TO.N,/Hour0Home*%
X97790000Y-83820000D03*
D25*
%TO.P,U1,8,GND*%
%TO.N,GND*%
X100330000Y-83820000D03*
D20*
%TO.P,U1,9,GPIO6*%
%TO.N,/Min1Step*%
X102870000Y-83820000D03*
%TO.P,U1,10,GPIO7*%
%TO.N,/Min1Home*%
X105410000Y-83820000D03*
%TO.P,U1,11,GPIO8*%
%TO.N,/Min0Step*%
X107950000Y-83820000D03*
%TO.P,U1,12,GPIO9*%
%TO.N,/Min0Home*%
X110490000Y-83820000D03*
D25*
%TO.P,U1,13,GND*%
%TO.N,GND*%
X113030000Y-83820000D03*
D20*
%TO.P,U1,14,GPIO10*%
%TO.N,/Sec1Step*%
X115570000Y-83820000D03*
%TO.P,U1,15,GPIO11*%
%TO.N,/Sec1Home*%
X118110000Y-83820000D03*
%TO.P,U1,16,GPIO12*%
%TO.N,/Sec0Step*%
X120650000Y-83820000D03*
%TO.P,U1,17,GPIO13*%
%TO.N,/Sec0Home*%
X123190000Y-83820000D03*
D25*
%TO.P,U1,18,GND*%
%TO.N,GND*%
X125730000Y-83820000D03*
D20*
%TO.P,U1,19,GPIO14*%
%TO.N,/DebugLED*%
X128270000Y-83820000D03*
%TO.P,U1,20,GPIO15*%
%TO.N,/Direction*%
X130810000Y-83820000D03*
%TO.P,U1,21,GPIO16*%
%TO.N,unconnected-(U1-GPIO16-Pad21)*%
X130810000Y-101600000D03*
%TO.P,U1,22,GPIO17*%
%TO.N,/CS*%
X128270000Y-101600000D03*
D26*
%TO.P,U1,23,GND*%
%TO.N,GND*%
X125730000Y-101600000D03*
D20*
%TO.P,U1,24,GPIO18*%
%TO.N,/SCK*%
X123190000Y-101600000D03*
%TO.P,U1,25,GPIO19*%
%TO.N,/MOSI*%
X120650000Y-101600000D03*
%TO.P,U1,26,GPIO20*%
%TO.N,/D{slash}~{C}*%
X118110000Y-101600000D03*
%TO.P,U1,27,GPIO21*%
%TO.N,/Reset*%
X115570000Y-101600000D03*
D26*
%TO.P,U1,28,GND*%
%TO.N,GND*%
X113030000Y-101600000D03*
D20*
%TO.P,U1,29,GPIO22*%
%TO.N,/MotorEnable*%
X110490000Y-101600000D03*
%TO.P,U1,30,RUN*%
%TO.N,unconnected-(U1-RUN-Pad30)*%
X107950000Y-101600000D03*
%TO.P,U1,31,GPIO26_ADC0*%
%TO.N,/TZ_PB*%
X105410000Y-101600000D03*
%TO.P,U1,32,GPIO27_ADC1*%
%TO.N,/DebugPB*%
X102870000Y-101600000D03*
D26*
%TO.P,U1,33,AGND*%
%TO.N,GND*%
X100330000Y-101600000D03*
D20*
%TO.P,U1,34,GPIO28_ADC2*%
%TO.N,/MotorDebug*%
X97790000Y-101600000D03*
%TO.P,U1,35,ADC_VREF*%
%TO.N,unconnected-(U1-ADC_VREF-Pad35)*%
X95250000Y-101600000D03*
%TO.P,U1,36,3V3*%
%TO.N,+3V3*%
X92710000Y-101600000D03*
%TO.P,U1,37,3V3_EN*%
%TO.N,unconnected-(U1-3V3_EN-Pad37)*%
X90170000Y-101600000D03*
D26*
%TO.P,U1,38,GND*%
%TO.N,GND*%
X87630000Y-101600000D03*
D20*
%TO.P,U1,39,VSYS*%
%TO.N,/VSYS*%
X85090000Y-101600000D03*
%TO.P,U1,40,VBUS*%
%TO.N,unconnected-(U1-VBUS-Pad40)*%
X82550000Y-101600000D03*
%TD*%
D27*
%TO.N,GND*%
X190754000Y-70866000D03*
X161290000Y-84328000D03*
X145542000Y-84328000D03*
X186944000Y-70866000D03*
%TO.N,/Direction*%
X130048000Y-76962000D03*
%TO.N,/MS1*%
X184404000Y-55626000D03*
%TO.N,/MS2*%
X184658000Y-58674000D03*
%TO.N,+3V3*%
X190754000Y-64008000D03*
X186944000Y-64008000D03*
%TO.N,/MotorEnable*%
X115570000Y-75438000D03*
X115569998Y-51667400D03*
X115569998Y-70866000D03*
%TD*%
D28*
%TO.N,/TZ_PB*%
X135636000Y-98472000D02*
X148136000Y-98472000D01*
%TO.N,/DebugPB*%
X153262000Y-98766000D02*
X165762000Y-98766000D01*
D29*
%TO.N,Net-(D3-A)*%
X84963000Y-72517000D02*
X89408000Y-76962000D01*
X82042000Y-72517000D02*
X84963000Y-72517000D01*
D28*
%TO.N,GND*%
X144027000Y-84328000D02*
X145542000Y-84328000D01*
X159775000Y-84328000D02*
X161290000Y-84328000D01*
%TO.N,/Direction*%
X148336000Y-69342000D02*
X163830000Y-69342000D01*
X93726000Y-70612000D02*
X94996000Y-69342000D01*
X145796000Y-69342000D02*
X147066000Y-70612000D01*
X110236000Y-69342000D02*
X111506000Y-70612000D01*
X165100000Y-70612000D02*
X166370000Y-69342000D01*
X112776000Y-69342000D02*
X128016000Y-69342000D01*
X129286000Y-70612000D02*
X130556000Y-69342000D01*
X129286000Y-76200000D02*
X130048000Y-76962000D01*
X129286000Y-70612000D02*
X129286000Y-76200000D01*
X163830000Y-69342000D02*
X165100000Y-70612000D01*
X181356000Y-69342000D02*
X182626000Y-70612000D01*
X130556000Y-69342000D02*
X145796000Y-69342000D01*
X166370000Y-69342000D02*
X181356000Y-69342000D01*
X147066000Y-70612000D02*
X148336000Y-69342000D01*
X94996000Y-69342000D02*
X110236000Y-69342000D01*
X111506000Y-70612000D02*
X112776000Y-69342000D01*
X128016000Y-69342000D02*
X129286000Y-70612000D01*
%TO.N,/MS1*%
X166264600Y-54207400D02*
X165100000Y-55372000D01*
X163830000Y-54102000D02*
X148336000Y-54102000D01*
X112776000Y-54102000D02*
X111506000Y-55372000D01*
X129286000Y-55372000D02*
X128016000Y-54102000D01*
X111506000Y-55372000D02*
X110236000Y-54102000D01*
X148336000Y-54102000D02*
X147066000Y-55372000D01*
X128016000Y-54102000D02*
X112776000Y-54102000D01*
X182626000Y-55372000D02*
X181461400Y-54207400D01*
X165100000Y-55372000D02*
X163830000Y-54102000D01*
X130450600Y-54207400D02*
X129286000Y-55372000D01*
X181461400Y-54207400D02*
X166264600Y-54207400D01*
X94996000Y-54102000D02*
X93726000Y-55372000D01*
X182880000Y-55626000D02*
X182626000Y-55372000D01*
X184404000Y-55626000D02*
X182880000Y-55626000D01*
X147066000Y-55372000D02*
X145901400Y-54207400D01*
X145901400Y-54207400D02*
X130450600Y-54207400D01*
X110236000Y-54102000D02*
X94996000Y-54102000D01*
%TO.N,/MS2*%
X184658000Y-58674000D02*
X183896000Y-57912000D01*
X163830000Y-56642000D02*
X148336000Y-56642000D01*
X165608000Y-57912000D02*
X165100000Y-57912000D01*
X145796000Y-56642000D02*
X130556000Y-56642000D01*
X166878000Y-56642000D02*
X165608000Y-57912000D01*
X147066000Y-57912000D02*
X145796000Y-56642000D01*
X130556000Y-56642000D02*
X129286000Y-57912000D01*
X112776000Y-56642000D02*
X111506000Y-57912000D01*
X182626000Y-57912000D02*
X181356000Y-56642000D01*
X128016000Y-56642000D02*
X112776000Y-56642000D01*
X111506000Y-57912000D02*
X110236000Y-56642000D01*
X183896000Y-57912000D02*
X182626000Y-57912000D01*
X110236000Y-56642000D02*
X94996000Y-56642000D01*
X129286000Y-57912000D02*
X128016000Y-56642000D01*
X181356000Y-56642000D02*
X166878000Y-56642000D01*
X165100000Y-57912000D02*
X163830000Y-56642000D01*
X148336000Y-56642000D02*
X147066000Y-57912000D01*
X111506000Y-57912000D02*
X111760000Y-57912000D01*
X94996000Y-56642000D02*
X93726000Y-57912000D01*
%TO.N,/MOSI*%
X117856000Y-98806000D02*
X120650000Y-101600000D01*
X117856000Y-95250000D02*
X117856000Y-98806000D01*
%TO.N,/SCK*%
X120396000Y-95250000D02*
X120396000Y-98806000D01*
X120396000Y-98806000D02*
X123190000Y-101600000D01*
%TO.N,Net-(D2-A)*%
X155448000Y-84328000D02*
X157725000Y-84328000D01*
%TO.N,Net-(D1-A)*%
X139668000Y-84328000D02*
X141968000Y-84328000D01*
D29*
%TO.N,/VSYS*%
X85090000Y-97028000D02*
X85090000Y-101600000D01*
X81358500Y-93296500D02*
X85090000Y-97028000D01*
X81788000Y-76962000D02*
X81358500Y-77391500D01*
X81358500Y-77391500D02*
X81358500Y-93296500D01*
D28*
%TO.N,/DebugPB*%
X153262000Y-98766000D02*
X153262000Y-100230000D01*
X106172000Y-104902000D02*
X102870000Y-101600000D01*
X148590000Y-104902000D02*
X106172000Y-104902000D01*
X153262000Y-100230000D02*
X148590000Y-104902000D01*
%TO.N,/MotorDebug*%
X97790000Y-91948000D02*
X103632000Y-86106000D01*
X151670000Y-86106000D02*
X153448000Y-84328000D01*
X103632000Y-86106000D02*
X151670000Y-86106000D01*
X97790000Y-101600000D02*
X97790000Y-91948000D01*
%TO.N,/CS*%
X122428000Y-97790000D02*
X121666000Y-97028000D01*
X120142000Y-92964000D02*
X112522000Y-92964000D01*
X121666000Y-94488000D02*
X120142000Y-92964000D01*
X121666000Y-97028000D02*
X121666000Y-94488000D01*
X124460000Y-97790000D02*
X122428000Y-97790000D01*
X128270000Y-101600000D02*
X124460000Y-97790000D01*
X112522000Y-92964000D02*
X110236000Y-95250000D01*
%TO.N,/D{slash}~{C}*%
X116586000Y-100076000D02*
X116586000Y-93980000D01*
X118110000Y-101600000D02*
X116586000Y-100076000D01*
X116078000Y-93472000D02*
X114554000Y-93472000D01*
X116586000Y-93980000D02*
X116078000Y-93472000D01*
X114554000Y-93472000D02*
X112776000Y-95250000D01*
%TO.N,/Reset*%
X115570000Y-95758000D02*
X115570000Y-101600000D01*
X115316000Y-95250000D02*
X115316000Y-95504000D01*
X115316000Y-95504000D02*
X115570000Y-95758000D01*
%TO.N,/GPSTx*%
X177143400Y-80289606D02*
X177143400Y-81254394D01*
X179472600Y-81254394D02*
X179472600Y-80289606D01*
X89008000Y-79902000D02*
X177531006Y-79902000D01*
X177143400Y-81254394D02*
X177825606Y-81936600D01*
X85090000Y-83820000D02*
X89008000Y-79902000D01*
X178790394Y-81936600D02*
X179472600Y-81254394D01*
X177531006Y-79902000D02*
X177143400Y-80289606D01*
X179084994Y-79902000D02*
X179978000Y-79902000D01*
X179472600Y-80289606D02*
X179084994Y-79902000D01*
X179978000Y-79902000D02*
X180848000Y-80772000D01*
X177825606Y-81936600D02*
X178790394Y-81936600D01*
%TO.N,/GPSRx*%
X82804000Y-83820000D02*
X87122000Y-79502000D01*
X82550000Y-83820000D02*
X82804000Y-83820000D01*
X87122000Y-79502000D02*
X182118000Y-79502000D01*
X182118000Y-79502000D02*
X183388000Y-80772000D01*
%TO.N,/MotorEnable*%
X147066000Y-52832000D02*
X148230600Y-51667400D01*
X163681400Y-51667400D02*
X164846000Y-52832000D01*
X112670600Y-51667400D02*
X113538000Y-51667400D01*
X145901400Y-51667400D02*
X147066000Y-52832000D01*
X115570000Y-70866002D02*
X115569998Y-70866000D01*
X181461400Y-51667400D02*
X182626000Y-52832000D01*
X111506000Y-52832000D02*
X112670600Y-51667400D01*
X93726000Y-52832000D02*
X94890600Y-51667400D01*
X166010600Y-51667400D02*
X181461400Y-51667400D01*
X94890600Y-51667400D02*
X110341400Y-51667400D01*
X148230600Y-51667400D02*
X163681400Y-51667400D01*
X128121400Y-51667400D02*
X113538000Y-51667400D01*
X164846000Y-52832000D02*
X166010600Y-51667400D01*
X130450600Y-51667400D02*
X145901400Y-51667400D01*
X129286000Y-52832000D02*
X130450600Y-51667400D01*
X110341400Y-51667400D02*
X111506000Y-52832000D01*
X115570000Y-75438000D02*
X115570000Y-70866002D01*
X129286000Y-52832000D02*
X128121400Y-51667400D01*
%TO.N,/DebugLED*%
X136906000Y-85090000D02*
X129540000Y-85090000D01*
X129540000Y-85090000D02*
X128270000Y-83820000D01*
X137668000Y-84328000D02*
X136906000Y-85090000D01*
%TO.N,/TZ_PB*%
X131318000Y-104394000D02*
X106934000Y-104394000D01*
X135636000Y-100076000D02*
X131318000Y-104394000D01*
X105156000Y-101854000D02*
X105410000Y-101600000D01*
X105156000Y-102616000D02*
X105156000Y-101854000D01*
X135636000Y-98472000D02*
X135636000Y-100076000D01*
X106934000Y-104394000D02*
X105156000Y-102616000D01*
%TD*%
M02*
