%TF.GenerationSoftware,KiCad,Pcbnew,9.0.7*%
%TF.CreationDate,2026-02-26T22:39:55-05:00*%
%TF.ProjectId,StepperClock,53746570-7065-4724-936c-6f636b2e6b69,rev?*%
%TF.SameCoordinates,Original*%
%TF.FileFunction,Copper,L1,Top*%
%TF.FilePolarity,Positive*%
%FSLAX46Y46*%
G04 Gerber Fmt 4.6, Leading zero omitted, Abs format (unit mm)*
G04 Created by KiCad (PCBNEW 9.0.7) date 2026-02-26 22:39:55*
%MOMM*%
%LPD*%
G01*
G04 APERTURE LIST*
G04 Aperture macros list*
%AMRoundRect*
0 Rectangle with rounded corners*
0 $1 Rounding radius*
0 $2 $3 $4 $5 $6 $7 $8 $9 X,Y pos of 4 corners*
0 Add a 4 corners polygon primitive as box body*
4,1,4,$2,$3,$4,$5,$6,$7,$8,$9,$2,$3,0*
0 Add four circle primitives for the rounded corners*
1,1,$1+$1,$2,$3*
1,1,$1+$1,$4,$5*
1,1,$1+$1,$6,$7*
1,1,$1+$1,$8,$9*
0 Add four rect primitives between the rounded corners*
20,1,$1+$1,$2,$3,$4,$5,0*
20,1,$1+$1,$4,$5,$6,$7,0*
20,1,$1+$1,$6,$7,$8,$9,0*
20,1,$1+$1,$8,$9,$2,$3,0*%
%AMFreePoly0*
4,1,6,1.000000,0.000000,0.500000,-0.750000,-0.500000,-0.750000,-0.500000,0.750000,0.500000,0.750000,1.000000,0.000000,1.000000,0.000000,$1*%
%AMFreePoly1*
4,1,7,0.700000,0.000000,1.200000,-0.750000,-1.200000,-0.750000,-0.700000,0.000000,-1.200000,0.750000,1.200000,0.750000,0.700000,0.000000,0.700000,0.000000,$1*%
%AMFreePoly2*
4,1,37,0.800000,0.796148,0.878414,0.796148,1.032228,0.765552,1.177117,0.705537,1.307515,0.618408,1.418408,0.507515,1.505537,0.377117,1.565552,0.232228,1.596148,0.078414,1.596148,-0.078414,1.565552,-0.232228,1.505537,-0.377117,1.418408,-0.507515,1.307515,-0.618408,1.177117,-0.705537,1.032228,-0.765552,0.878414,-0.796148,0.800000,-0.796148,0.800000,-0.800000,-1.400000,-0.800000,
-1.403843,-0.796157,-1.439018,-0.796157,-1.511114,-0.766294,-1.566294,-0.711114,-1.596157,-0.639018,-1.596157,-0.603843,-1.600000,-0.600000,-1.600000,0.600000,-1.596157,0.603843,-1.596157,0.639018,-1.566294,0.711114,-1.511114,0.766294,-1.439018,0.796157,-1.403843,0.796157,-1.400000,0.800000,0.800000,0.800000,0.800000,0.796148,0.800000,0.796148,$1*%
%AMFreePoly3*
4,1,37,1.403843,0.796157,1.439018,0.796157,1.511114,0.766294,1.566294,0.711114,1.596157,0.639018,1.596157,0.603843,1.600000,0.600000,1.600000,-0.600000,1.596157,-0.603843,1.596157,-0.639018,1.566294,-0.711114,1.511114,-0.766294,1.439018,-0.796157,1.403843,-0.796157,1.400000,-0.800000,-0.800000,-0.800000,-0.800000,-0.796148,-0.878414,-0.796148,-1.032228,-0.765552,-1.177117,-0.705537,
-1.307515,-0.618408,-1.418408,-0.507515,-1.505537,-0.377117,-1.565552,-0.232228,-1.596148,-0.078414,-1.596148,0.078414,-1.565552,0.232228,-1.505537,0.377117,-1.418408,0.507515,-1.307515,0.618408,-1.177117,0.705537,-1.032228,0.765552,-0.878414,0.796148,-0.800000,0.796148,-0.800000,0.800000,1.400000,0.800000,1.403843,0.796157,1.403843,0.796157,$1*%
G04 Aperture macros list end*
%TA.AperFunction,ComponentPad*%
%ADD10C,1.727200*%
%TD*%
%TA.AperFunction,ComponentPad*%
%ADD11C,3.048000*%
%TD*%
%TA.AperFunction,SMDPad,CuDef*%
%ADD12FreePoly0,0.000000*%
%TD*%
%TA.AperFunction,SMDPad,CuDef*%
%ADD13FreePoly1,0.000000*%
%TD*%
%TA.AperFunction,SMDPad,CuDef*%
%ADD14FreePoly0,180.000000*%
%TD*%
%TA.AperFunction,ComponentPad*%
%ADD15RoundRect,0.249999X0.850001X-0.850001X0.850001X0.850001X-0.850001X0.850001X-0.850001X-0.850001X0*%
%TD*%
%TA.AperFunction,ComponentPad*%
%ADD16C,2.200000*%
%TD*%
%TA.AperFunction,ComponentPad*%
%ADD17R,1.700000X1.700000*%
%TD*%
%TA.AperFunction,ComponentPad*%
%ADD18C,1.700000*%
%TD*%
%TA.AperFunction,SMDPad,CuDef*%
%ADD19FreePoly2,90.000000*%
%TD*%
%TA.AperFunction,SMDPad,CuDef*%
%ADD20RoundRect,0.800000X0.000010X-0.800000X0.000010X0.800000X-0.000010X0.800000X-0.000010X-0.800000X0*%
%TD*%
%TA.AperFunction,SMDPad,CuDef*%
%ADD21FreePoly3,90.000000*%
%TD*%
%TA.AperFunction,ComponentPad*%
%ADD22C,0.068000*%
%TD*%
%TA.AperFunction,Conductor*%
%ADD23C,0.200000*%
%TD*%
G04 APERTURE END LIST*
D10*
%TO.P,U1,1,GND*%
%TO.N,GND*%
X119507000Y-76530200D03*
%TO.P,U1,2,VCC*%
%TO.N,+3V3*%
X116967000Y-76530200D03*
%TO.P,U1,3,SCL*%
%TO.N,/SCK*%
X114427000Y-76530200D03*
%TO.P,U1,4,SDA*%
%TO.N,/MOSI*%
X111887000Y-76530200D03*
%TO.P,U1,5,RES*%
%TO.N,/TFT_Reset*%
X109347000Y-76530200D03*
%TO.P,U1,6,D/~{C}*%
%TO.N,/TFT_D{slash}~{C}*%
X106807000Y-76530200D03*
%TO.P,U1,7,CS*%
%TO.N,/TFT_Select*%
X104267000Y-76530200D03*
%TO.P,U1,8,BLK*%
%TO.N,unconnected-(U1-BLK-Pad8)*%
X101727000Y-76530200D03*
D11*
%TO.P,U1,9*%
%TO.N,N/C*%
X123113800Y-75260200D03*
X122910600Y-56515000D03*
X98018600Y-56261000D03*
X97891600Y-75361800D03*
%TD*%
D12*
%TO.P,JP2,1,A*%
%TO.N,+5V*%
X136970000Y-75768200D03*
D13*
%TO.P,JP2,2,C*%
%TO.N,Net-(JP2-C)*%
X138970000Y-75768200D03*
D14*
%TO.P,JP2,3,B*%
%TO.N,GND*%
X140970000Y-75768200D03*
%TD*%
D12*
%TO.P,JP1,1,A*%
%TO.N,+5V*%
X129756400Y-75844400D03*
D13*
%TO.P,JP1,2,C*%
%TO.N,Net-(JP1-C)*%
X131756400Y-75844400D03*
D14*
%TO.P,JP1,3,B*%
%TO.N,GND*%
X133756400Y-75844400D03*
%TD*%
D15*
%TO.P,D1,1,K*%
%TO.N,Net-(A1-VSYS)*%
X181762400Y-105308400D03*
D16*
%TO.P,D1,2,A*%
%TO.N,+5V*%
X181762400Y-95148400D03*
%TD*%
D17*
%TO.P,J6,1,Pin_1*%
%TO.N,/Sec1_M1B*%
X159918400Y-49647800D03*
D18*
%TO.P,J6,2,Pin_2*%
%TO.N,/Sec1_M1A*%
X162458400Y-49647800D03*
%TO.P,J6,3,Pin_3*%
%TO.N,/Sec1_M2B*%
X164998400Y-49647800D03*
%TO.P,J6,4,Pin_4*%
X167538400Y-49647800D03*
%TD*%
D17*
%TO.P,J3,1,Pin_1*%
%TO.N,/Hour0_M1B*%
X112217200Y-50165000D03*
D18*
%TO.P,J3,2,Pin_2*%
%TO.N,/Hour0_M1A*%
X114757200Y-50165000D03*
%TO.P,J3,3,Pin_3*%
%TO.N,/Hour0_M2B*%
X117297200Y-50165000D03*
%TO.P,J3,4,Pin_4*%
X119837200Y-50165000D03*
%TD*%
D19*
%TO.P,A1,1,GPIO0*%
%TO.N,/PicoTx*%
X94239400Y-101872800D03*
D20*
%TO.P,A1,2,GPIO1*%
%TO.N,/PicoRx*%
X96779400Y-101872800D03*
D21*
%TO.P,A1,3,GND*%
%TO.N,GND*%
X99319400Y-101872800D03*
D20*
%TO.P,A1,4,GPIO2*%
%TO.N,/Hour1Step*%
X101859400Y-101872800D03*
%TO.P,A1,5,GPIO3*%
%TO.N,/Hour1Home*%
X104399400Y-101872800D03*
%TO.P,A1,6,GPIO4*%
%TO.N,/Hour0Step*%
X106939400Y-101872800D03*
%TO.P,A1,7,GPIO5*%
%TO.N,/Hour0Home*%
X109479400Y-101872800D03*
D21*
%TO.P,A1,8,GND*%
%TO.N,GND*%
X112019400Y-101872800D03*
D20*
%TO.P,A1,9,GPIO6*%
%TO.N,/Min1Step*%
X114559400Y-101872800D03*
%TO.P,A1,10,GPIO7*%
%TO.N,/Min1Home*%
X117099400Y-101872800D03*
%TO.P,A1,11,GPIO8*%
%TO.N,/Min0Step*%
X119639400Y-101872800D03*
%TO.P,A1,12,GPIO9*%
%TO.N,/Min0Home*%
X122179400Y-101872800D03*
D21*
%TO.P,A1,13,GND*%
%TO.N,GND*%
X124719400Y-101872800D03*
D20*
%TO.P,A1,14,GPIO10*%
%TO.N,/Sec1Step*%
X127259400Y-101872800D03*
%TO.P,A1,15,GPIO11*%
%TO.N,/Sec1Home*%
X129799400Y-101872800D03*
%TO.P,A1,16,GPIO12*%
%TO.N,/Sec0Step*%
X132339400Y-101872800D03*
%TO.P,A1,17,GPIO13*%
%TO.N,/Sec0Home*%
X134879400Y-101872800D03*
D21*
%TO.P,A1,18,GND*%
%TO.N,GND*%
X137419400Y-101872800D03*
D20*
%TO.P,A1,19,GPIO14*%
%TO.N,unconnected-(A1-GPIO14-Pad19)*%
X139959400Y-101872800D03*
%TO.P,A1,20,GPIO15*%
%TO.N,/Direction*%
X142499400Y-101872800D03*
%TO.P,A1,21,GPIO16*%
%TO.N,/MISO*%
X142499400Y-82492800D03*
%TO.P,A1,22,GPIO17*%
%TO.N,/TFT_Select*%
X139959400Y-82492800D03*
D19*
%TO.P,A1,23,GND*%
%TO.N,GND*%
X137419400Y-82492800D03*
D20*
%TO.P,A1,24,GPIO18*%
%TO.N,/SCK*%
X134879400Y-82492800D03*
%TO.P,A1,25,GPIO19*%
%TO.N,/MOSI*%
X132339400Y-82492800D03*
%TO.P,A1,26,GPIO20*%
%TO.N,/TFT_D{slash}~{C}*%
X129799400Y-82492800D03*
%TO.P,A1,27,GPIO21*%
%TO.N,/TFT_Reset*%
X127259400Y-82492800D03*
D19*
%TO.P,A1,28,GND*%
%TO.N,GND*%
X124719400Y-82492800D03*
D20*
%TO.P,A1,29,GPIO22*%
%TO.N,/Enable*%
X122179400Y-82492800D03*
%TO.P,A1,30,RUN*%
%TO.N,unconnected-(A1-RUN-Pad30)*%
X119639400Y-82492800D03*
%TO.P,A1,31,GPIO26_ADC0*%
%TO.N,/TZOffset*%
X117099400Y-82492800D03*
%TO.P,A1,32,GPIO27_ADC1*%
%TO.N,unconnected-(A1-GPIO27_ADC1-Pad32)*%
X114559400Y-82492800D03*
D19*
%TO.P,A1,33,AGND*%
%TO.N,unconnected-(A1-AGND-Pad33)*%
X112019400Y-82492800D03*
D20*
%TO.P,A1,34,GPIO28_ADC2*%
%TO.N,/Debug*%
X109479400Y-82492800D03*
%TO.P,A1,35,ADC_VREF*%
%TO.N,unconnected-(A1-ADC_VREF-Pad35)*%
X106939400Y-82492800D03*
%TO.P,A1,36,3V3*%
%TO.N,+3V3*%
X104399400Y-82492800D03*
%TO.P,A1,37,3V3_EN*%
%TO.N,unconnected-(A1-3V3_EN-Pad37)*%
X101859400Y-82492800D03*
D19*
%TO.P,A1,38,GND*%
%TO.N,GND*%
X99319400Y-82492800D03*
D20*
%TO.P,A1,39,VSYS*%
%TO.N,Net-(A1-VSYS)*%
X96779400Y-82492800D03*
%TO.P,A1,40,VBUS*%
%TO.N,unconnected-(A1-VBUS-Pad40)*%
X94239400Y-82492800D03*
%TD*%
D17*
%TO.P,J5,1,Pin_1*%
%TO.N,/Min0_M1B*%
X144043400Y-49419200D03*
D18*
%TO.P,J5,2,Pin_2*%
%TO.N,/Min0_M1A*%
X146583400Y-49419200D03*
%TO.P,J5,3,Pin_3*%
%TO.N,/Min0_M2B*%
X149123400Y-49419200D03*
%TO.P,J5,4,Pin_4*%
X151663400Y-49419200D03*
%TD*%
D17*
%TO.P,J2,1,Pin_1*%
%TO.N,/Hour1_M1B*%
X97205800Y-49809400D03*
D18*
%TO.P,J2,2,Pin_2*%
%TO.N,/Hour1_M1A*%
X99745800Y-49809400D03*
%TO.P,J2,3,Pin_3*%
%TO.N,/Hour1_M2B*%
X102285800Y-49809400D03*
%TO.P,J2,4,Pin_4*%
X104825800Y-49809400D03*
%TD*%
D17*
%TO.P,J1,1,Pin_1*%
%TO.N,GND*%
X186105800Y-101574600D03*
D18*
%TO.P,J1,2,Pin_2*%
%TO.N,+12V*%
X186105800Y-99034600D03*
%TD*%
D17*
%TO.P,J7,1,Pin_1*%
%TO.N,/Sec0_M1B*%
X176123600Y-49190600D03*
D18*
%TO.P,J7,2,Pin_2*%
%TO.N,/Sec0_M1A*%
X178663600Y-49190600D03*
%TO.P,J7,3,Pin_3*%
%TO.N,/Sec0_M2B*%
X181203600Y-49190600D03*
%TO.P,J7,4,Pin_4*%
X183743600Y-49190600D03*
%TD*%
D10*
%TO.P,U3,1,PPS*%
%TO.N,unconnected-(U3-PPS-Pad1)*%
X157607000Y-78740000D03*
D22*
X171227000Y-47060000D03*
D10*
%TO.P,U3,2,Tx*%
%TO.N,/PicoRx*%
X160147000Y-78740000D03*
%TO.P,U3,3,Rx*%
%TO.N,/PicoTx*%
X162687000Y-78740000D03*
%TO.P,U3,4,GND*%
%TO.N,GND*%
X165227000Y-78740000D03*
%TO.P,U3,5,VCC*%
%TO.N,+3V3*%
X167767000Y-78740000D03*
%TD*%
%TO.P,U2,1,IN-*%
%TO.N,GND*%
X181051200Y-91516200D03*
%TO.P,U2,2,IN+*%
%TO.N,+12V*%
X188671200Y-91516200D03*
%TO.P,U2,3,Out+*%
%TO.N,+5V*%
X188671200Y-77038200D03*
%TO.P,U2,4,Out-*%
%TO.N,GND*%
X181051200Y-77038200D03*
%TD*%
D17*
%TO.P,J4,1,Pin_1*%
%TO.N,/Min1_M1B*%
X127889000Y-49225200D03*
D18*
%TO.P,J4,2,Pin_2*%
%TO.N,/Min1_M1A*%
X130429000Y-49225200D03*
%TO.P,J4,3,Pin_3*%
%TO.N,/Min1_M2B*%
X132969000Y-49225200D03*
%TO.P,J4,4,Pin_4*%
X135509000Y-49225200D03*
%TD*%
D10*
%TO.P,U5,1,EN*%
%TO.N,/Enable*%
X110761600Y-71501000D03*
%TO.P,U5,2,MS1*%
%TO.N,Net-(JP1-C)*%
X110761600Y-68961000D03*
%TO.P,U5,3,MS2*%
%TO.N,Net-(JP2-C)*%
X110761600Y-66421000D03*
%TO.P,U5,4,UART*%
%TO.N,unconnected-(U5-UART-Pad4)*%
X110761600Y-63881000D03*
%TO.P,U5,5,PDN*%
%TO.N,unconnected-(U5-PDN-Pad5)*%
X110761600Y-61341000D03*
%TO.P,U5,6,CLK*%
%TO.N,Net-(U4-CLK)*%
X110761600Y-58801000D03*
%TO.P,U5,7,STEP*%
%TO.N,/Hour0Step*%
X110761600Y-56261000D03*
%TO.P,U5,8,DIR*%
%TO.N,/Direction*%
X110761600Y-53721000D03*
%TO.P,U5,9,GND*%
%TO.N,GND*%
X123461600Y-53721000D03*
%TO.P,U5,10,VIO*%
%TO.N,+5V*%
X123461600Y-56261000D03*
%TO.P,U5,11,M2B*%
%TO.N,/Hour0_M2B*%
X123461600Y-58801000D03*
%TO.P,U5,12,M2A*%
X123461600Y-61341000D03*
%TO.P,U5,13,M1A*%
%TO.N,/Hour0_M1A*%
X123461600Y-63881000D03*
%TO.P,U5,14,M1B*%
%TO.N,/Hour0_M1B*%
X123461600Y-66421000D03*
%TO.P,U5,15,GND*%
%TO.N,GND*%
X123461600Y-68961000D03*
%TO.P,U5,16,VM*%
%TO.N,+12V*%
X123461600Y-71501000D03*
%TD*%
%TO.P,U4,1,EN*%
%TO.N,/Enable*%
X94929600Y-71501000D03*
%TO.P,U4,2,MS1*%
%TO.N,Net-(JP1-C)*%
X94929600Y-68961000D03*
%TO.P,U4,3,MS2*%
%TO.N,Net-(JP2-C)*%
X94929600Y-66421000D03*
%TO.P,U4,4,UART*%
%TO.N,unconnected-(U4-UART-Pad4)*%
X94929600Y-63881000D03*
%TO.P,U4,5,PDN*%
%TO.N,unconnected-(U4-PDN-Pad5)*%
X94929600Y-61341000D03*
%TO.P,U4,6,CLK*%
%TO.N,Net-(U4-CLK)*%
X94929600Y-58801000D03*
%TO.P,U4,7,STEP*%
%TO.N,/Hour1Step*%
X94929600Y-56261000D03*
%TO.P,U4,8,DIR*%
%TO.N,/Direction*%
X94929600Y-53721000D03*
%TO.P,U4,9,GND*%
%TO.N,GND*%
X107629600Y-53721000D03*
%TO.P,U4,10,VIO*%
%TO.N,+5V*%
X107629600Y-56261000D03*
%TO.P,U4,11,M2B*%
%TO.N,/Hour1_M2B*%
X107629600Y-58801000D03*
%TO.P,U4,12,M2A*%
X107629600Y-61341000D03*
%TO.P,U4,13,M1A*%
%TO.N,/Hour1_M1A*%
X107629600Y-63881000D03*
%TO.P,U4,14,M1B*%
%TO.N,/Hour1_M1B*%
X107629600Y-66421000D03*
%TO.P,U4,15,GND*%
%TO.N,GND*%
X107629600Y-68961000D03*
%TO.P,U4,16,VM*%
%TO.N,+12V*%
X107629600Y-71501000D03*
%TD*%
%TO.P,U9,1,EN*%
%TO.N,/Enable*%
X174089600Y-71501000D03*
%TO.P,U9,2,MS1*%
%TO.N,Net-(JP1-C)*%
X174089600Y-68961000D03*
%TO.P,U9,3,MS2*%
%TO.N,Net-(JP2-C)*%
X174089600Y-66421000D03*
%TO.P,U9,4,UART*%
%TO.N,unconnected-(U9-UART-Pad4)*%
X174089600Y-63881000D03*
%TO.P,U9,5,PDN*%
%TO.N,unconnected-(U9-PDN-Pad5)*%
X174089600Y-61341000D03*
%TO.P,U9,6,CLK*%
%TO.N,Net-(U4-CLK)*%
X174089600Y-58801000D03*
%TO.P,U9,7,STEP*%
%TO.N,/Sec0Step*%
X174089600Y-56261000D03*
%TO.P,U9,8,DIR*%
%TO.N,/Direction*%
X174089600Y-53721000D03*
%TO.P,U9,9,GND*%
%TO.N,GND*%
X186789600Y-53721000D03*
%TO.P,U9,10,VIO*%
%TO.N,+5V*%
X186789600Y-56261000D03*
%TO.P,U9,11,M2B*%
%TO.N,/Sec0_M2B*%
X186789600Y-58801000D03*
%TO.P,U9,12,M2A*%
X186789600Y-61341000D03*
%TO.P,U9,13,M1A*%
%TO.N,/Sec0_M1A*%
X186789600Y-63881000D03*
%TO.P,U9,14,M1B*%
%TO.N,/Sec0_M1B*%
X186789600Y-66421000D03*
%TO.P,U9,15,GND*%
%TO.N,GND*%
X186789600Y-68961000D03*
%TO.P,U9,16,VM*%
%TO.N,+12V*%
X186789600Y-71501000D03*
%TD*%
%TO.P,U7,1,EN*%
%TO.N,/Enable*%
X142425600Y-71501000D03*
%TO.P,U7,2,MS1*%
%TO.N,Net-(JP1-C)*%
X142425600Y-68961000D03*
%TO.P,U7,3,MS2*%
%TO.N,Net-(JP2-C)*%
X142425600Y-66421000D03*
%TO.P,U7,4,UART*%
%TO.N,unconnected-(U7-UART-Pad4)*%
X142425600Y-63881000D03*
%TO.P,U7,5,PDN*%
%TO.N,unconnected-(U7-PDN-Pad5)*%
X142425600Y-61341000D03*
%TO.P,U7,6,CLK*%
%TO.N,Net-(U4-CLK)*%
X142425600Y-58801000D03*
%TO.P,U7,7,STEP*%
%TO.N,/Min0Step*%
X142425600Y-56261000D03*
%TO.P,U7,8,DIR*%
%TO.N,/Direction*%
X142425600Y-53721000D03*
%TO.P,U7,9,GND*%
%TO.N,GND*%
X155125600Y-53721000D03*
%TO.P,U7,10,VIO*%
%TO.N,+5V*%
X155125600Y-56261000D03*
%TO.P,U7,11,M2B*%
%TO.N,/Min0_M2B*%
X155125600Y-58801000D03*
%TO.P,U7,12,M2A*%
X155125600Y-61341000D03*
%TO.P,U7,13,M1A*%
%TO.N,/Min0_M1A*%
X155125600Y-63881000D03*
%TO.P,U7,14,M1B*%
%TO.N,/Min0_M1B*%
X155125600Y-66421000D03*
%TO.P,U7,15,GND*%
%TO.N,GND*%
X155125600Y-68961000D03*
%TO.P,U7,16,VM*%
%TO.N,+12V*%
X155125600Y-71501000D03*
%TD*%
%TO.P,U8,1,EN*%
%TO.N,/Enable*%
X158257600Y-71501000D03*
%TO.P,U8,2,MS1*%
%TO.N,Net-(JP1-C)*%
X158257600Y-68961000D03*
%TO.P,U8,3,MS2*%
%TO.N,Net-(JP2-C)*%
X158257600Y-66421000D03*
%TO.P,U8,4,UART*%
%TO.N,unconnected-(U8-UART-Pad4)*%
X158257600Y-63881000D03*
%TO.P,U8,5,PDN*%
%TO.N,unconnected-(U8-PDN-Pad5)*%
X158257600Y-61341000D03*
%TO.P,U8,6,CLK*%
%TO.N,Net-(U4-CLK)*%
X158257600Y-58801000D03*
%TO.P,U8,7,STEP*%
%TO.N,/Sec1Step*%
X158257600Y-56261000D03*
%TO.P,U8,8,DIR*%
%TO.N,/Direction*%
X158257600Y-53721000D03*
%TO.P,U8,9,GND*%
%TO.N,GND*%
X170957600Y-53721000D03*
%TO.P,U8,10,VIO*%
%TO.N,+5V*%
X170957600Y-56261000D03*
%TO.P,U8,11,M2B*%
%TO.N,/Sec1_M2B*%
X170957600Y-58801000D03*
%TO.P,U8,12,M2A*%
X170957600Y-61341000D03*
%TO.P,U8,13,M1A*%
%TO.N,/Sec1_M1A*%
X170957600Y-63881000D03*
%TO.P,U8,14,M1B*%
%TO.N,/Sec1_M1B*%
X170957600Y-66421000D03*
%TO.P,U8,15,GND*%
%TO.N,GND*%
X170957600Y-68961000D03*
%TO.P,U8,16,VM*%
%TO.N,+12V*%
X170957600Y-71501000D03*
%TD*%
%TO.P,U6,1,EN*%
%TO.N,/Enable*%
X126593600Y-71501000D03*
%TO.P,U6,2,MS1*%
%TO.N,Net-(JP1-C)*%
X126593600Y-68961000D03*
%TO.P,U6,3,MS2*%
%TO.N,Net-(JP2-C)*%
X126593600Y-66421000D03*
%TO.P,U6,4,UART*%
%TO.N,unconnected-(U6-UART-Pad4)*%
X126593600Y-63881000D03*
%TO.P,U6,5,PDN*%
%TO.N,unconnected-(U6-PDN-Pad5)*%
X126593600Y-61341000D03*
%TO.P,U6,6,CLK*%
%TO.N,Net-(U4-CLK)*%
X126593600Y-58801000D03*
%TO.P,U6,7,STEP*%
%TO.N,/Min1Step*%
X126593600Y-56261000D03*
%TO.P,U6,8,DIR*%
%TO.N,/Direction*%
X126593600Y-53721000D03*
%TO.P,U6,9,GND*%
%TO.N,GND*%
X139293600Y-53721000D03*
%TO.P,U6,10,VIO*%
%TO.N,+5V*%
X139293600Y-56261000D03*
%TO.P,U6,11,M2B*%
%TO.N,/Min1_M2B*%
X139293600Y-58801000D03*
%TO.P,U6,12,M2A*%
X139293600Y-61341000D03*
%TO.P,U6,13,M1A*%
%TO.N,/Min1_M1A*%
X139293600Y-63881000D03*
%TO.P,U6,14,M1B*%
%TO.N,/Min1_M1B*%
X139293600Y-66421000D03*
%TO.P,U6,15,GND*%
%TO.N,GND*%
X139293600Y-68961000D03*
%TO.P,U6,16,VM*%
%TO.N,+12V*%
X139293600Y-71501000D03*
%TD*%
D23*
%TO.N,GND*%
X184378600Y-94843600D02*
X181051200Y-91516200D01*
X184378600Y-99847400D02*
X184378600Y-94843600D01*
X186105800Y-101574600D02*
X184378600Y-99847400D01*
%TO.N,+12V*%
X188671200Y-96469200D02*
X188671200Y-91516200D01*
X186105800Y-99034600D02*
X188671200Y-96469200D01*
%TD*%
M02*
